<?xml version="1.0" encoding="UTF-8" standalone="no"?>
<!-- Created with Inkscape (http://www.inkscape.org/) -->

<svg
   xmlns:a="http://ns.adobe.com/AdobeSVGViewerExtensions/3.0/"
   xmlns:dc="http://purl.org/dc/elements/1.1/"
   xmlns:cc="http://creativecommons.org/ns#"
   xmlns:rdf="http://www.w3.org/1999/02/22-rdf-syntax-ns#"
   xmlns:svg="http://www.w3.org/2000/svg"
   xmlns="http://www.w3.org/2000/svg"
   xmlns:xlink="http://www.w3.org/1999/xlink"
   xmlns:sodipodi="http://sodipodi.sourceforge.net/DTD/sodipodi-0.dtd"
   xmlns:inkscape="http://www.inkscape.org/namespaces/inkscape"
   version="1.0"
   width="48pt"
   height="48pt"
   viewBox="0 0 256 256"
   id="svg2"
   xml:space="preserve"
   sodipodi:version="0.32"
   inkscape:version="0.48.2 r9819"
   sodipodi:docname="Nuvola_Arabic_language_flag.svg"
   inkscape:output_extension="org.inkscape.output.svg.inkscape"><metadata
   id="metadata45"><rdf:RDF><cc:Work
       rdf:about=""><dc:format>image/svg+xml</dc:format><dc:type
         rdf:resource="http://purl.org/dc/dcmitype/StillImage" /><dc:title></dc:title></cc:Work></rdf:RDF></metadata><sodipodi:namedview
   inkscape:window-height="705"
   inkscape:window-width="1366"
   inkscape:pageshadow="2"
   inkscape:pageopacity="0.0"
   guidetolerance="10.0"
   gridtolerance="10.0"
   objecttolerance="10.0"
   borderopacity="1.0"
   bordercolor="#666666"
   pagecolor="#ffffff"
   id="base"
   inkscape:zoom="5.3244735"
   inkscape:cx="30.000002"
   inkscape:cy="15.244772"
   inkscape:window-x="-4"
   inkscape:window-y="-4"
   inkscape:current-layer="svg2"
   showgrid="false"
   inkscape:window-maximized="1" /><defs
   id="defs271"><linearGradient
   x1="126.18921"
   y1="39.617504"
   x2="126.18921"
   y2="112.30453"
   id="linearGradient3051"
   gradientUnits="userSpaceOnUse"
   gradientTransform="matrix(1.567692,0,0,1.567692,-69.82581,15.22741)">
								<stop
   id="stop3067"
   offset="0"
   style="stop-color:#000000;stop-opacity:1;" />
								<stop
   style="stop-color:#000000;stop-opacity:1;"
   offset="0.22564746"
   id="stop3055" />
								
								
								<stop
   style="stop-color:#007a3d;stop-opacity:1;"
   offset="0.36570451"
   id="stop3061" /><stop
   id="stop3071"
   offset="0.75247246"
   style="stop-color:#007a3d;stop-opacity:1;" /><stop
   style="stop-color:#ffffff;stop-opacity:1;"
   offset="0.85780334"
   id="stop3073" /><stop
   id="stop3069"
   offset="1"
   style="stop-color:#ffffff;stop-opacity:1;" />
								
								<a:midPointStop
   style="stop-color:#CF0000"
   offset="0" />
								<a:midPointStop
   style="stop-color:#CF0000"
   offset="0.5" />
								<a:midPointStop
   style="stop-color:#7C0000"
   offset="0.157303" />
								<a:midPointStop
   style="stop-color:#7C0000"
   offset="0.5" />
								<a:midPointStop
   style="stop-color:#CF0000"
   offset="0.314607" />
								<a:midPointStop
   style="stop-color:#CF0000"
   offset="0.5" />
								<a:midPointStop
   style="stop-color:#B80000"
   offset="0.65" />
								<a:midPointStop
   style="stop-color:#B80000"
   offset="0.5" />
								<a:midPointStop
   style="stop-color:#CF0000"
   offset="0.837079" />
								<a:midPointStop
   style="stop-color:#CF0000"
   offset="0.5" />
								<a:midPointStop
   style="stop-color:#FF0000"
   offset="1" />
							</linearGradient><inkscape:perspective
   sodipodi:type="inkscape:persp3d"
   inkscape:vp_x="0 : 30 : 1"
   inkscape:vp_y="0 : 1000 : 0"
   inkscape:vp_z="60 : 30 : 1"
   inkscape:persp3d-origin="30 : 20 : 1"
   id="perspective2495" /><linearGradient
   x1="87.396973"
   y1="141.97266"
   x2="240.94727"
   y2="141.97266"
   id="XMLID_22_"
   gradientUnits="userSpaceOnUse"
   gradientTransform="matrix(1.567692,0,0,1.567692,-129.3706,-94.56783)">
								<stop
   style="stop-color:#ffffff;stop-opacity:0.66666675"
   offset="0"
   id="stop139" />
								
								<stop
   style="stop-color:#d7d7d7;stop-opacity:0.21875"
   offset="0.24074516"
   id="stop143" />
								<stop
   style="stop-color:#4d4d4d;stop-opacity:0"
   offset="0.4585622"
   id="stop145" /><stop
   style="stop-color:#ffffff;stop-opacity:0.51041669"
   offset="0.71891773"
   id="stop3696" /><stop
   style="stop-color:#f2f2f2;stop-opacity:0.40000001"
   offset="0.87351298"
   id="stop2807" /><stop
   style="stop-color:#ffffff;stop-opacity:0.62352943"
   offset="1"
   id="stop3694" />
								
								
								<a:midPointStop
   style="stop-color:#E9E9EF"
   offset="0" />
								<a:midPointStop
   style="stop-color:#E9E9EF"
   offset="0.5" />
								<a:midPointStop
   style="stop-color:#B1B1C5"
   offset="0.157303" />
								<a:midPointStop
   style="stop-color:#B1B1C5"
   offset="0.5" />
								<a:midPointStop
   style="stop-color:#CECEDB"
   offset="0.314607" />
								<a:midPointStop
   style="stop-color:#CECEDB"
   offset="0.5" />
								<a:midPointStop
   style="stop-color:#FFFFFF"
   offset="0.65" />
								<a:midPointStop
   style="stop-color:#FFFFFF"
   offset="0.5" />
								<a:midPointStop
   style="stop-color:#CECEDB"
   offset="0.837079" />
								<a:midPointStop
   style="stop-color:#CECEDB"
   offset="0.5" />
								<a:midPointStop
   style="stop-color:#FFFF66"
   offset="1" />
							</linearGradient><linearGradient
   x1="87.396973"
   y1="141.97266"
   x2="269.33331"
   y2="141.97276"
   id="linearGradient1945"
   xlink:href="#XMLID_22_"
   gradientUnits="userSpaceOnUse"
   gradientTransform="matrix(1.567692,0,0,1.567692,-129.3714,-94.56962)" /><linearGradient
   gradientTransform="matrix(1.567692,0,0,1.567692,-69.82581,15.22741)"
   gradientUnits="userSpaceOnUse"
   id="XMLID_17_"
   y2="112.30453"
   x2="126.18921"
   y1="39.617504"
   x1="126.18921">
								<stop
   id="stop18"
   offset="0"
   style="stop-color:#000000;stop-opacity:1;" />
								<stop
   id="stop20"
   offset="0.19460699"
   style="stop-color:#000000;stop-opacity:1;" />
								<stop
   id="stop22"
   offset="0.31460699"
   style="stop-color:#ffffff;stop-opacity:1;" />
								<stop
   id="stop24"
   offset="0.72999996"
   style="stop-color:#ffffff;stop-opacity:1;" />
								<stop
   id="stop26"
   offset="0.85707897"
   style="stop-color:#007a3d;stop-opacity:1;" />
								<stop
   id="stop28"
   offset="1"
   style="stop-color:#007a3d;stop-opacity:1;" />
								<a:midPointStop
   offset="0"
   style="stop-color:#CF0000" />
								<a:midPointStop
   offset="0.5"
   style="stop-color:#CF0000" />
								<a:midPointStop
   offset="0.157303"
   style="stop-color:#7C0000" />
								<a:midPointStop
   offset="0.5"
   style="stop-color:#7C0000" />
								<a:midPointStop
   offset="0.314607"
   style="stop-color:#CF0000" />
								<a:midPointStop
   offset="0.5"
   style="stop-color:#CF0000" />
								<a:midPointStop
   offset="0.65"
   style="stop-color:#B80000" />
								<a:midPointStop
   offset="0.5"
   style="stop-color:#B80000" />
								<a:midPointStop
   offset="0.837079"
   style="stop-color:#CF0000" />
								<a:midPointStop
   offset="0.5"
   style="stop-color:#CF0000" />
								<a:midPointStop
   offset="1"
   style="stop-color:#FF0000" />
							</linearGradient><linearGradient
   inkscape:collect="always"
   xlink:href="#XMLID_22_"
   id="linearGradient3188"
   gradientUnits="userSpaceOnUse"
   gradientTransform="matrix(1.567692,0,0,1.567692,-129.3714,-94.56962)"
   x1="87.396973"
   y1="141.97266"
   x2="269.33331"
   y2="141.97276" /><linearGradient
   inkscape:collect="always"
   xlink:href="#XMLID_17_"
   id="linearGradient7085"
   x1="133.17909"
   y1="151.1393"
   x2="132.62358"
   y2="123.21392"
   gradientUnits="userSpaceOnUse" />
<linearGradient
   inkscape:collect="always"
   xlink:href="#XMLID_17_"
   id="linearGradient2192"
   gradientUnits="userSpaceOnUse"
   x1="133.17909"
   y1="151.1393"
   x2="132.62358"
   y2="123.21392" /><linearGradient
   inkscape:collect="always"
   xlink:href="#linearGradient3051"
   id="linearGradient2199"
   gradientUnits="userSpaceOnUse"
   x1="112.2657"
   y1="71.029701"
   x2="118.65001"
   y2="185.93625"
   gradientTransform="translate(0.2133375,0.293915)" /></defs>
	
		
	



<path
   id="path15"
   style="fill:#4d4d4d"
   d="M 248.36055,32.472022 C 167.27229,-10.429768 86.183274,85.849332 5.0950169,40.005058 C 2.2811336,38.417463 1.7853684e-05,39.212792 1.7853684e-05,42.029738 C 1.7853684e-05,99.343119 1.7853684e-05,156.65726 1.7853684e-05,213.97064 C 1.7853684e-05,216.78146 2.2811336,220.54913 5.0950169,222.13519 C 87.031416,268.46019 168.96859,169.6711 250.90499,215.99533 C 253.71887,217.58215 255.99999,216.78759 255.99999,213.97064 C 255.99999,156.65726 255.99999,99.343119 255.99999,42.029738 C 255.99999,39.218915 253.71887,35.452015 250.90499,33.864421 C 250.05685,33.385234 249.2087,32.921355 248.36055,32.472022 z " /><path
   id="path30"
   style="fill:url(#linearGradient2199);fill-opacity:1"
   d="m 248.57387,37.860936 c 0,1.853979 -14.89154,-10.205307 -37.30922,-11.054219 -22.41617,-2.351538 -52.35541,6.505769 -82.45234,15.426609 C 98.715395,51.132734 68.463838,60.124 45.423818,57.793129 22.383788,56.94039 6.5560775,44.766282 5.3083475,45.393972 c 0,4.876072 0,167.063308 0,171.940908 1.23471,-0.80222 16.9070405,11.48136 39.7977905,12.39534 22.88999,2.39899 52.99917,-6.56931 83.107562,-15.50775 30.10919,-8.92926 60.21836,-17.85624 83.10759,-15.43733 22.89075,0.93235 38.56307,13.21056 39.79702,12.40911 0,-4.87761 0,-167.064843 0,-171.940915 -1.27375,-0.722609 -2.54444,-1.392399 -2.54444,-1.392399 z"
   inkscape:connector-curvature="0" /><polyline
   style="fill:none"
   points="0,256 0,0 256,0 256,256 "
   id="polyline3117" /><path
   id="path5190"
   style="fill:#007a3d;fill-opacity:1"
   d="m 248.35963,206.04849 c -80.24012,-42.45245 -160.47869,51.3756 -240.7180332,8.92697 0,-55.61555 0,-111.23111 0,-166.845894 C 87.88094,90.578966 168.12105,-3.24985 248.35963,39.202606 c 0,34.350823 0,68.701644 0,103.052274 0,21.26462 0,42.52917 0,63.79361 z"
   inkscape:connector-curvature="0"
   sodipodi:nodetypes="ccccsc" /><path
   id="path9462"
   style="fill:#ffffff;fill-opacity:1"
   d="m 203.20002,145.60587 c -65.1947,-0.76216 -130.405548,55.22045 -195.6000196,20.4 l 0,50.22927 C 87.83935,257.68934 168.16144,166.11054 248.40002,207.56848 l 0,-50.62927 c -15.04502,-8.03607 -30.15507,-11.15745 -45.2,-11.33334 z"
   inkscape:connector-curvature="0"
   sodipodi:nodetypes="sccccs" /><path
   id="path9466"
   style="fill:#000000;fill-opacity:1"
   d="M 203.33121,27.9198 C 138.13651,27.179328 72.925671,81.615941 7.7312,47.786468 c 0,5.913247 0,11.819876 0,17.733335 0,8.047638 0,16.085552 0,24.133335 0,5.601469 0,11.198482 0,16.800002 80.239349,40.70225 160.56143,-49.238507 240.80001,-8.533334 0,-5.69013 0,-11.376338 0,-17.066668 0,-7.958427 0,-15.907888 0,-23.866669 0,-6.002432 0,-11.997513 0,-18.000001 -15.04502,-7.807365 -30.15507,-10.895789 -45.2,-11.066668 z"
   inkscape:connector-curvature="0" /><path
   id="path45"
   style="fill:#ce1126;fill-opacity:1"
   d="M 83.651692,144.54748 C 65.494294,171.59676 30.388661,203.4436 5.3995282,217.20412 C 5.3995282,161.58857 5.3995282,100.81414 5.3995282,45.199377 C 23.550581,83.745166 48.310573,118.4775 83.651692,144.54748 z"
   sodipodi:nodetypes="cccc" /><g
   style="display:inline"
   id="layer1"
   transform="translate(0.29391952,0.29391474)"><path
     d="m 248.35974,206.96001 c -80.24012,-42.45169 -160.480231,51.37712 -240.7195788,8.92543 0,-55.61478 0,-111.23035 0,-166.845894 C 87.879509,91.490468 168.11962,-2.3375794 248.35974,40.114878 c 0,55.614786 0,111.230352 0,166.845132 z"
     style="fill:url(#linearGradient3188)"
     id="path3186"
     inkscape:connector-curvature="0" /></g></svg>