<?xml version="1.0" encoding="UTF-8" standalone="no"?>
<svg xmlns="http://www.w3.org/2000/svg" xmlns:xlink="http://www.w3.org/1999/xlink" version="1.0" width="60" height="60" viewBox="0 0 48 48">
 <metadata id="metadata2565"/>
 <defs id="defs2498">
  <linearGradient id="linearGradient3866">
   <stop id="stop3868" stop-color="#0098c3"/>
   <stop id="stop3880" offset="0.325" stop-color="#0099bd" stop-opacity="0.937"/>
   <stop id="stop3878" offset="0.42" stop-color="#e00034"/>
   <stop id="stop3876" offset="0.597" stop-color="#e00034"/>
   <stop id="stop3874" offset="0.689" stop-color="#00ae65"/>
   <stop id="stop3870" offset="1" stop-color="#00ae65"/>
  </linearGradient>
  <linearGradient x1="87.4" x2="269.33" id="linearGradient3015" xlink:href="#XMLID_22_" gradientUnits="userSpaceOnUse" gradientTransform="matrix(1.56769,0,0,1.56769,-129.371,-94.5696)"/>
  <linearGradient x1="87.4" x2="240.95" id="XMLID_22_" gradientUnits="userSpaceOnUse" gradientTransform="matrix(1.56769,0,0,1.56769,-129.371,-94.5678)">
   <stop id="stop139" stop-color="#ffffff" stop-opacity="0.667"/>
   <stop id="stop143" offset="0.241" stop-color="#d7d7d7" stop-opacity="0.219"/>
   <stop id="stop145" offset="0.459" stop-color="#4d4d4d" stop-opacity="0"/>
   <stop id="stop3696" offset="0.719" stop-color="#ffffff" stop-opacity="0.51"/>
   <stop id="stop2807" offset="0.874" stop-color="#f2f2f2" stop-opacity="0.4"/>
   <stop id="stop3694" offset="1" stop-color="#ffffff" stop-opacity="0.624"/>
  </linearGradient>
  <linearGradient x1="87.4" x2="269.33" id="linearGradient3028" xlink:href="#XMLID_22_" gradientUnits="userSpaceOnUse" gradientTransform="matrix(0.29394187,0,0,0.29394187,-24.236274,-17.877243)"/>
  <linearGradient x1="26.639" y1="4.836" x2="27.12" y2="43.1" id="linearGradient3872" xlink:href="#linearGradient3866" gradientUnits="userSpaceOnUse"/>
 </defs>
 <path d="M 46.566,6.088 C 31.363,-1.956 16.159,16.097 0.955,7.501 0.428,7.203 0,7.353 0,7.88 0,18.627 0,29.373 0,40.12 0,40.646 0.428,41.353 0.955,41.65 16.318,50.337 31.682,31.814 47.045,40.5 47.572,40.796 48,40.646 48,40.12 48,29.373 48,18.627 48,7.881 48,7.354 47.572,6.648 47.045,6.35 46.887,6.26 46.727,6.173 46.566,6.088 z" id="path15_2_" fill="#4d4d4d"/>
 <path d="M 46.566,7.044 C 46.566,7.392 43.775,5.13 39.572,4.971 35.369,4.53 29.755,6.191 24.112,7.864 18.469,9.532 12.797,11.218 8.477,10.781 4.157,10.621 1.189,8.338 0.955,8.456 c 0,0.915 0,31.325 0,32.239 0.232,-0.15 3.17,2.152 7.462,2.324 4.292,0.449 9.938,-1.231 15.583,-2.908 5.646,-1.674 11.291,-3.348 15.583,-2.895 4.292,0.176 7.231,2.477 7.462,2.327 0,-0.915 0,-31.325 0,-32.239 -0.238,-0.135 -0.479,-0.26 -0.479,-0.26 z" id="path3864" fill="url(#linearGradient3872)"/>
 <path d="m 46.566,7.044 c 0,0.348 -3.49627,19.890602 -7.69927,19.731602 -4.203,-0.441 -7.583645,-0.19054 -13.226645,1.48246 -5.643,1.668 -12.96063,4.470677 -17.28063,4.033677 -4.32,-0.16 -6.5827299,-1.443867 -6.8167299,-1.325867 0,0.915 -0.117545,8.462493 -0.117545,9.376493 C 1.6571801,40.192365 4.125,42.847 8.417,43.019 12.709,43.468 18.355,41.788 24,40.111 c 5.646,-1.674 11.291,-3.348 15.583,-2.895 4.292,0.176 6.643275,1.712957 6.874275,1.562957 0,-0.915 0.117545,-8.580038 0.117545,-9.494038 C 46.33682,29.149919 46.566,7.044 46.566,7.044 z" id="path30_2_" fill="#00ae65"/>
 <path d="m 1.433,19.975 0,3.103 0,0 0,7.818 c 15.045,7.772 30.09,-9.408 45.135,-1.635 l 0,-10.976 C 31.521,10.249 16.478,28.01 1.433,19.975 z" id="path2543" fill="#e00034"/>
 <path d="m 1.433,9.123 0,3.326 0,0 0,7.677 c 15.045,7.631 30.09,-9.237 45.135,-1.605 l 0,-11.04 C 31.521,-0.327 16.478,16.929 1.433,9.123 z" id="path2558" fill="#0098c3"/>
 <path d="m 19.812,25.721 c 0,-2.029 1.645,-4.05 3.675,-4.513 0.735,-0.168 1.419,-0.107 1.994,0.134 -0.801,-0.635 -1.916,-0.887 -3.149,-0.606 -2.435,0.555 -4.41,2.979 -4.41,5.415 0,2.436 1.975,3.96 4.41,3.404 1.233,-0.281 2.349,-1.042 3.149,-2.041 -0.575,0.502 -1.259,0.876 -1.994,1.044 -2.03,0.463 -3.675,-0.808 -3.675,-2.837 z" id="path2560" fill="#ffffff"/>
 <polygon points="27.906,23.435 29.186,23.599 27.906,24.345 28.49,25.438 27.264,25.135 26.809,26.518 26.354,25.343 25.129,26.204 25.711,24.845 24.431,24.683 25.711,23.935 25.129,22.842 26.354,23.146 26.809,21.763 26.809,21.763 27.264,22.938 28.49,22.076 " id="polygon2562" fill="#ffffff"/>
 <path d="m 46.58824,38.65956 c -15.045023,-7.959692 -30.090043,9.633209 -45.1349213,1.673517 0,-10.427771 0,-20.855691 0,-31.2836057 15.0448783,7.9595477 30.0898983,-9.63321097 45.1349213,-1.673375 0,10.4277717 0,20.8556907 0,31.2834637 z" id="path3186" fill="url(#linearGradient3028)"/>
</svg>
