<?xml version="1.0" encoding="UTF-8"?> 
<svg xmlns="http://www.w3.org/2000/svg" xmlns:xlink="http://www.w3.org/1999/xlink" height="60" width="60" viewBox="0 0 256 256">
<defs>
<linearGradient id="shadow" y2="141.973" gradientUnits="userSpaceOnUse" x2="269.333" gradientTransform="matrix(1.567692,0,0,1.567692,-129.3714,-94.56962)" y1="141.973" x1="87.397">
<stop stop-color="#FFF" stop-opacity="0.66666675" offset="0"/>
<stop stop-color="#d7d7d7" stop-opacity="0.21875" offset="0.240745"/>
<stop stop-color="#4d4d4d" stop-opacity="0" offset="0.458562"/>
<stop stop-color="#FFF" stop-opacity="0.51041669" offset="0.718918"/>
<stop stop-color="#f2f2f2" stop-opacity="0.40000001" offset="0.873513"/>
<stop stop-color="#FFF" stop-opacity="0.62352943" offset="1"/>
</linearGradient>
<linearGradient id="gradient" x1="0%" y1="0%" x2="0%" y2="100%">
<stop stop-color="#c8313e" offset="0"/>
<stop stop-color="#c8313e" offset="0.55"/>
<stop stop-color="#4aa657" offset="0.677079"/>
<stop stop-color="#4aa657" offset="1"/>
</linearGradient>
</defs>
<path fill="#4d4d4d" d="M248.361,32.472c-81.089-42.9018-162.178,53.3773-243.266,7.5331-2.81389-1.5876-5.095-0.7923-5.095,2.0246v171.941c0,2.81082,2.28112,6.57849,5.095,8.16455,81.9364,46.325,163.874-52.4641,245.81-6.13986,2.81388,1.58682,5.095,0.79226,5.095-2.02469v-171.941c0-2.81082-2.28112-6.57772-5.095-8.16532-0.84814-0.479187-1.69629-0.943066-2.54444-1.3924z"/>
<path fill="url(#gradient)" d="m248.361,37.567c0,1.85398-14.8915-10.2053-37.3092-11.0542-22.4162-2.35154-52.3554,6.50577-82.4523,15.4266-30.0979,8.8994-60.3495,17.8907-83.3895,15.5598-23.04-0.8527-38.8678-13.0268-40.1155-12.3991v171.941c1.23471-0.80222,16.907,11.4814,39.7978,12.3953,22.89,2.39899,52.9992-6.56931,83.1076-15.5078,30.1092-8.92926,60.2184-17.8562,83.1076-15.4373,22.8908,0.93235,38.5631,13.2106,39.797,12.4091v-171.941c-1.27375-0.722609-2.54444-1.3924-2.54444-1.3924z"/>
<polyline points="0,256,0,0,256,0,256,256" fill="none"/>
<path fill="#c8313e" d="m248.361,206.931c-80.2401-42.4524-160.479,51.3756-240.718,8.92697v-166.846c80.2389,42.4499,160.479-51.379,240.718-8.9265v166.846z"/>
<path fill="#4aa657" d="m203.2,137.129c-65.1947-0.76217-130.406,55.2204-195.6,20.4v58.2667c77.3969,42.8754,160.561-50.1246,240.8-8.66666v-58.6667c-15.045-8.03607-30.1551-11.1574-45.2-11.3333z"/>
<path fill="#fff" d="m7.6416,49.0558v166.893c14.4325,7.43715,27.7703,10.2808,36.9544,11.0513,0-5.15192-0.09025-161.518-0.09025-167.151-13.0418-1.2079-20.6259-3.1707-36.8642-10.7932z"/>
<path fill="#c8313e" d="M1.78125,11.8438v0.6562l0.375,0.125v-0.6562l-0.375-0.125zm1.53125,0.3124v0.2188l-0.40625-0.125v0.6562l-0.375-0.125v0.6563l-0.375-0.1875v0.6562l-0.375-0.125v0.6563l0.375,0.125v0.6563l0.375,0.1562v0.6562l0.375,0.125v0.6563l0.40625,0.125v0.6563l0.375,0.125v0.625l0.375,0.1874v-0.6562l0.375,0.125v-0.6562l0.375,0.125v-0.625l0.375,0.125v-0.6563l0.375,0.1563v-0.6563l0.375,0.1563v-0.6563l-0.375-0.125v-0.6563l-0.375-0.1562v-0.6562l-0.375-0.125v-0.6563l-0.375-0.125v-0.1875c-0.33421-0.1315-0.7567-0.3096-1.125-0.4688zm0.375,1l0.375,0.1876v0.625l0.375,0.125v0.6562l0.375,0.125v0.6562l-0.375-0.125v0.6563l-0.375-0.125v0.625l-0.375-0.1563v-0.6562l-0.375-0.125v-0.6562l-0.40625-0.125v-0.625l0.40625,0.125v-0.6563l0.375,0.125v-0.6563zm2.25,0v0.8438l0.15625,0.0625,0.0625,0.0313v-0.0313l0.15625,0.0313v-0.8126c-0.12324-0.036-0.24957-0.0853-0.375-0.125zm1.875,0.5v0.2188l-0.375-0.0938v0.6563l-0.375-0.0937v0.6562l-0.375-0.125v0.6562l-0.375-0.125v0.6563l0.375,0.125v0.6563l0.375,0.0937v0.6563l0.375,0.0937v0.6563l0.375,0.0937v0.625l0.375,0.1563v0.625l0.375,0.125v-0.6563l0.375,0.0937v-0.6562l0.375,0.0938v-0.625l0.375,0.125v-0.6563l0.375,0.0937v-0.6562l0.375,0.0938v-0.625l-0.375-0.0938v-0.6562l-0.375-0.0938v-0.6562l-0.375-0.125v-0.6563l-0.375-0.0937v-0.375c-0.37415-0.0527-0.7687-0.1174-1.125-0.1876zm-4.125,0.8126v0.6562l0.375,0.1562v-0.6562l-0.375-0.1562zm6.375,0.0624v0.6563l0.375,0.0937v-0.6562l-0.375-0.0938zm-1.875,0.125l0.375,0.0938v0.6562l0.375,0.0938v0.6562l0.375,0.0938v0.6562l-0.375-0.0937v0.6563l-0.375-0.125v0.6562l-0.375-0.0938v-0.6562l-0.375-0.125v-0.6562l-0.375-0.0938v-0.6562l0.375,0.125v-0.6563l0.375,0.125v-0.6563zm-6.40625,1.0626v0.6562l0.375,0.125v-0.625l-0.375-0.1562zm6.40625,0.25v0.6562l0.375,0.0938v-0.6563l-0.375-0.0937zm-2.25,1.2812v1.3125l0.15625,0.0313,0.0625,0.0312,0.15625,0.0312v-1.3124l-0.21875-0.0313-0.15625-0.0625zm-3.40625,0.0625v0.6563l-0.375-0.1563v0.6563l-0.375-0.1563v0.6563l0.375,0.125v0.6562l0.375,0.1562v0.6563l0.375,0.125v-0.6563l0.40625,0.1563v-0.6563l0.375,0.125v-0.6562l-0.375-0.125v-0.6562l-0.40625-0.125v-0.6563l-0.375-0.125zm2.28125,0.8125v0.6562l-0.375-0.125v0.6563l-0.375-0.1563v0.6563l0.375,0.125v0.6563l0.375,0.125v0.6562l0.375,0.125v-0.6562l0.375,0.1874v-0.6562l0.375,0.125v-0.6562l-0.375-0.125v-0.6563l-0.375-0.1563v-0.6562l-0.375-0.125zm5.25,0.3125v0.6563l0.375,0.0937v-0.6563l-0.375-0.0937zm-7.53125,0.1875l0.375,0.125v0.6562l-0.375-0.1562v-0.625zm4.53125,0.25v0.6562l-0.375-0.0937v0.625l-0.375-0.125v0.6563l0.375,0.125v0.6562l0.375,0.0938v0.6562l0.375,0.0938v-0.6563l0.375,0.0937v-0.625l0.375,0.125v-0.6562l-0.375-0.125v-0.6562l-0.375-0.0938v-0.6562l-0.375-0.0938zm-2.25,0.5625l0.375,0.125v0.6563l-0.375-0.1563v-0.625zm4.5,0.0625v0.6562l-0.375-0.0937v0.625l-0.375-0.0937v0.6562l0.375,0.0938v0.6562l0.375,0.0938v0.6562l0.375,0.125v-0.6562l0.375,0.0937v-0.625l0.375,0.0937v-0.6562l-0.375-0.0938v-0.6562l-0.375-0.0938v-0.6562l-0.375-0.125zm-2.25,0.6875l0.375,0.0937v0.6563l-0.375-0.125v-0.625zm-3.375,0.125v0.625l-0.375-0.125v0.6563l-0.40625-0.125v0.6562l-0.375-0.125v0.625l-0.375-0.1562v0.6562l-0.375-0.125v1.2812l0.375,0.125v0.6563l0.375,0.1563v0.6562l0.375,0.125v0.6562l0.40625,0.125v-0.6562l0.375,0.1562v-0.6562l0.375,0.1562v-0.6562l-0.75-0.2812v-0.6563l1.125,0.4375v0.625l0.375,0.1562v0.625l0.375,0.125v0.6563l-0.375-0.125v0.6563l-0.375-0.125v0.625l-0.375-0.125v0.6562l-0.375-0.1562v0.6562l-0.375-0.1562v0.6562l-0.40625-0.125v-0.6562l-0.375-0.125v-0.6563l-0.375-0.1563v-0.6562l-0.375-0.125v1.9688l0.375,0.125v0.6562l0.375,0.1562v0.625l0.375,0.1563v0.625l0.40625,0.1563v0.375,0.25l-0.40625-0.125v0.6562l-0.375-0.125v0.625l-0.375-0.1562v0.6562l-0.375-0.125v1.9375l0.375,0.125v-0.625l0.375,0.1563v-0.6563l0.375,0.125v-0.6563l0.40625,0.1563v0.625l0.375,0.125v0.6563l0.375,0.1562v0.6562l0.375,0.125v0.6563l0.375,0.125v0.6563l0.375,0.125v0.6562l-0.375-0.125v0.625l-0.375-0.125v0.6562l-1.125-0.4062v-0.6562l0.75,0.2812v-0.6562l-0.375-0.1563v-0.625l-0.375-0.1563v-0.625l-0.40625-0.1562v0.6562l-0.375-0.125v0.6563l-0.375-0.1563v0.625l-0.375-0.125v1.3126l0.375,0.125v0.6562l0.375,0.1562v0.6563l0.375,0.125v0.6563l0.40625,0.125v0.625l0.375,0.1562v0.625l0.375,0.1875v-0.6563l0.375,0.125v-0.6562l0.375,0.125v-0.625l0.375,0.125v-0.6562l0.375,0.1562v-0.6562l0.375,0.125v-0.625l0.15625,0.0312,0.0625,0.0312,0.15625,0.0313v0.6563l0.375,0.125v0.6562l0.375,0.0938v0.625l0.375,0.125v0.625l0.375,0.125v0.625l0.375,0.125v0.6562l0.375,0.0938v-0.625l0.375,0.0937v-0.6563l0.375,0.0938v-0.6562l0.375,0.1562v-0.6562l0.375,0.0937v-0.6563l0.375,0.0938v-1.2812l-0.375-0.0938v-0.6562l-0.375-0.0938v-0.6562l-0.375-0.125v-0.6563l-0.375-0.0937v0.6562l-0.375-0.0938v0.625l-0.375-0.0937v0.6563l0.75,0.1874v0.6563l-1.125-0.3125v-0.6562l-0.375-0.0938v-0.6562l-0.375-0.0938v-0.6562l0.375,0.0937v-0.6563l0.375,0.0938v-0.625l0.375,0.125v-0.6562l0.375,0.0937v-0.625l0.375,0.0937v-0.6562l0.375,0.0938v0.6562l0.375,0.125v0.6562l0.375,0.0938v0.6562l0.375,0.0938v-1.9375l-0.375-0.125v-0.625l-0.375-0.125v-0.625l-0.375-0.125v-0.6563l-0.375-0.0937v-0.2813-0.375l0.375,0.0938v-0.6562l0.375,0.125v-0.625l0.375,0.0937v-0.6563l0.375,0.0938v-1.9375l-0.375-0.0937v0.6562l-0.375-0.125v0.6562l-0.375-0.125v0.6563l-0.375-0.0937v-0.6563l-0.375-0.0937v-0.6563l-0.375-0.0937v-0.6563l-0.375-0.125v-0.6563l-0.375-0.0937v-0.6563l-0.375-0.0937v-0.6563l0.375,0.0938v-0.625l0.375,0.0938v-0.6563l1.125,0.3437v0.625l-0.75-0.1874v0.6562l0.375,0.0938v0.6562l0.375,0.0938v0.6562l0.375,0.0938v-0.6563l0.375,0.125v-0.6563l0.375,0.0938v-0.625l0.375,0.0938v-1.3126l-0.375-0.0937v-0.6563l-0.375-0.0937v-0.625l-0.375-0.1563v-0.625l-0.375-0.125v-0.625l-0.375-0.0937v-0.6563l-0.375-0.0937v0.625l-0.375-0.125v0.6563l-0.375-0.0938v0.6562l-0.375-0.125v0.6563l-0.375-0.0937v0.6562l-0.375-0.125v0.625l-0.21875-0.0312-0.15625-0.0626v-0.6562l-0.375-0.125v-0.625l-0.375-0.1875v-0.625l-0.375-0.1563v-0.625l-0.375-0.125v-0.6562l-0.375-0.125v-0.6562l-0.375-0.1563zm5.625,0.5l0.375,0.125v0.625l-0.375-0.125v-0.625zm-7.53125,0.0937v0.6563l0.375,0.125v-0.625l-0.375-0.1563zm4.15625,0.875v1.3126l0.15625,0.0312v0.0312h0.0625l0.15625,0.0313v-1.2813l-0.15625-0.0312-0.0625-0.0312-0.15625-0.0626zm4.125,1.8438v0.6562l0.375,0.0938v-0.6562l-0.375-0.0938zm-8.28125,1.8438v0.6562l0.375,0.125v-0.6562l-0.375-0.125zm4.15625,2.1562l0.15625,0.0625,0.0625,0.0313v-0.0313l0.15625,0.0313v0.6562l0.375,0.125v0.6562l0.375,0.0938v0.6562l0.375,0.0938v0.6562l0.375,0.0938v0.6562l0.375,0.125v1.6876,1.5624l-0.375-0.125v0.625l-0.375-0.0937v0.6563l-0.375-0.0938v0.6562l-0.375-0.125v0.6563l-0.375-0.125v0.6563l-0.15625-0.0313-0.0625-0.0313-0.15625-0.0312v-0.6562l-0.375-0.125v-0.6563l-0.375-0.1563v-0.6562l-0.375-0.125v-0.6562l-0.375-0.125v-0.6563l-0.375-0.125v-1.5625-1.6875l0.375,0.125v-0.625l0.375,0.125v-0.6563l0.375,0.125v-0.6562l0.375,0.1875v-0.6563l0.375,0.125v-0.6562zm4.125,0.5312v0.6563l0.375,0.0937v-0.6562l-0.375-0.0938zm-4.125,0.7813v0.6563l0.15625,0.0312,0.0625,0.0312,0.15625,0.0313v-0.6563l-0.15625-0.0312-0.0625-0.0312-0.15625-0.0313zm-0.75,1v1.3125l0.375,0.1562v0.625l0.375,0.1563v0.375,0.25l-0.375-0.125v0.6563l-0.375-0.1563v1.2813l0.375,0.1562v-0.625l0.375,0.125v-0.6562l0.15625,0.0624,0.0625,0.0313v-0.0313l0.15625,0.0313v0.6563l0.375,0.125v0.6562l0.375,0.0938v-1.2813l-0.375-0.125v-0.625l-0.375-0.125v-0.2813-0.375l0.375,0.125v-0.6562l0.375,0.0938v-1.2813l-0.375-0.0937v0.625l-0.375-0.125v0.6562l-0.15625-0.0312h-0.0625l-0.15625-0.0626v-0.6562l-0.375-0.125v-0.6562l-0.375-0.1563zm-0.75,1.6875v0.375,0.2812l0.375,0.125v-0.25-0.4062l-0.375-0.125zm3,0.9688v0.4062,0.25l0.375,0.0938v-0.25-0.4063l-0.375-0.0937zm-1.5,2.8124v0.6563l0.15625,0.0625,0.0625,0.0312v-0.0312l0.15625,0.0312v-0.625l-0.15625-0.0312-0.0625-0.0312-0.15625-0.0626zm-4.15625,0.4376v0.6562l0.375,0.125v-0.6562l-0.375-0.125zm8.28125,2.6874v0.6563l0.375,0.0937v-0.625l-0.375-0.125zm-8.28125,1.8438v0.6562l0.375,0.125v-0.6562l-0.375-0.125zm4.15625,1.5312v1.3126l0.15625,0.0312,0.0625,0.0312,0.15625,0.0313v-1.3125l-0.21875-0.0312-0.15625-0.0626zm-3.40625,0.0626v0.6562l-0.375-0.1562v0.625l-0.375-0.125v0.6562l0.375,0.125v0.6562l0.375,0.1563v0.6563l0.375,0.125v-0.6563l0.40625,0.125v-0.625l0.375,0.125v-0.6563l-0.375-0.125v-0.6562l-0.40625-0.125v-0.6562l-0.375-0.125zm2.28125,0.8124v0.6563l-0.375-0.125v0.625l-0.375-0.125v0.6563l0.375,0.125v0.6562l0.375,0.125v0.6562l0.375,0.125v-0.6562l0.375,0.1562v-0.625l0.375,0.125v-0.6562l-0.375-0.125v-0.6562l-0.375-0.1563v-0.6563l-0.375-0.125zm5.25,0.3126v0.6562l0.375,0.0938v-0.6563l-0.375-0.0937zm-7.53125,0.1874l0.375,0.125v0.6563l-0.375-0.1563v-0.625zm4.53125,0.25v0.6563l-0.375-0.0937v0.625l-0.375-0.125v0.6562l0.375,0.125v0.6562l0.375,0.0938v0.6562l0.375,0.0938v-0.6562l0.375,0.0937v-0.625l0.375,0.125v-0.6563l-0.375-0.125v-0.6562l-0.375-0.0938v-0.6562l-0.375-0.0938zm-2.25,0.5626l0.375,0.125v0.625l-0.375-0.125v-0.625zm4.5,0.0624v0.6563l-0.375-0.0937v0.625l-0.375-0.0938v0.6562l0.375,0.0938v0.6562l0.375,0.0938v0.6562l0.375,0.125v-0.6562l0.375,0.0938v-0.625l0.375,0.0937v-0.6563l-0.375-0.0937v-0.6563l-0.375-0.0937v-0.6563l-0.375-0.125zm-2.25,0.6876l0.375,0.0937v0.625l-0.375-0.0937v-0.625zm-3.375,0.125v0.625l-0.375-0.125v0.6562l-0.40625-0.125v0.6562l-0.375-0.1562v0.6562l-0.375-0.1562v0.6562l-0.375-0.125v0.625l0.375,0.1563v0.625l0.375,0.1563v0.6562l0.375,0.125v0.6562l0.40625,0.125v0.6563l1.125,0.4375v-0.6562l0.375,0.125v-0.6563l0.375,0.125v-0.625l0.375,0.1563v-0.6563l0.375,0.125v-0.6563l-0.375-0.125v-0.6562l-0.375-0.1562v-0.625l-0.375-0.1563v-0.625l-0.375-0.1563v-0.625l-0.375-0.125v-0.6562l-0.375-0.1562zm5.625,0.4687l0.375,0.1563v0.625l-0.375-0.125v-0.6563zm-7.53125,0.125v0.6563l0.375,0.125v-0.625l-0.375-0.1563zm4.15625,0.875v1.3125l0.15625,0.0312v0.0313h0.0625l0.15625,0.0313v-1.3126l-0.21875-0.0312-0.15625-0.0625zm2.25,0.0313v0.625l-0.375-0.125v0.6562l-0.375-0.0938v0.625l-0.375-0.0937v0.6563l-0.375-0.0938v0.6562l-0.375-0.125v0.625l0.375,0.125v0.6563l0.375,0.0937v0.6563l0.375,0.0937v0.6563l0.375,0.0937v0.625c0.39897,0.0871,0.75837,0.1592,1.125,0.2188v-0.5l0.375,0.0938v-0.6563l0.375,0.125v-0.6563l0.375,0.125v-0.6562l0.375,0.0938v-0.6563l-0.375-0.0937v-0.6563l-0.375-0.0937v-0.6563l-0.375-0.125v-0.625l-0.375-0.125v-0.625l-0.375-0.125v-0.625l-0.375-0.0937zm-4.5,0.4374l0.375,0.1563v0.6563l0.375,0.125v0.6562l0.375,0.125v0.6562l-0.375-0.125v0.625l-0.375-0.125v0.6563l-0.375-0.1563v-0.6562l-0.375-0.125v-0.6562l-0.40625-0.125v-0.6563l0.40625,0.125v-0.625l0.375,0.125v-0.6563zm0,1.2813v0.6563l0.375,0.1562v-0.625l-0.375-0.1875zm6.375,0.0937v0.6563l0.375,0.0937v-0.6562l-0.375-0.0938zm-1.875,0.125l0.375,0.0938v0.6562l0.375,0.0938v0.6562l0.375,0.0938v0.6562l-0.375-0.125v0.6563l-0.375-0.0937v0.6562l-0.375-0.0938v-0.6562l-0.375-0.125v-0.6562l-0.375-0.0938v-0.6562l0.375,0.0937v-0.6563l0.375,0.1563v-0.6563zm-6.40625,1.0626v0.6562l0.375,0.125v-0.6562l-0.375-0.125zm6.40625,0.2187v0.6563l0.375,0.0937v-0.6563l-0.375-0.0937zm-2.25,1.3125v1.2812l0.15625,0.0626c0.02147,0.0064,0.04108,0.0249,0.0625,0.0312v-0.0312l0.15625,0.0312v-1.2812l-0.15625-0.0313-0.0625-0.0313-0.15625-0.0312zm4.125,1.1562v0.6563l0.375,0.0937v-0.625l-0.375-0.125z" fill-rule="evenodd" transform="scale(4.2666667,4.2666667)"/>
<path fill="url(#shadow)" d="m248.36,206.96c-80.2401-42.4517-160.48,51.3771-240.72,8.92543v-166.846c80.2395,42.4515,160.48-51.3766,240.72-8.9241v166.845z"/>
</svg>