<?xml version="1.0" encoding="UTF-8" standalone="no"?>
<!-- Creator: CorelDRAW -->

<svg
   xmlns:a="http://ns.adobe.com/AdobeSVGViewerExtensions/3.0/"
   xmlns:dc="http://purl.org/dc/elements/1.1/"
   xmlns:cc="http://creativecommons.org/ns#"
   xmlns:rdf="http://www.w3.org/1999/02/22-rdf-syntax-ns#"
   xmlns:svg="http://www.w3.org/2000/svg"
   xmlns="http://www.w3.org/2000/svg"
   xmlns:xlink="http://www.w3.org/1999/xlink"
   xmlns:sodipodi="http://sodipodi.sourceforge.net/DTD/sodipodi-0.dtd"
   xmlns:inkscape="http://www.inkscape.org/namespaces/inkscape"
   xml:space="preserve"
   width="60px"
   height="60px"
   style="shape-rendering:geometricPrecision; text-rendering:geometricPrecision; image-rendering:optimizeQuality; fill-rule:evenodd; clip-rule:evenodd"
   viewBox="0 0 60 60"
   id="svg2"
   version="1.1"
   inkscape:version="0.48.2 r9819"
   sodipodi:docname="ESCat1.svg"><metadata
   id="metadata60"><rdf:RDF><cc:Work
       rdf:about=""><dc:format>image/svg+xml</dc:format><dc:type
         rdf:resource="http://purl.org/dc/dcmitype/StillImage" /><dc:title /></cc:Work></rdf:RDF></metadata><sodipodi:namedview
   pagecolor="#ffffff"
   bordercolor="#666666"
   borderopacity="1"
   objecttolerance="10"
   gridtolerance="10"
   guidetolerance="10"
   inkscape:pageopacity="0"
   inkscape:pageshadow="2"
   inkscape:window-width="1366"
   inkscape:window-height="705"
   id="namedview58"
   showgrid="false"
   inkscape:zoom="3.9333333"
   inkscape:cx="30"
   inkscape:cy="30"
   inkscape:window-x="-4"
   inkscape:window-y="-4"
   inkscape:window-maximized="1"
   inkscape:current-layer="svg2" />
 <defs
   id="defs4">
  <style
   type="text/css"
   id="style6">
   
    .fil0 {fill:none}
    .fil1 {fill:#616161}
    .fil4 {fill:url(#id0)}
    .fil3 {fill:url(#id1)}
    .fil2 {fill:url(#id2)}
   
  </style>
  <linearGradient
   id="id0"
   gradientUnits="userSpaceOnUse"
   x1="1.75466"
   y1="25.4521"
   x2="58.1731"
   y2="25.4521">
   <stop
   offset="0"
   style="stop-color:#FF6666"
   id="stop9" />
   <stop
   offset="0.160784"
   style="stop-color:#CF0000"
   id="stop11" />
   <stop
   offset="0.309804"
   style="stop-color:red"
   id="stop13" />
   <stop
   offset="0.65098"
   style="stop-color:#FF9999"
   id="stop15" />
   <stop
   offset="0.839216"
   style="stop-color:#FF6666"
   id="stop17" />
   <stop
   offset="1"
   style="stop-color:#FF6666"
   id="stop19" />
  </linearGradient>
  <linearGradient
   id="id1"
   gradientUnits="userSpaceOnUse"
   x1="1.75466"
   y1="29.7977"
   x2="58.1731"
   y2="29.7977">
   <stop
   offset="0"
   style="stop-color:#FFFF66"
   id="stop22" />
   <stop
   offset="0.160784"
   style="stop-color:#FFBC50"
   id="stop24" />
   <stop
   offset="0.309804"
   style="stop-color:#FFC957"
   id="stop26" />
   <stop
   offset="0.65098"
   style="stop-color:#FFFFDE"
   id="stop28" />
   <stop
   offset="0.839216"
   style="stop-color:#FFC957"
   id="stop30" />
   <stop
   offset="1"
   style="stop-color:#FFC957"
   id="stop32" />
  </linearGradient>
  <linearGradient
   id="id2"
   gradientUnits="userSpaceOnUse"
   x1="1.15761"
   y1="29.7973"
   x2="58.7694"
   y2="29.7973">
   <stop
   offset="0"
   style="stop-color:#FFBC50"
   id="stop35" />
   <stop
   offset="0.180392"
   style="stop-color:#FFFF66"
   id="stop37" />
   <stop
   offset="0.321569"
   style="stop-color:#FFC957"
   id="stop39" />
   <stop
   offset="0.619608"
   style="stop-color:#FFFFDE"
   id="stop41" />
   <stop
   offset="0.890196"
   style="stop-color:#FFC957"
   id="stop43" />
   <stop
   offset="1"
   style="stop-color:#E69900"
   id="stop45" />
  </linearGradient>
 
  
  
 
   
   
   
   
   
   
   
   
  <linearGradient
   inkscape:collect="always"
   xlink:href="#id0"
   id="linearGradient3075"
   gradientUnits="userSpaceOnUse"
   x1="1.75466"
   y1="25.4521"
   x2="58.1731"
   y2="25.4521" /><linearGradient
   inkscape:collect="always"
   xlink:href="#id0"
   id="linearGradient3078"
   gradientUnits="userSpaceOnUse"
   x1="1.75466"
   y1="25.4521"
   x2="58.1731"
   y2="25.4521" /><linearGradient
   inkscape:collect="always"
   xlink:href="#id0"
   id="linearGradient3081"
   gradientUnits="userSpaceOnUse"
   x1="1.75466"
   y1="25.4521"
   x2="58.1731"
   y2="25.4521" /><linearGradient
   inkscape:collect="always"
   xlink:href="#id0"
   id="linearGradient3084"
   gradientUnits="userSpaceOnUse"
   x1="1.75466"
   y1="25.4521"
   x2="58.1731"
   y2="25.4521" /><linearGradient
   x1="87.396973"
   y1="141.97266"
   x2="269.33331"
   y2="141.97276"
   id="linearGradient1945"
   xlink:href="#XMLID_22_"
   gradientUnits="userSpaceOnUse"
   gradientTransform="matrix(1.567692,0,0,1.567692,-129.3714,-94.56962)" /><linearGradient
   x1="87.396973"
   y1="141.97266"
   x2="240.94727"
   y2="141.97266"
   id="XMLID_22_"
   gradientUnits="userSpaceOnUse"
   gradientTransform="matrix(1.567692,0,0,1.567692,-129.3706,-94.56783)"><stop
     style="stop-color:#ffffff;stop-opacity:0.66666675"
     offset="0"
     id="stop139" /><stop
     style="stop-color:#d7d7d7;stop-opacity:0.21875"
     offset="0.24074516"
     id="stop143" /><stop
     style="stop-color:#4d4d4d;stop-opacity:0"
     offset="0.4585622"
     id="stop145" /><stop
     style="stop-color:#ffffff;stop-opacity:0.51041669"
     offset="0.71891773"
     id="stop3696" /><stop
     style="stop-color:#f2f2f2;stop-opacity:0.40000001"
     offset="0.87351298"
     id="stop2807" /><stop
     style="stop-color:#ffffff;stop-opacity:0.62352943"
     offset="1"
     id="stop3694" /><a:midPointStop
     style="stop-color:#E9E9EF"
     offset="0" /><a:midPointStop
     style="stop-color:#E9E9EF"
     offset="0.5" /><a:midPointStop
     style="stop-color:#B1B1C5"
     offset="0.157303" /><a:midPointStop
     style="stop-color:#B1B1C5"
     offset="0.5" /><a:midPointStop
     style="stop-color:#CECEDB"
     offset="0.314607" /><a:midPointStop
     style="stop-color:#CECEDB"
     offset="0.5" /><a:midPointStop
     style="stop-color:#FFFFFF"
     offset="0.65" /><a:midPointStop
     style="stop-color:#FFFFFF"
     offset="0.5" /><a:midPointStop
     style="stop-color:#CECEDB"
     offset="0.837079" /><a:midPointStop
     style="stop-color:#CECEDB"
     offset="0.5" /><a:midPointStop
     style="stop-color:#FFFF66"
     offset="1" /></linearGradient><linearGradient
   y2="141.97276"
   x2="269.33331"
   y1="141.97266"
   x1="87.396973"
   gradientTransform="matrix(1.567692,0,0,1.567692,-129.3714,-94.56962)"
   gradientUnits="userSpaceOnUse"
   id="linearGradient3109"
   xlink:href="#XMLID_22_"
   inkscape:collect="always" /></defs>
 <rect
   id="Fons"
   class="fil0"
   width="60"
   height="60"
   x="0"
   y="0"
   style="fill:none" /><path
   id="path15"
   class="fil1"
   d="M 58.1731,7.40805 C 39.1681,-2.64685 20.1627,19.91855 1.1577,9.17369 0.497931,8.80164 -0.0364,8.988019 -0.0364,9.648143 c 0,13.4331 0,26.8663 0,40.2991 0,0.658706 0.534335,1.54171 1.1941,1.9134 19.2038,10.8575 38.408,-12.2961 57.6118,-1.43895 0.659769,0.37205 1.1941,0.185671 1.1941,-0.474453 0,-13.4328 0,-26.8659 0,-40.2991 0,-0.658706 -0.534335,-1.54171 -1.1941,-1.91376 C 58.570719,7.622056 58.371938,7.51363 58.173157,7.408039 z"
   inkscape:connector-curvature="0"
   style="fill:#4d4d4d;fill-opacity:1" /><path
   id="path30"
   class="fil2"
   d="m 58.1731,8.60215 c 0,0.434767 -3.49018,-2.39175 -8.74424,-2.59053 -5.2537,-0.551343 -12.2709,1.5247 -19.325,3.61562 -7.05407,2.08561 -14.1443,4.19318 -19.5443,3.6468 C 5.15952,13.074196 1.45,10.22075 1.15767,10.3678 c 0,1.14308 0,39.1556 0,40.2991 0.289136,-0.188151 3.96251,2.69081 9.32748,2.90518 5.36496,0.562327 12.4219,-1.53993 19.4784,-3.63475 7.05691,-2.09269 14.1138,-4.18503 19.4784,-3.6181 5.36532,0.218624 9.03834,3.09617 9.32748,2.90837 0,-1.14308 0,-39.156 0,-40.2991 C 58.471081,8.759483 58.173087,8.602159 58.173087,8.602159 z"
   style="fill:#fcdd09;fill-opacity:1"
   inkscape:connector-curvature="0" /><g
   id="g3862"
   style="fill:#da121a;fill-opacity:1"><path
     inkscape:connector-curvature="0"
     style="fill:#da121a;fill-opacity:1"
     d="m 1.75466,28.6709 c 18.8063,9.94933 37.6125,-12.042 56.4184,-2.09198 0,-3.33605 0,-1.00879 0,-4.34484 -18.8063,-9.95004 -37.6121,12.0413 -56.4184,2.09198 0,3.33605 0,1.00879 0,4.34484 z"
     class="fil4"
     id="path60" /><path
     inkscape:connector-curvature="0"
     style="fill:#da121a;fill-opacity:1"
     d="m 1.75466,19.9812 c 18.8063,9.94933 37.6125,-12.042 56.4184,-2.09198 0,-3.33605 0,-1.00879 0,-4.34484 -18.8063,-9.95004 -37.6121,12.0413 -56.4184,2.09198 0,3.33605 0,1.00879 0,4.34484 z"
     class="fil4"
     id="path61" /><path
     inkscape:connector-curvature="0"
     style="fill:#da121a;fill-opacity:1"
     d="m 1.75466,46.0502 c 18.8063,9.94933 37.6125,-12.042 56.4184,-2.09198 0,-3.33605 0,-1.00879 0,-4.34484 -18.8063,-9.95004 -37.6121,12.0413 -56.4184,2.09198 0,3.33605 0,1.00879 0,4.34484 z"
     class="fil4"
     id="path62" /><path
     inkscape:connector-curvature="0"
     style="fill:#da121a;fill-opacity:1"
     d="m 1.75466,37.3606 c 18.8063,9.94933 37.6125,-12.042 56.4184,-2.09198 0,-3.33605 0,-1.00879 0,-4.34484 -18.8063,-9.95004 -37.6121,12.0413 -56.4184,2.09198 0,3.33605 0,1.00879 0,4.34484 z"
     class="fil4"
     id="path63" /></g>
<g
   transform="matrix(0.234375,0,0,0.234375,3.3721875e-4,5.7490275e-5)"
   id="g3740"
   inkscape:label="ombre"
   style="display:inline"><path
     id="path5924"
     style="fill:url(#linearGradient3109)"
     d="m 248.35974,206.96001 c -80.24012,-42.45169 -160.480231,51.37712 -240.7195788,8.92543 0,-55.61478 0,-111.23035 0,-166.845894 C 87.879509,91.490468 168.11962,-2.3375794 248.35974,40.114878 c 0,55.614786 0,111.230352 0,166.845132 z"
     inkscape:connector-curvature="0" /></g></svg>