<?xml version="1.0" encoding="UTF-8" standalone="no"?>
<!-- Created with Inkscape (http://www.inkscape.org/) -->

<svg
   xmlns:a="http://ns.adobe.com/AdobeSVGViewerExtensions/3.0/"
   xmlns:dc="http://purl.org/dc/elements/1.1/"
   xmlns:cc="http://creativecommons.org/ns#"
   xmlns:rdf="http://www.w3.org/1999/02/22-rdf-syntax-ns#"
   xmlns:svg="http://www.w3.org/2000/svg"
   xmlns="http://www.w3.org/2000/svg"
   xmlns:xlink="http://www.w3.org/1999/xlink"
   xmlns:sodipodi="http://sodipodi.sourceforge.net/DTD/sodipodi-0.dtd"
   xmlns:inkscape="http://www.inkscape.org/namespaces/inkscape"
   version="1.0"
   width="48pt"
   height="48pt"
   viewBox="0 0 256 256"
   id="svg2"
   xml:space="preserve"
   sodipodi:version="0.32"
   inkscape:version="0.48.2 r9819"
   sodipodi:docname="Nuvola_Greek_flag.svg"
   inkscape:output_extension="org.inkscape.output.svg.inkscape"><metadata
   id="metadata45"><rdf:RDF><cc:Work
       rdf:about=""><dc:format>image/svg+xml</dc:format><dc:type
         rdf:resource="http://purl.org/dc/dcmitype/StillImage" /><dc:title></dc:title></cc:Work></rdf:RDF></metadata><sodipodi:namedview
   inkscape:window-height="697"
   inkscape:window-width="726"
   inkscape:pageshadow="2"
   inkscape:pageopacity="0.0"
   guidetolerance="10.0"
   gridtolerance="10.0"
   objecttolerance="10.0"
   borderopacity="1.0"
   bordercolor="#666666"
   pagecolor="#ffffff"
   id="base"
   inkscape:zoom="7.7254312"
   inkscape:cx="29.815578"
   inkscape:cy="30"
   inkscape:window-x="632"
   inkscape:window-y="0"
   inkscape:current-layer="svg2"
   showgrid="false"
   inkscape:window-maximized="1" /><defs
   id="defs271"><linearGradient
     x1="87.396973"
     y1="141.97266"
     x2="240.94727"
     y2="141.97266"
     id="XMLID_22_"
     gradientUnits="userSpaceOnUse"
     gradientTransform="matrix(1.567692,0,0,1.567692,-129.3706,-94.56783)">
								<stop
   style="stop-color:#ffffff;stop-opacity:0.66666675"
   offset="0"
   id="stop139" />
								
								<stop
   style="stop-color:#d7d7d7;stop-opacity:0.21875"
   offset="0.24074516"
   id="stop143" />
								<stop
   style="stop-color:#4d4d4d;stop-opacity:0"
   offset="0.4585622"
   id="stop145" /><stop
   style="stop-color:#ffffff;stop-opacity:0.51041669"
   offset="0.71891773"
   id="stop3696" /><stop
   style="stop-color:#f2f2f2;stop-opacity:0.40000001"
   offset="0.87351298"
   id="stop2807" /><stop
   style="stop-color:#ffffff;stop-opacity:0.62352943"
   offset="1"
   id="stop3694" />
								
								
								<a:midPointStop
   style="stop-color:#E9E9EF"
   offset="0" />
								<a:midPointStop
   style="stop-color:#E9E9EF"
   offset="0.5" />
								<a:midPointStop
   style="stop-color:#B1B1C5"
   offset="0.157303" />
								<a:midPointStop
   style="stop-color:#B1B1C5"
   offset="0.5" />
								<a:midPointStop
   style="stop-color:#CECEDB"
   offset="0.314607" />
								<a:midPointStop
   style="stop-color:#CECEDB"
   offset="0.5" />
								<a:midPointStop
   style="stop-color:#FFFFFF"
   offset="0.65" />
								<a:midPointStop
   style="stop-color:#FFFFFF"
   offset="0.5" />
								<a:midPointStop
   style="stop-color:#CECEDB"
   offset="0.837079" />
								<a:midPointStop
   style="stop-color:#CECEDB"
   offset="0.5" />
								<a:midPointStop
   style="stop-color:#FFFF66"
   offset="1" />
							</linearGradient><linearGradient
     x1="87.396973"
     y1="141.97266"
     x2="269.33331"
     y2="141.97276"
     id="linearGradient1945"
     xlink:href="#XMLID_22_"
     gradientUnits="userSpaceOnUse"
     gradientTransform="matrix(1.567692,0,0,1.567692,-129.3714,-94.56962)" /><linearGradient
     gradientTransform="matrix(1.567692,0,0,1.567692,-69.82581,15.22741)"
     gradientUnits="userSpaceOnUse"
     id="XMLID_17_"
     y2="112.30453"
     x2="126.18921"
     y1="39.617504"
     x1="126.18921">
								<stop
   id="stop18"
   offset="0"
   style="stop-color:#c200be;stop-opacity:1;" />
								<stop
   id="stop20"
   offset="0.19460699"
   style="stop-color:#c200be;stop-opacity:1;" />
								<stop
   id="stop22"
   offset="0.31460699"
   style="stop-color:#1000ae;stop-opacity:1;" />
								<stop
   id="stop24"
   offset="0.72999996"
   style="stop-color:#1000ae;stop-opacity:1;" />
								<stop
   id="stop26"
   offset="0.85707897"
   style="stop-color:#00dab6;stop-opacity:1;" />
								<stop
   id="stop28"
   offset="1"
   style="stop-color:#00dab6;stop-opacity:1;" />
								<a:midPointStop
   offset="0"
   style="stop-color:#CF0000" />
								<a:midPointStop
   offset="0.5"
   style="stop-color:#CF0000" />
								<a:midPointStop
   offset="0.157303"
   style="stop-color:#7C0000" />
								<a:midPointStop
   offset="0.5"
   style="stop-color:#7C0000" />
								<a:midPointStop
   offset="0.314607"
   style="stop-color:#CF0000" />
								<a:midPointStop
   offset="0.5"
   style="stop-color:#CF0000" />
								<a:midPointStop
   offset="0.65"
   style="stop-color:#B80000" />
								<a:midPointStop
   offset="0.5"
   style="stop-color:#B80000" />
								<a:midPointStop
   offset="0.837079"
   style="stop-color:#CF0000" />
								<a:midPointStop
   offset="0.5"
   style="stop-color:#CF0000" />
								<a:midPointStop
   offset="1"
   style="stop-color:#FF0000" />
							</linearGradient><linearGradient
     inkscape:collect="always"
     xlink:href="#XMLID_17_"
     id="linearGradient7085"
     x1="133.17909"
     y1="151.1393"
     x2="132.62358"
     y2="123.21392"
     gradientUnits="userSpaceOnUse" /><linearGradient
     inkscape:collect="always"
     xlink:href="#XMLID_17_"
     id="linearGradient2529"
     gradientUnits="userSpaceOnUse"
     x1="133.17909"
     y1="151.1393"
     x2="132.62358"
     y2="123.21392" /><linearGradient
     inkscape:collect="always"
     xlink:href="#XMLID_22_"
     id="linearGradient3010"
     gradientUnits="userSpaceOnUse"
     gradientTransform="matrix(1.567692,0,0,1.567692,-129.37139,-94.569624)"
     x1="87.396973"
     y1="141.97266"
     x2="269.33331"
     y2="141.97276" /></defs>
	
		
	<g
   style="display:inline"
   id="layer2" /><g
   id="g2960"
   inkscape:label="ombre"
   style="display:inline"
   sodipodi:insensitive="true"><path
     id="path5924"
     style="fill:url(#linearGradient1945)"
     d="M 248.35974,206.96001 C 168.11962,164.50832 87.879509,258.33713 7.6401612,215.88544 C 7.6401612,160.27066 7.6401612,104.24666 7.6401612,48.63112 C 87.981616,90.163083 169.3449,-2.0312598 248.35974,40.114878 C 248.35974,95.729664 248.35974,151.34523 248.35974,206.96001 z "
     sodipodi:nodetypes="ccccc" /></g>



<polyline
   style="fill:none"
   points="0,256 0,0 256,0 256,256 "
   id="_x3C_Slice_x3E_" /><path
   inkscape:connector-curvature="0"
   d="M 248.36056,32.472022 C 167.2723,-10.429764 86.183274,85.849332 5.095017,40.005058 2.281134,38.417463 1.8e-5,39.212792 1.8e-5,42.029738 c 0,57.313379 0,114.627522 0,171.940902 0,2.81082 2.281116,6.57849 5.094999,8.16455 81.936399,46.325 163.873583,-52.46409 245.809983,-6.13986 2.81388,1.58682 5.095,0.79226 5.095,-2.02469 0,-57.31338 0,-114.627523 0,-171.940902 0,-2.810823 -2.28112,-6.577723 -5.095,-8.165317 -0.84814,-0.479187 -1.69629,-0.943066 -2.54444,-1.392399 z"
   style="fill:#4d4d4d;fill-opacity:1"
   id="path15" /><path
   inkscape:connector-curvature="0"
   d="m 248.36056,37.567021 c 0,1.853979 -14.89154,-10.205307 -37.30922,-11.054219 -22.41617,-2.351538 -52.35542,6.505769 -82.45235,15.426609 C 98.502067,50.838819 68.2505,59.830085 45.210481,57.499214 22.170459,56.646475 6.342741,44.472367 5.095017,45.100057 c 0,4.876072 0,167.063303 0,171.940903 1.234711,-0.80222 16.907038,11.48136 39.797791,12.39534 22.889987,2.39899 52.999169,-6.56931 83.107572,-15.50775 30.10919,-8.92926 60.21837,-17.85624 83.1076,-15.43733 22.89075,0.93235 38.56307,13.21056 39.79702,12.40911 0,-4.87761 0,-167.064838 0,-171.94091 -1.27375,-0.722609 -2.54444,-1.392399 -2.54444,-1.392399 z"
   style="fill:#0d5eaf;fill-opacity:1"
   id="path30" /><path
   inkscape:connector-curvature="0"
   d="m 248.36055,188.3735 c -80.24011,-42.45245 -160.478693,51.37877 -240.7180336,8.93014 0,-55.61555 0,37.03106 0,-18.58373 80.2393406,42.44939 160.4794636,-51.38258 240.7180336,-8.93013 0,55.61556 0,-37.03106 0,18.58372 z"
   style="fill:#ffffff;fill-opacity:1"
   id="path45"
   sodipodi:nodetypes="ccccc" /><path
   sodipodi:nodetypes="ccccc"
   id="path3791"
   style="fill:#ffffff;fill-opacity:1"
   d="m 248.36055,151.2061 c -80.24011,-42.45245 -160.478693,51.37877 -240.7180336,8.93014 0,-55.61555 0,37.03106 0,-18.58373 C 87.881857,184.0019 168.12198,90.169931 248.36055,132.62238 c 0,55.61556 0,-37.031059 0,18.58372 z"
   inkscape:connector-curvature="0" /><path
   style="fill:#ffffff;fill-opacity:1"
   d="M 47.625 19.71875 C 39.605838 19.625987 31.581714 23.160917 23.5625 25.375 L 23.5625 29.71875 C 35.107797 26.531116 46.673308 20.610429 58.21875 26.71875 L 58.21875 22.375 C 54.692641 20.509414 51.151131 19.759539 47.625 19.71875 z "
   transform="scale(4.2666667,4.2666667)"
   id="path3793" /><path
   style="fill:#ffffff;fill-opacity:1"
   d="M 47.625 11 C 39.605838 10.907237 31.581714 14.442167 23.5625 16.65625 L 23.5625 21 C 35.107325 17.812272 46.673779 11.923178 58.21875 18.03125 L 58.21875 13.65625 C 54.692641 11.790664 51.151131 11.040789 47.625 11 z "
   transform="scale(4.2666667,4.2666667)"
   id="path3795" /><path
   style="fill:#ffffff;fill-opacity:1"
   d="M 1.78125 20.125 L 1.78125 24.46875 C 9.0420137 28.309877 16.301758 27.379677 23.5625 25.375 L 23.5625 21 C 16.301242 23.004954 9.0424848 23.966445 1.78125 20.125 z "
   transform="scale(4.2666667,4.2666667)"
   id="path3797" /><path
   style="fill:#ffffff;fill-opacity:1;fill-rule:nonzero;stroke:none"
   d="M 10.5 13.875 L 10.5 36.96875 L 14.84375 36.96875 L 14.84375 13.875 C 13.397922 13.980286 11.944802 13.995223 10.5 13.875 z "
   id="rect3809"
   transform="scale(4.2666667,4.2666667)" /><path
   inkscape:connector-curvature="0"
   sodipodi:nodetypes="ccccc"
   d="m 248.35975,206.96001 c -80.24012,-42.45169 -160.480241,51.37712 -240.719589,8.92543 0,-55.61478 0,-111.63878 0,-167.25432 80.341455,41.531963 161.704749,-50.662384 240.719589,-8.516242 0,55.614789 0,111.230352 0,166.845132 z"
   style="fill:url(#linearGradient3010)"
   id="path2742" /></svg>