<?xml version="1.0" encoding="UTF-8" standalone="no"?>
<!-- Created with Inkscape (http://www.inkscape.org/) -->
<svg
   xmlns:a="http://ns.adobe.com/AdobeSVGViewerExtensions/3.0/"
   xmlns:dc="http://purl.org/dc/elements/1.1/"
   xmlns:cc="http://web.resource.org/cc/"
   xmlns:rdf="http://www.w3.org/1999/02/22-rdf-syntax-ns#"
   xmlns:svg="http://www.w3.org/2000/svg"
   xmlns="http://www.w3.org/2000/svg"
   xmlns:xlink="http://www.w3.org/1999/xlink"
   xmlns:sodipodi="http://sodipodi.sourceforge.net/DTD/sodipodi-0.dtd"
   xmlns:inkscape="http://www.inkscape.org/namespaces/inkscape"
   version="1.0"
   width="48pt"
   height="48pt"
   viewBox="0 0 256 256"
   id="svg2"
   xml:space="preserve"
   sodipodi:version="0.32"
   inkscape:version="0.45.1"
   sodipodi:docname="Nuvola_Monaco_flag.svg"
   sodipodi:docbase="/home/federico/Desktop/Flags"
   inkscape:output_extension="org.inkscape.output.svg.inkscape"><metadata
   id="metadata45"><rdf:RDF><cc:Work
       rdf:about=""><dc:format>image/svg+xml</dc:format><dc:type
         rdf:resource="http://purl.org/dc/dcmitype/StillImage" /></cc:Work></rdf:RDF></metadata><sodipodi:namedview
   inkscape:window-height="963"
   inkscape:window-width="1272"
   inkscape:pageshadow="2"
   inkscape:pageopacity="0.0"
   guidetolerance="10.0"
   gridtolerance="10.0"
   objecttolerance="10.0"
   borderopacity="1.0"
   bordercolor="#666666"
   pagecolor="#ffffff"
   id="base"
   inkscape:zoom="5.854782"
   inkscape:cx="-6.1116892"
   inkscape:cy="30"
   inkscape:window-x="0"
   inkscape:window-y="25"
   inkscape:current-layer="svg2" /><defs
   id="defs271"><linearGradient
     x1="87.396973"
     y1="141.97266"
     x2="240.94727"
     y2="141.97266"
     id="XMLID_22_"
     gradientUnits="userSpaceOnUse"
     gradientTransform="matrix(1.567692,0,0,1.567692,-129.3706,-94.56783)">
								<stop
   style="stop-color:#ffffff;stop-opacity:0.66666675"
   offset="0"
   id="stop139" />
								
								<stop
   style="stop-color:#d7d7d7;stop-opacity:0.21875"
   offset="0.24074516"
   id="stop143" />
								<stop
   style="stop-color:#4d4d4d;stop-opacity:0"
   offset="0.4585622"
   id="stop145" /><stop
   style="stop-color:#ffffff;stop-opacity:0.51041669"
   offset="0.71891773"
   id="stop3696" /><stop
   style="stop-color:#f2f2f2;stop-opacity:0.40000001"
   offset="0.87351298"
   id="stop2807" /><stop
   style="stop-color:#ffffff;stop-opacity:0.62352943"
   offset="1"
   id="stop3694" />
								
								
								<a:midPointStop
   style="stop-color:#E9E9EF"
   offset="0" />
								<a:midPointStop
   style="stop-color:#E9E9EF"
   offset="0.5" />
								<a:midPointStop
   style="stop-color:#B1B1C5"
   offset="0.157303" />
								<a:midPointStop
   style="stop-color:#B1B1C5"
   offset="0.5" />
								<a:midPointStop
   style="stop-color:#CECEDB"
   offset="0.314607" />
								<a:midPointStop
   style="stop-color:#CECEDB"
   offset="0.5" />
								<a:midPointStop
   style="stop-color:#FFFFFF"
   offset="0.65" />
								<a:midPointStop
   style="stop-color:#FFFFFF"
   offset="0.5" />
								<a:midPointStop
   style="stop-color:#CECEDB"
   offset="0.837079" />
								<a:midPointStop
   style="stop-color:#CECEDB"
   offset="0.5" />
								<a:midPointStop
   style="stop-color:#FFFF66"
   offset="1" />
							</linearGradient><linearGradient
     id="linearGradient25883"><stop
       id="stop25885"
       offset="0"
       style="stop-color:#ffffff;stop-opacity:1;" /><stop
       id="stop25887"
       offset="1"
       style="stop-color:#df0018;stop-opacity:1;" /></linearGradient><linearGradient
     inkscape:collect="always"
     xlink:href="#XMLID_22_"
     id="linearGradient3467"
     gradientUnits="userSpaceOnUse"
     gradientTransform="matrix(1.567692,0,0,1.567692,-129.3714,-94.56962)"
     x1="87.396973"
     y1="141.97266"
     x2="269.33331"
     y2="141.97276" /><linearGradient
     inkscape:collect="always"
     xlink:href="#linearGradient25883"
     id="linearGradient2369"
     gradientUnits="userSpaceOnUse"
     x1="128"
     y1="193.7363"
     x2="125.54945"
     y2="90.251701" /></defs>
	
		
	



<g
   id="g4311"><polyline
     id="_x3C_Slice_x3E_"
     points="0,256 0,0 256,0 256,256 "
     style="fill:none" /><path
     id="path2408"
     style="fill:#4d4d4d;fill-opacity:1"
     d="M 248.36055,32.472022 C 167.27229,-10.429768 86.18327,85.849332 5.09502,40.005058 C 2.28113,38.417463 2e-05,39.212792 2e-05,42.029738 C 2e-05,99.343119 2e-05,156.65726 2e-05,213.97064 C 2e-05,216.78146 2.28113,220.54913 5.09502,222.13519 C 87.03142,268.46019 168.96859,169.6711 250.90499,215.99533 C 253.71887,217.58215 255.99999,216.78759 255.99999,213.97064 C 255.99999,156.65726 255.99999,99.343119 255.99999,42.029738 C 255.99999,39.218915 253.71887,35.452015 250.90499,33.864421 C 250.05685,33.385234 249.2087,32.921355 248.36055,32.472022 z " /><path
     id="path2410"
     style="fill:url(#linearGradient2369);fill-opacity:1"
     d="M 248.36055,37.567021 C 248.36055,39.421 233.46901,27.361714 211.05133,26.512802 C 188.63516,24.161264 158.69592,33.018571 128.59899,41.939411 C 98.50206,50.838819 68.2505,59.830085 45.21048,57.499214 C 22.17046,56.646475 6.34274,44.472367 5.09502,45.100057 C 5.09502,49.976129 5.09502,212.16336 5.09502,217.04096 C 6.32973,216.23874 22.00205,228.52232 44.89281,229.4363 C 67.78279,231.83529 97.89198,222.86699 128.00038,213.92855 C 158.10957,204.99929 188.21874,196.07231 211.10797,198.49122 C 233.99872,199.42357 249.67104,211.70178 250.90499,210.90033 C 250.90499,206.02272 250.90499,43.835492 250.90499,38.95942 C 249.63124,38.236811 248.36055,37.567021 248.36055,37.567021 z " /><path
     id="path2412"
     style="fill:#ffffff;fill-opacity:1"
     d="M 7.64098,107.3324 C 87.88032,148.03464 168.12045,58.067687 248.35902,98.772858 C 248.35902,85.125442 248.35902,71.477298 248.35902,57.829149 C 168.11891,17.123977 87.88032,107.09092 7.64098,66.388692 C 7.64098,80.036107 7.64098,93.684255 7.64098,107.3324 z " /><path
     id="path2414"
     style="fill:#ffffff;fill-opacity:1"
     d="M 248.36055,206.96042 C 168.12044,164.50797 87.88186,258.33602 7.64252,215.88739 C 7.64252,160.27184 7.64252,104.65628 7.64252,49.041485 C 87.88186,91.49088 168.12198,-2.337936 248.36055,40.114521 C 248.36055,95.730078 248.36055,151.34564 248.36055,206.96042 z " /><path
     style="fill:#df0018;fill-opacity:1"
     d="M 203.20002,28.800002 C 138.00532,28.05953 72.79447,82.496143 7.6,48.66667 C 7.6,62.182661 7.6,75.683287 7.6,89.200007 C 7.6,89.644636 7.6,90.088711 7.6,90.53334 C 7.6,104.46091 7.6,118.47246 7.6,132.40001 C 87.83935,175.25518 168.16144,80.474293 248.40002,123.33334 C 248.40002,109.45168 248.40002,95.61506 248.40002,81.73334 C 248.40002,81.244273 248.40002,80.75574 248.40002,80.266673 C 248.40002,66.795094 248.40002,53.338927 248.40002,39.86667 C 233.355,32.059305 218.24495,28.970881 203.20002,28.800002 z "
     id="path60" /><g
     transform="translate(1.4388e-3,2.4529184e-4)"
     id="layer1"
     style="display:inline"><path
       id="path3186"
       style="fill:url(#linearGradient3467)"
       d="M 248.35974,206.96001 C 168.11962,164.50832 87.879509,258.33713 7.6401612,215.88544 C 7.6401612,160.27066 7.6401612,104.65509 7.6401612,49.039546 C 87.879509,91.490468 168.11962,-2.3375794 248.35974,40.114878 C 248.35974,95.729664 248.35974,151.34523 248.35974,206.96001 z " /></g></g></svg>