<?xml version="1.0" encoding="utf-8"?>
<!-- Generator: Adobe Illustrator 14.0.0, SVG Export Plug-In . SVG Version: 6.00 Build 43363)  -->
<!DOCTYPE svg PUBLIC "-//W3C//DTD SVG 1.1//EN" "http://www.w3.org/Graphics/SVG/1.1/DTD/svg11.dtd">
<svg version="1.1" id="Layer_1" xmlns="http://www.w3.org/2000/svg" xmlns:xlink="http://www.w3.org/1999/xlink" x="0px" y="0px"
	 width="60px" height="60px" viewBox="0 0 60 60" enable-background="new 0 0 60 60" xml:space="preserve">
<path id="path15" fill="#4D4D4D" d="M58.209,7.61C39.204-2.444,20.199,20.121,1.194,9.376C0.535,9.004,0,9.19,0,9.851
	c0,13.433,0,26.866,0,40.297c0,0.66,0.535,1.543,1.194,1.914c19.204,10.856,38.408-12.295,57.613-1.438
	C59.465,50.996,60,50.811,60,50.148c0-13.434,0-26.865,0-40.298c0-0.659-0.535-1.541-1.193-1.914
	C58.607,7.825,58.408,7.716,58.209,7.61z"/>
<polyline id="polyline3117" fill="none" points="0,60 0,0 60,0 60,60 "/>
<path id="path5190" fill="#FFFFFF" d="M58.209,48.498C39.402,38.55,20.597,60.539,1.791,50.591c0-13.034,0-26.069,0-39.104
	c18.806,9.949,37.611-12.042,56.418-2.092C58.209,22.429,58.209,35.464,58.209,48.498z"/>
<path id="path30" fill="#FFFFFF" d="M58.26,8.805c0,0.435-3.49-2.392-8.744-2.591C44.262,5.663,37.244,7.739,30.19,9.83
	c-7.054,2.085-14.145,4.193-19.544,3.647c-5.4-0.2-9.109-3.054-9.402-2.906c0,1.143,0,39.156,0,40.299
	c0.289-0.188,3.963,2.69,9.327,2.905c5.366,0.562,12.422-1.54,19.479-3.636c7.058-2.092,14.114-4.184,19.479-3.617
	c5.363,0.219,9.037,3.096,9.326,2.908c0-1.144,0-39.156,0-40.299C58.557,8.962,58.26,8.805,58.26,8.805z"/>
<g>
	<path fill="#0084C9" d="M35.535,13.793c0.045-0.013,0.086-0.025,0.129-0.037c0.086,0,0.164,0.013,0.256,0.007
		c0.29,0.672,0.993,0.907,1.248,1.578c-0.184,0.133-0.328,0.006-0.527,0.095c-0.173,0.074-0.179,0.248-0.289,0.414
		c-0.057,0.085-0.164,0.166-0.238,0.259c-0.465,0.576-0.911,1.395-1.2,2.088c0.054,0.111,0.13,0.165,0.178,0.285
		c0.158,0.406-0.067,1.116,0.048,1.602c-1.007,0.682-1.41,1.792-2.434,2.481c-0.014,0.986-1.446,1.004-1.823,1.745
		c-0.472,0.278-0.791,0.621-0.832,1.195c-0.017,0.238,0.067,0.521,0,0.72c-0.049,0.146-0.296,0.205-0.304,0.353
		c-0.01,0.188,0.444,0.252,0.591,0.29c0.397,0.105,0.673,0.193,0.879,0.503c0.946,0.133,1.015,1.238,1.556,1.91
		c0.246,0.309,0.522,0.63,0.783,0.959c0.26,0.329,0.555,0.647,0.735,1.007c0.272,0.552,0.257,1.421,0.188,2.276
		c-0.028,0.422-0.027,0.799-0.108,1.187c0.08,0.04,0.271-0.065,0.317,0.019c0.058,0.566-0.117,1.125-0.289,1.621
		c-0.16,0.469-0.387,1.026-0.75,1.332c-0.569,0.475-1.362,0.461-2.11,0.756c-0.556,0.217-0.834,0.59-1.25,0.977
		c-0.406,0.375-0.827,0.639-1.199,1.007c-0.188,0.187-0.442,0.583-0.64,0.718c-0.303,0.198-0.654,0.17-0.784,0.103
		c-0.412-0.214-0.587-1.097-0.544-1.894c0.022-0.418,0.153-0.744,0.304-1.039c0.173-0.336,0.434-0.611,0.448-0.94
		c0.018-0.403-0.332-0.534-0.369-1.021c-0.023-0.32,0.098-0.865,0.016-1.142c-0.112-0.379-0.923,0.123-0.768-0.545
		c0.072-0.31,0.702-0.54,1.041-0.533c0.213,0.007,0.356,0.19,0.607,0.033c0.007-0.313-0.013-0.562-0.144-0.737
		c-0.069-0.097-0.202-0.105-0.271-0.203c-0.106-0.15-0.218-0.509-0.241-0.773c-0.027-0.291,0.101-0.771-0.032-0.899
		c-0.237-0.229-1.353,0.423-1.697,0.351c-0.042-0.01-0.065-0.055-0.111-0.096c-0.04-0.035-0.09-0.057-0.113-0.078
		c-0.075-0.068-0.144-0.189-0.272-0.095c-0.12,0.089-0.026,0.324-0.159,0.431c-0.268,0.215-0.701-0.031-0.896-0.104
		c-0.331-0.122-0.897-0.229-0.639-0.875c0.158-0.396,0.5-0.633,0.752-1.029c0.298-0.154,0.713-0.233,0.784-0.55
		c-0.205-0.085-0.669,0.229-0.865,0.077c-0.084-0.813,0.881-1.538,0.752-2.332c-0.07-0.438-0.636-0.248-1.152-0.162
		c-0.479,0.081-0.876,0.04-1.104-0.24c-0.036-0.045-0.056-0.089-0.096-0.134c-0.034-0.037-0.033-0.104-0.064-0.191
		c0-0.059,0-0.117,0-0.176c0.13-0.713,0.916-1.288,1.424-1.751c0.162-0.147,0.302-0.307,0.449-0.434
		c0.519-0.447,1.083-0.812,1.583-1.272c0.23-0.211,0.468-0.461,0.687-0.723c0.102-0.12,0.183-0.265,0.289-0.395
		c0.112-0.136,0.235-0.248,0.321-0.388c0.427-0.7,0.324-1.435,1.215-1.937c0.351,0.353,0.74,0.626,1.344,0.595
		c0.216-0.012,0.418-0.102,0.706-0.162c0.121-0.026,0.26,0.001,0.416-0.053c0.278-0.096,0.555-0.34,0.592-0.571
		c0.084-0.523-0.543-0.51-0.48-1c0.042-0.309,0.458-0.513,0.85-0.636c0.271-0.085,0.553-0.084,0.77-0.161
		c0.421-0.148,0.646-0.567,0.814-0.875c0.113-0.206,0.285-0.64,0.543-0.756c0.104-0.047,0.271-0.006,0.449-0.117
		C35.411,15.326,34.904,14.178,35.535,13.793z"/>
	<path fill="#0084C9" d="M26.672,45.548c-0.421-0.437,0.45-1.091,0.959-1.292c0.307-0.117,0.718-0.162,0.753,0.035
		c0.02,0.111-0.095,0.314-0.161,0.402C27.927,45.104,27.193,45.303,26.672,45.548z"/>
	<path fill="#0084C9" d="M39.295,28.367c-0.083-0.169,0.092-0.338,0.191-0.375c0.061-0.021,0.143-0.011,0.146,0.059
		c0.008,0.038-0.02,0.098-0.027,0.124C39.546,28.293,39.398,28.316,39.295,28.367z"/>
</g>
<g id="layer1">
	
		<linearGradient id="path3186_1_" gradientUnits="userSpaceOnUse" x1="2868.3857" y1="-2711.4346" x2="3095.803" y2="-2711.4346" gradientTransform="matrix(0.2939 0 0 -0.2939 -841.2277 -766.8905)">
		<stop  offset="0" style="stop-color:#FFFFFF;stop-opacity:0.6667"/>
		<stop  offset="0.2407" style="stop-color:#D7D7D7;stop-opacity:0.2188"/>
		<stop  offset="0.4586" style="stop-color:#4D4D4D;stop-opacity:0"/>
		<stop  offset="0.7189" style="stop-color:#FFFFFF;stop-opacity:0.5104"/>
		<stop  offset="0.8735" style="stop-color:#F2F2F2;stop-opacity:0.4"/>
		<stop  offset="1" style="stop-color:#FFFFFF;stop-opacity:0.6235"/>
	</linearGradient>
	<path id="path3186" fill="url(#path3186_1_)" d="M58.209,48.506c-18.807-9.949-37.611,12.041-56.418,2.092
		c0-13.033,0-26.068,0-39.104c18.807,9.949,37.611-12.042,56.418-2.092C58.209,22.437,58.209,35.471,58.209,48.506z"/>
</g>
</svg>
