<?xml version="1.0" encoding="UTF-8" standalone="no"?>
<!-- Created with Inkscape (http://www.inkscape.org/) -->
<svg
   xmlns:a="http://ns.adobe.com/AdobeSVGViewerExtensions/3.0/"
   xmlns:dc="http://purl.org/dc/elements/1.1/"
   xmlns:cc="http://web.resource.org/cc/"
   xmlns:rdf="http://www.w3.org/1999/02/22-rdf-syntax-ns#"
   xmlns:svg="http://www.w3.org/2000/svg"
   xmlns="http://www.w3.org/2000/svg"
   xmlns:xlink="http://www.w3.org/1999/xlink"
   xmlns:sodipodi="http://sodipodi.sourceforge.net/DTD/sodipodi-0.dtd"
   xmlns:inkscape="http://www.inkscape.org/namespaces/inkscape"
   version="1.0"
   width="48pt"
   height="48pt"
   viewBox="0 0 256 256"
   id="svg2"
   xml:space="preserve"
   sodipodi:version="0.32"
   inkscape:version="0.45.1"
   sodipodi:docname="Nuvola_Norwegian_flag.svg"
   sodipodi:docbase="/home/federico/Desktop/Flags/To fix"
   inkscape:output_extension="org.inkscape.output.svg.inkscape"><metadata
   id="metadata45"><rdf:RDF><cc:Work
       rdf:about=""><dc:format>image/svg+xml</dc:format><dc:type
         rdf:resource="http://purl.org/dc/dcmitype/StillImage" /></cc:Work></rdf:RDF></metadata><sodipodi:namedview
   inkscape:window-height="963"
   inkscape:window-width="1272"
   inkscape:pageshadow="2"
   inkscape:pageopacity="0.0"
   guidetolerance="10.0"
   gridtolerance="10.0"
   objecttolerance="10.0"
   borderopacity="1.0"
   bordercolor="#666666"
   pagecolor="#ffffff"
   id="base"
   inkscape:zoom="8.8741901"
   inkscape:cx="30"
   inkscape:cy="30"
   inkscape:window-x="0"
   inkscape:window-y="25"
   inkscape:current-layer="svg2" /><defs
   id="defs271"><linearGradient
     x1="87.396973"
     y1="141.97266"
     x2="240.94727"
     y2="141.97266"
     id="XMLID_22_"
     gradientUnits="userSpaceOnUse"
     gradientTransform="matrix(1.567692,0,0,1.567692,-129.3706,-94.56783)">
								<stop
   style="stop-color:#ffffff;stop-opacity:0.66666675"
   offset="0"
   id="stop139" />
								
								<stop
   style="stop-color:#d7d7d7;stop-opacity:0.21875"
   offset="0.24074516"
   id="stop143" />
								<stop
   style="stop-color:#4d4d4d;stop-opacity:0"
   offset="0.4585622"
   id="stop145" /><stop
   style="stop-color:#ffffff;stop-opacity:0.51041669"
   offset="0.71891773"
   id="stop3696" /><stop
   style="stop-color:#f2f2f2;stop-opacity:0.40000001"
   offset="0.87351298"
   id="stop2807" /><stop
   style="stop-color:#ffffff;stop-opacity:0.62352943"
   offset="1"
   id="stop3694" />
								
								
								<a:midPointStop
   style="stop-color:#E9E9EF"
   offset="0" />
								<a:midPointStop
   style="stop-color:#E9E9EF"
   offset="0.5" />
								<a:midPointStop
   style="stop-color:#B1B1C5"
   offset="0.157303" />
								<a:midPointStop
   style="stop-color:#B1B1C5"
   offset="0.5" />
								<a:midPointStop
   style="stop-color:#CECEDB"
   offset="0.314607" />
								<a:midPointStop
   style="stop-color:#CECEDB"
   offset="0.5" />
								<a:midPointStop
   style="stop-color:#FFFFFF"
   offset="0.65" />
								<a:midPointStop
   style="stop-color:#FFFFFF"
   offset="0.5" />
								<a:midPointStop
   style="stop-color:#CECEDB"
   offset="0.837079" />
								<a:midPointStop
   style="stop-color:#CECEDB"
   offset="0.5" />
								<a:midPointStop
   style="stop-color:#FFFF66"
   offset="1" />
							</linearGradient><linearGradient
     x1="87.396973"
     y1="141.97266"
     x2="269.33331"
     y2="141.97276"
     id="linearGradient1945"
     xlink:href="#XMLID_22_"
     gradientUnits="userSpaceOnUse"
     gradientTransform="matrix(1.567692,0,0,1.567692,-129.3714,-94.56962)" /><linearGradient
     gradientTransform="matrix(1.567692,0,0,1.567692,-69.82581,15.22741)"
     gradientUnits="userSpaceOnUse"
     id="XMLID_17_"
     y2="112.30453"
     x2="126.18921"
     y1="39.617504"
     x1="126.18921">
								<stop
   id="stop18"
   offset="0"
   style="stop-color:#c200be;stop-opacity:1;" />
								<stop
   id="stop20"
   offset="0.19460699"
   style="stop-color:#c200be;stop-opacity:1;" />
								<stop
   id="stop22"
   offset="0.31460699"
   style="stop-color:#1000ae;stop-opacity:1;" />
								<stop
   id="stop24"
   offset="0.72999996"
   style="stop-color:#1000ae;stop-opacity:1;" />
								<stop
   id="stop26"
   offset="0.85707897"
   style="stop-color:#00dab6;stop-opacity:1;" />
								<stop
   id="stop28"
   offset="1"
   style="stop-color:#00dab6;stop-opacity:1;" />
								<a:midPointStop
   offset="0"
   style="stop-color:#CF0000" />
								<a:midPointStop
   offset="0.5"
   style="stop-color:#CF0000" />
								<a:midPointStop
   offset="0.157303"
   style="stop-color:#7C0000" />
								<a:midPointStop
   offset="0.5"
   style="stop-color:#7C0000" />
								<a:midPointStop
   offset="0.314607"
   style="stop-color:#CF0000" />
								<a:midPointStop
   offset="0.5"
   style="stop-color:#CF0000" />
								<a:midPointStop
   offset="0.65"
   style="stop-color:#B80000" />
								<a:midPointStop
   offset="0.5"
   style="stop-color:#B80000" />
								<a:midPointStop
   offset="0.837079"
   style="stop-color:#CF0000" />
								<a:midPointStop
   offset="0.5"
   style="stop-color:#CF0000" />
								<a:midPointStop
   offset="1"
   style="stop-color:#FF0000" />
							</linearGradient><linearGradient
     inkscape:collect="always"
     xlink:href="#XMLID_17_"
     id="linearGradient7085"
     x1="133.17909"
     y1="151.1393"
     x2="132.62358"
     y2="123.21392"
     gradientUnits="userSpaceOnUse" /><linearGradient
     inkscape:collect="always"
     xlink:href="#XMLID_22_"
     id="linearGradient2489"
     gradientUnits="userSpaceOnUse"
     gradientTransform="matrix(1.567692,0,0,1.567692,-129.02545,-95.261512)"
     x1="87.396973"
     y1="141.97266"
     x2="269.33331"
     y2="141.97276" /></defs>
	
		
	<g
   style="display:inline"
   id="layer2" /><g
   id="g2960"
   inkscape:label="ombre"
   style="display:inline"
   sodipodi:insensitive="true"><path
     id="path5924"
     style="fill:url(#linearGradient1945)"
     d="M 248.35974,206.96001 C 168.11962,164.50832 87.879509,258.33713 7.6401612,215.88544 C 7.6401612,160.27066 7.6401612,104.24666 7.6401612,48.63112 C 87.981616,90.163083 169.3449,-2.0312598 248.35974,40.114878 C 248.35974,95.729664 248.35974,151.34523 248.35974,206.96001 z "
     sodipodi:nodetypes="ccccc" /></g>



<g
   id="g3469"><path
     id="path2458"
     style="fill:#616161;fill-opacity:1"
     d="M 248.7065,31.78013 C 167.61824,-11.12166 86.52922,85.15744 5.4409629,39.313166 C 2.6270796,37.725571 0.34596385,38.5209 0.34596385,41.337846 C 0.34596385,98.651227 0.34596385,155.96537 0.34596385,213.27875 C 0.34596385,216.08957 2.6270796,219.85724 5.4409629,221.4433 C 87.377362,267.7683 169.31454,168.97921 251.25094,215.30344 C 254.06482,216.89026 256.34594,216.0957 256.34594,213.27875 C 256.34594,155.96537 256.34594,98.651227 256.34594,41.337846 C 256.34594,38.527023 254.06482,34.760123 251.25094,33.172529 C 250.4028,32.693342 249.55465,32.229463 248.7065,31.78013 z " /><path
     id="path2460"
     style="fill:#ff1b1d;fill-opacity:1"
     d="M 248.21394,206.76109 C 167.97383,164.30864 87.735239,258.13669 7.4958993,215.68806 C 7.4958993,160.07251 7.4958993,104.45696 7.4958993,48.842158 C 87.735239,91.291553 167.97537,-2.5372628 248.21394,39.915194 C 248.21394,95.530751 248.21394,151.14631 248.21394,206.76109 z " /><polyline
     transform="translate(0.345946,-0.691892)"
     style="fill:none"
     points="0,256 0,0 256,0 256,256 "
     id="_x3C_Slice_x3E_" /><path
     id="path33474"
     style="fill:#ffffff;fill-opacity:1"
     d="M 116.39779,47.75041 C 116.21412,122.9736 117.68059,151.49176 116.51939,214.8928 C 91.636089,222.13903 82.657031,224.51993 67.281413,226.19521 C 67.458963,163.28674 67.22245,135.0146 67.40614,59.299936 C 83.020902,57.631296 102.52357,52.624712 116.39779,47.75041 z "
     sodipodi:nodetypes="ccccc" /><path
     id="path36133"
     style="fill:#ffffff;fill-opacity:1"
     d="M 247.93111,132.16453 C 167.52613,89.712073 87.93568,178.18168 7.5314769,135.73305 C 7.5314769,80.117493 7.5314763,163.05708 7.5314763,107.44228 C 87.93568,149.89167 167.70182,65.103185 248.10526,107.55565 C 248.10526,163.1712 247.93111,76.549744 247.93111,132.16453 z "
     sodipodi:nodetypes="ccccc" /><path
     id="path36131"
     style="fill:#ffffff;fill-opacity:1"
     d="M 247.93111,158.31493 C 167.52613,115.86248 87.93568,204.33208 7.5314769,161.88345 C 7.5314769,106.2679 7.5314763,189.20748 7.5314763,133.59268 C 87.93568,176.04207 167.70182,91.253585 248.10526,133.70605 C 248.10526,189.3216 247.93111,102.70015 247.93111,158.31493 z "
     sodipodi:nodetypes="ccccc" /><path
     id="path5210"
     style="fill:#002868;fill-opacity:1"
     d="M 104.25933,51.664142 C 104.1675,126.88733 104.9007,155.09972 104.32013,218.50076 C 91.603962,222.19999 87.175829,223.11316 79.702467,224.42151 C 79.791237,161.51304 79.672987,133.17974 79.764827,57.465081 C 87.449482,56.163372 97.322588,53.602995 104.25933,51.664142 z "
     sodipodi:nodetypes="ccccc" /><path
     id="path4237"
     style="fill:#002868;fill-opacity:1"
     d="M 247.93111,145.23771 C 167.52613,102.78526 87.93568,191.25486 7.5314769,148.80623 C 7.5314769,93.190678 7.5314763,176.13026 7.5314763,120.51546 C 87.93568,162.96485 167.70182,78.17637 248.10526,120.62883 C 248.10526,176.24438 247.93111,89.622929 247.93111,145.23771 z "
     sodipodi:nodetypes="ccccc" /><polyline
     style="fill:none"
     points="0,256 0,0 256,0 256,256 "
     id="polyline22852" /><path
     id="path2470"
     style="fill:url(#linearGradient2489);display:inline"
     d="M 248.35974,206.96002 C 168.11962,164.50833 87.879509,258.33714 7.6401612,215.88545 C 7.6401612,160.27067 7.6401612,104.24667 7.6401612,48.63112 C 87.981616,90.163083 169.3449,-2.0312598 248.35974,40.114878 C 248.35974,95.729667 248.35974,151.34524 248.35974,206.96002 z "
     sodipodi:nodetypes="ccccc" /></g></svg>