<?xml version="1.0" encoding="UTF-8" standalone="no"?>
<!-- Created with Inkscape (http://www.inkscape.org/) -->
<svg id="svg2" xmlns:rdf="http://www.w3.org/1999/02/22-rdf-syntax-ns#" xmlns="http://www.w3.org/2000/svg" xml:space="preserve" height="48pt" width="48pt" version="1.0" xmlns:cc="http://web.resource.org/cc/" xmlns:xlink="http://www.w3.org/1999/xlink" viewBox="0 0 256 256" xmlns:dc="http://purl.org/dc/elements/1.1/"><metadata id="metadata45"><rdf:RDF><cc:Work rdf:about=""><dc:format>image/svg+xml</dc:format><dc:type rdf:resource="http://purl.org/dc/dcmitype/StillImage"/></cc:Work></rdf:RDF></metadata><defs id="defs271"><linearGradient id="linearGradient5054" y2="141.96" gradientUnits="userSpaceOnUse" x2="238.35" gradientTransform="matrix(-1.5677 0 0 -1.5677 385.37 350.53)" y1="141.96" x1="89.16"><stop id="stop84" stop-color="#b61126" offset="0"/><stop id="stop2808" stop-color="#ce1126" offset=".19"/><stop id="stop114" stop-color="#ce1126" offset="0.3"/><stop id="stop2810" stop-color="#ce1126" offset=".5"/><stop id="stop2798" stop-color="#3d8e33" offset=".625"/><stop id="stop134" stop-color="#3d8e33" offset="1"/></linearGradient><linearGradient id="linearGradient5056" y2="141.97" gradientUnits="userSpaceOnUse" x2="269.33" gradientTransform="matrix(1.5677 0 0 1.5677 -129.37 -94.57)" y1="141.97" x1="87.397"><stop id="stop139" stop-color="#fff" stop-opacity=".66667" offset="0"/><stop id="stop143" stop-color="#d7d7d7" stop-opacity=".21875" offset=".24075"/><stop id="stop145" stop-color="#4d4d4d" stop-opacity="0" offset=".45856"/><stop id="stop3696" stop-color="#fff" stop-opacity=".51042" offset=".71892"/><stop id="stop2807" stop-color="#f2f2f2" stop-opacity="0.4" offset=".87351"/><stop id="stop3694" stop-color="#fff" stop-opacity=".62353" offset="1"/></linearGradient></defs>
<g id="g4514" transform="translate(.000033036)"><g id="layer3"><path id="path81" fill="#616161" d="m248.36 32.474c-81.09-42.902-162.18 53.376-243.26 7.532-2.8189-1.587-5.1-0.792-5.1 2.025-0.000033036 57.313-0.000033036 114.63-0.000033036 171.94 0 2.81 2.2811 6.58 5.095 8.16 81.937 46.33 163.88-52.46 245.8-6.14 2.82 1.59 5.1 0.8 5.1-2.02v-171.94c0-2.81-2.28-6.577-5.1-8.164-0.84-0.479-1.69-0.943-2.54-1.392z"/><path id="path136" fill="url(#linearGradient5054)" d="m7.6394 218.39c0-1.85 14.892 10.21 37.31 11.06 22.416 2.35 52.355-6.51 82.451-15.43 30.1-8.9 60.35-17.89 83.39-15.56 23.04 0.86 38.87 13.03 40.11 12.4v-171.94c-1.23 0.801-16.9-11.48-39.79-12.396-22.89-2.399-53 6.57-83.11 15.507-30.11 8.93-60.217 17.857-83.108 15.439-22.891-0.933-38.562-13.211-39.797-12.41v171.94c1.2737 0.72 2.5444 1.39 2.5444 1.39z"/><path id="path151" fill="#ce1126" d="m248.36 206.96c-80.24-42.45-160.48 51.38-240.72 8.93 0.0009-55.62 0.0009-111.23 0.0009-166.85 80.239 42.452 160.48-51.376 240.72-8.923v166.84z"/><path id="path160" d="m110.04 49.803c-48.539 14.966-74.723 12.547-102.4-0.762 0.0009 55.619 0.0009 111.23 0.0009 166.85 34.796 19.02 71.33 10.51 102.4 1.17v-167.26z" fill="#3d8e33"/><polyline id="polyline4521" points="0 256 0 0 256 0 256 256" fill="none"/><g id="g50973" transform="matrix(.42268 -.092869 0 .42268 8.6469 72.487)"><path id="path1343" fill-rule="evenodd" fill="#ffe805" d="m318.24 262.04c-30.21-0.91-168.74-87.38-169.69-101.15l7.65-12.75c13.74 19.96 155.36 104.05 169.27 101.07l-7.23 12.83"/><path id="path1345" fill-rule="evenodd" fill="#ffe805" d="m154.59 146.4c-2.71 7.3 36.15 31.32 82.91 59.76 46.75 28.43 87.06 46 90.05 43.48 0.18-0.32 1.47-2.54 1.35-2.52-0.56 0.85-1.92 1.11-4.05 0.5-12.63-3.64-45.58-18.76-86.38-43.51-40.79-24.74-76.29-47.54-81.81-57.23-0.38-0.67-0.65-1.89-0.6-2.85h-0.13l-1.18 2.05-0.16 0.33v-0.01zm164.37 116.04c-0.52 0.93-1.47 0.96-3.29 0.76-11.3-1.25-45.58-17.92-86.16-42.21-47.21-28.26-86.2-54.01-81.96-60.75l1.15-2.03 0.22 0.07c-3.8 11.41 76.95 57.58 81.7 60.52 46.73 28.95 86.12 45.85 89.6 41.46l-1.26 2.18"/><path id="path1347" stroke-linejoin="round" d="m154.59 146.4c-2.71 7.3 36.15 31.32 82.91 59.76 46.75 28.43 87.06 46 90.05 43.48 0.18-0.32 1.47-2.54 1.35-2.52-0.56 0.85-1.92 1.11-4.05 0.5-12.63-3.64-45.58-18.77-86.37-43.51-40.8-24.74-76.3-47.54-81.82-57.23-0.38-0.67-0.65-1.9-0.6-2.85h-0.13l-1.18 2.05-0.16 0.32v0zm164.37 116.04c-0.52 0.93-1.47 0.96-3.29 0.76-11.3-1.25-45.58-17.92-86.16-42.21-47.21-28.26-86.2-54.01-81.97-60.74l1.16-2.04 0.22 0.07c-3.8 11.41 76.95 57.58 81.7 60.52 46.73 28.95 86.12 45.85 89.6 41.46l-1.26 2.18v0z" stroke="#000" stroke-linecap="round" stroke-width=".57293" fill="none"/><path id="path1349" fill-rule="evenodd" fill="#ffe805" d="m240.17 169.23c30.23-0.24 67.55-4.13 89.02-12.69l-4.63-7.52c-12.69 7.03-50.21 11.65-84.65 12.34-40.73-0.38-69.49-4.17-83.9-13.84l-4.36 8.01c26.48 11.2 53.62 13.58 88.52 13.7"/><path id="path1351" fill-rule="evenodd" fill="#ffe805" d="m330.44 156.71c-0.74 1.18-14.74 6.01-35.37 9.58-13.99 2.13-32.24 3.95-55.01 3.97-21.63 0.02-39.3-1.52-52.68-3.33-21.66-3.39-32.84-8.12-36.97-9.79 0.4-0.78 0.65-1.34 1.03-2.07 11.9 4.74 23.13 7.59 36.28 9.62 13.29 1.8 30.75 3.36 52.28 3.34 22.66-0.02 40.71-1.98 54.61-4.05 21.16-3.42 32.71-7.81 34.34-9.85l1.49 2.58zm-4.06-7.62c-2.29 1.84-13.72 5.89-33.82 9.1-13.41 1.93-30.47 3.65-52.26 3.67-20.71 0.02-37.62-1.38-50.49-3.25-20.41-2.67-31.28-7.48-35.2-8.88 0.39-0.67 0.79-1.34 1.2-2.01 3.05 1.53 13.53 5.79 34.22 8.72 12.72 1.8 29.66 3.15 50.27 3.13 21.69-0.03 38.55-1.78 51.88-3.69 20.2-2.78 31.08-7.95 32.73-9.24l1.47 2.45"/><path id="path1353" stroke-linejoin="round" d="m330.44 156.71c-0.74 1.18-14.74 6.01-35.37 9.58-13.99 2.13-32.24 3.95-55.01 3.97-21.63 0.02-39.3-1.52-52.68-3.33-21.66-3.39-32.83-8.12-36.97-9.79 0.4-0.78 0.65-1.34 1.03-2.07 11.9 4.74 23.13 7.59 36.28 9.62 13.29 1.8 30.75 3.36 52.28 3.34 22.66-0.02 40.71-1.99 54.61-4.06 21.16-3.41 32.72-7.8 34.34-9.84l1.49 2.58v0zm-4.06-7.62c-2.29 1.84-13.72 5.89-33.82 9.1-13.41 1.92-30.47 3.65-52.26 3.67-20.71 0.02-37.62-1.38-50.49-3.25-20.41-2.67-31.28-7.48-35.19-8.88 0.39-0.67 0.78-1.34 1.19-2.01 3.05 1.53 13.53 5.79 34.23 8.72 12.72 1.8 29.66 3.15 50.26 3.13 21.69-0.03 38.55-1.78 51.88-3.69 20.21-2.78 31.08-7.95 32.73-9.24l1.47 2.45v0z" stroke="#000" stroke-linecap="round" stroke-width=".57316" fill="none"/><path id="path1355" fill-rule="evenodd" fill="#ffe805" d="m140.88 205.66c18.6 10 59.91 15.04 98.99 15.39 35.6 0.05 81.96-5.5 99.3-14.69l-0.48-10.01c-5.42 8.47-55.11 16.61-99.2 16.27-44.09-0.33-85.04-7.14-98.69-15.96l0.08 9"/><path id="path1357" fill-rule="evenodd" fill="#ffe805" d="m340.12 204.22v2.39c-2.6 3.11-18.94 7.82-39.43 11.14-15.6 2.39-35.93 4.19-61.27 4.19-24.06 0-43.26-1.71-58.14-4-23.53-3.43-38.58-9.43-41.6-11.22l0.01-2.78c9.08 6.03 33.66 10.44 41.92 11.8 14.79 2.27 33.87 3.97 57.81 3.97 25.22 0 45.44-1.79 60.94-4.17 14.7-2.12 35.64-7.64 39.76-11.32zm0.01-8.5v2.39c-2.6 3.12-18.94 7.83-39.43 11.14-15.6 2.39-35.93 4.2-61.27 4.2-24.06 0-43.26-1.72-58.14-4-23.53-3.43-38.58-9.43-41.6-11.22l0.01-2.78c9.08 6.03 33.66 10.44 41.92 11.79 14.78 2.27 33.86 3.98 57.81 3.98 25.22 0 45.44-1.79 60.94-4.17 14.7-2.12 35.64-7.65 39.76-11.33"/><path id="path1359" stroke-linejoin="round" d="m340.12 204.22v2.39c-2.6 3.11-18.94 7.82-39.43 11.14-15.6 2.39-35.93 4.19-61.27 4.19-24.06 0-43.26-1.71-58.14-4-23.53-3.43-38.58-9.43-41.6-11.22l0.01-2.78c9.07 6.03 33.66 10.44 41.92 11.8 14.78 2.27 33.86 3.97 57.81 3.97 25.22 0 45.44-1.79 60.93-4.17 14.71-2.12 35.65-7.64 39.77-11.32v0zm0.01-8.49v2.38c-2.6 3.12-18.94 7.83-39.43 11.14-15.6 2.39-35.93 4.2-61.27 4.2-24.06 0-43.26-1.72-58.14-4-23.53-3.43-38.58-9.43-41.6-11.22l0.01-2.78c9.07 6.03 33.66 10.44 41.92 11.79 14.78 2.27 33.86 3.98 57.81 3.98 25.22 0 45.44-1.79 60.93-4.17 14.71-2.12 35.65-7.65 39.77-11.33v0.01z" stroke="#000" stroke-linecap="round" stroke-width=".57282" fill="none"/><path id="path1361" fill-rule="evenodd" fill="#ffe805" d="m239.79 260.32c-42.77-0.25-79.42-11.66-87.16-13.54l5.64 8.83c13.67 5.75 49.42 14.32 81.93 13.37 32.5-0.95 60.91-3.46 80.93-13.21l5.78-9.15c-13.64 6.42-60.07 13.63-87.12 13.7"/><path id="path1363" fill-rule="evenodd" fill="#ffe805" d="m323.3 253.72c-0.85 1.3-1.72 2.58-2.6 3.83-9.44 3.33-24.31 6.82-30.59 7.84-12.83 2.65-32.67 4.6-50.28 4.61-37.88-0.56-68.9-7.98-83.49-14.3l-1.18-2.03 0.19-0.3 2 0.77c25.95 9.28 55.09 12.99 82.7 13.65 17.54 0.06 35.09-2.01 49.29-4.55 21.77-4.36 30.57-7.65 33.28-9.14l0.68-0.38zm5.02-8.28c0.02 0.03 0.04 0.05 0.06 0.08-0.63 1.07-1.29 2.17-1.96 3.26-5.04 1.8-18.7 5.8-38.66 8.59-13.15 1.79-21.32 3.53-47.48 4.04-49.01-1.25-80.75-10.83-88.29-13.2l-1.11-2.14c28.4 7.42 57.42 12.59 89.4 13.12 23.93-0.51 34.11-2.27 47.15-4.05 23.27-3.62 35-7.45 38.52-8.56-0.04-0.06-0.1-0.13-0.15-0.19l2.52-0.95"/><path id="path1365" stroke-linejoin="round" d="m323.3 253.72c-0.85 1.3-1.72 2.58-2.6 3.83-9.44 3.33-24.31 6.82-30.59 7.84-12.83 2.64-32.67 4.6-50.28 4.6-37.89-0.55-68.9-7.97-83.49-14.29l-1.18-2.03 0.19-0.3 2 0.77c25.95 9.28 55.09 12.99 82.7 13.65 17.53 0.06 35.09-2.01 49.29-4.55 21.77-4.36 30.57-7.65 33.27-9.14l0.69-0.38v0zm5.02-8.28c0.02 0.03 0.04 0.05 0.06 0.08-0.63 1.07-1.29 2.17-1.96 3.26-5.03 1.8-18.7 5.8-38.66 8.59-13.15 1.79-21.32 3.53-47.48 4.04-49.01-1.25-80.75-10.84-88.29-13.2l-1.11-2.14c28.4 7.41 57.42 12.59 89.4 13.12 23.94-0.51 34.12-2.27 47.16-4.05 23.27-3.62 34.99-7.45 38.51-8.56-0.04-0.06-0.09-0.13-0.15-0.2l2.52-0.94v0z" stroke="#000" stroke-linecap="round" stroke-width=".54985" fill="none"/><path id="path1367" fill-rule="evenodd" fill="#ffe805" d="m239.84 111.05c49.12 0 88.78 39.94 88.78 89.07 0 49.12-39.66 88.79-88.78 88.79s-88.91-39.8-88.91-88.93 39.79-88.93 88.91-88.93zm0-8.8c53.82 0 97.71 43.9 97.71 97.73s-43.89 97.73-97.71 97.73c-53.81 0-97.71-43.9-97.71-97.73s43.9-97.73 97.71-97.73"/><path id="path1369" fill-rule="evenodd" fill="#ffe805" d="m239.91 101.08c54.53 0 99.01 44.48 99.01 99.02s-44.48 99.02-99.01 99.02c-54.54 0-99.01-44.48-99.01-99.02s44.47-99.02 99.01-99.02zm0 2.18c53.09 0 96.83 43.58 96.83 96.84s-43.74 96.84-96.83 96.84c-53.1 0-96.84-43.58-96.84-96.84s43.74-96.84 96.84-96.84"/><path id="path1371" stroke-linejoin="round" d="m239.91 101.08c54.53 0 99.01 44.48 99.01 99.02s-44.48 99.02-99.01 99.02c-54.54 0-99.01-44.48-99.01-99.02s44.47-99.02 99.01-99.02zm0 2.18c53.09 0 96.83 43.58 96.83 96.84s-43.74 96.84-96.83 96.84c-53.1 0-96.84-43.58-96.84-96.84s43.74-96.84 96.84-96.84z" stroke="#000" stroke-linecap="round" stroke-width=".57282" fill="none"/><path id="path1373" fill-rule="evenodd" fill="#ffe805" d="m239.99 109.31c49.74 0 90.7 40.82 90.7 90.7 0 49.89-40.97 90.7-90.7 90.7s-90.69-40.81-90.69-90.7c0-49.88 40.96-90.7 90.69-90.7zm0 2.18c48.54 0 88.52 39.84 88.52 88.52 0 48.69-39.98 88.53-88.52 88.53-48.53 0-88.51-39.84-88.51-88.53 0-48.68 39.98-88.52 88.51-88.52"/><path id="path1375" stroke-linejoin="round" d="m239.99 109.31c49.74 0 90.7 40.82 90.7 90.7 0 49.89-40.96 90.7-90.7 90.7-49.73 0-90.69-40.81-90.69-90.7 0-49.88 40.96-90.7 90.69-90.7zm0 2.18c48.54 0 88.52 39.84 88.52 88.52 0 48.69-39.98 88.53-88.52 88.53-48.53 0-88.51-39.84-88.51-88.53 0-48.68 39.98-88.52 88.51-88.52z" stroke="#000" stroke-linecap="round" stroke-width=".57282" fill="none"/><path id="path1377" fill-rule="evenodd" fill="#ffe805" d="m235.9 299.85h8.61v-199.24h-8.61v199.24z"/><path id="path1379" stroke-linejoin="round" d="m237.02 100.68h6.02" stroke="#000" stroke-linecap="round" stroke-width=".57282" fill="none"/><path id="path1381" stroke-linejoin="round" d="m237.03 299.64h6.05" stroke="#000" stroke-linecap="round" stroke-width=".57282" fill="none"/><path id="path1383" fill-rule="evenodd" fill="#ffe805" d="m243.13 99.546h2.16l0.02 201.25h-2.17l-0.01-201.25v-0.004zm-8.42 0.002h2.17v201.25h-2.17v-201.25"/><path id="path1385" stroke-linejoin="round" d="m243.13 99.546h2.16l0.02 201.25h-2.17l-0.01-201.25v-0.004zm-8.42 0.002h2.17l0.01 201.25h-2.18v-201.25-0.002z" stroke="#000" stroke-linecap="round" stroke-width=".57296" fill="none"/><path id="path1387" fill-rule="evenodd" fill="#ffe805" d="m140.54 195.88c12.42-11.43 58.23-18.84 98.87-18.65 40.65 0.19 88.78 8.55 99.26 18.41l0.1 8.52c-8.77-8.24-46.17-18.08-99.28-18.19s-91.67 10-98.95 18.42v-8.51"/><path id="path1389" stroke-linejoin="round" d="m140.52 196.28v7.36" stroke="#000" stroke-linecap="round" stroke-width=".57243" fill="none"/><path id="path1391" stroke-linejoin="round" d="m338.99 196.58v7.36" stroke="#000" stroke-linecap="round" stroke-width=".57243" fill="none"/><path id="path1393" fill-rule="evenodd" fill="#ffe805" d="m239.95 184.77c23.39-0.05 46.07 2.21 64.07 5.72 18.57 3.71 31.64 8.35 36.1 13.57v2.58c-5.39-6.49-22.97-11.25-36.52-13.97-17.86-3.47-40.39-5.71-63.65-5.67-24.53 0.04-47.38 2.37-64.98 5.8-14.12 2.8-32.95 8.37-35.3 13.86v-2.69c1.29-3.8 15.31-9.48 34.98-13.42 17.73-3.45 40.62-5.74 65.3-5.78zm0.01-8.49c23.39-0.05 46.07 2.21 64.07 5.71 18.57 3.72 31.64 8.36 36.1 13.58v2.58c-5.39-6.49-22.97-11.25-36.52-13.97-17.86-3.47-40.39-5.72-63.65-5.67-24.53 0.04-47.27 2.37-64.87 5.8-13.63 2.58-33.23 8.37-35.41 13.86v-2.69c1.29-3.76 15.59-9.64 34.98-13.42 17.73-3.46 40.62-5.74 65.3-5.78"/><path id="path1395" stroke-linejoin="round" d="m239.95 184.77c23.39-0.05 46.07 2.21 64.07 5.72 18.57 3.71 31.64 8.35 36.11 13.57l-0.01 2.58c-5.39-6.49-22.97-11.25-36.52-13.97-17.86-3.47-40.39-5.71-63.65-5.67-24.53 0.04-47.38 2.37-64.98 5.8-14.12 2.8-32.95 8.37-35.3 13.86v-2.69c1.29-3.8 15.31-9.48 34.98-13.42 17.73-3.45 40.62-5.74 65.3-5.78zm0.01-8.49c23.39-0.05 46.07 2.21 64.07 5.71 18.57 3.72 31.64 8.36 36.1 13.58v2.58c-5.39-6.49-22.97-11.25-36.52-13.97-17.86-3.47-40.39-5.72-63.65-5.67-24.53 0.04-47.27 2.37-64.87 5.8-13.63 2.58-33.23 8.37-35.41 13.86v-2.69c1.29-3.76 15.59-9.64 34.98-13.42 17.73-3.46 40.62-5.74 65.3-5.78z" stroke="#000" stroke-linecap="round" stroke-width=".57282" fill="none"/><path id="path1397" fill-rule="evenodd" fill="#ffe805" d="m239.48 132.96c36.85-0.18 68.99 5.15 83.69 12.69l5.37 9.28c-12.78-6.89-47.46-14.05-89.01-12.98-33.85 0.21-70.03 3.72-88.18 13.41l6.41-10.71c14.89-7.73 50.02-11.64 81.72-11.69"/><path id="path1399" stroke-linejoin="round" d="m324.11 147.15l3.65 5.86" stroke="#000" stroke-linecap="round" stroke-width=".57409" fill="none"/><path id="path1401" fill-rule="evenodd" fill="#ffe805" d="m239.97 140.62c21.01-0.05 41.32 1.13 57.47 4.05 15.04 2.8 29.39 7 31.44 9.26l1.59 2.81c-4.99-3.26-17.4-6.88-33.34-9.91-16.01-3-36.3-4-57.2-3.95-23.73-0.08-42.15 1.17-57.97 3.93-16.73 3.13-28.34 7.6-31.2 9.73l1.56-2.97c5.56-2.84 14.39-6.26 29.22-8.93 16.36-2.99 34.99-3.89 58.43-4.02zm-0.01-8.48c20.11-0.05 39.97 1.07 55.45 3.85 12.21 2.38 24.28 6.09 28.7 9.39l2.33 3.7c-3.95-4.4-18.84-8.56-31.97-10.9-15.37-2.64-34.4-3.69-54.51-3.86-21.11 0.06-40.62 1.35-55.75 4.11-14.45 2.75-23.77 6-27.71 8.54l2.05-3.09c5.44-2.86 14.23-5.49 25.3-7.64 15.25-2.78 34.88-4.04 56.11-4.1"/><path id="path1403" stroke-linejoin="round" d="m239.97 140.62c21.01-0.05 41.32 1.13 57.47 4.05 15.04 2.8 29.39 7 31.44 9.26l1.59 2.81c-4.99-3.26-17.4-6.89-33.34-9.91-16.01-3.01-36.3-4-57.2-3.95-23.72-0.08-42.15 1.17-57.97 3.93-16.73 3.13-28.33 7.6-31.2 9.73l1.56-2.97c5.56-2.84 14.39-6.26 29.22-8.93 16.36-2.99 34.99-3.89 58.43-4.02v0zm-0.01-8.48c20.11-0.05 39.97 1.07 55.45 3.85 12.21 2.38 24.28 6.09 28.7 9.39l2.33 3.7c-3.95-4.4-18.84-8.56-31.97-10.9-15.37-2.65-34.4-3.69-54.51-3.86-21.11 0.06-40.62 1.35-55.75 4.11-14.45 2.74-23.77 6-27.71 8.54l2.05-3.09c5.44-2.86 14.23-5.49 25.3-7.65 15.25-2.77 34.88-4.03 56.11-4.09z" stroke="#000" stroke-linecap="round" stroke-width=".57316" fill="none"/><path id="path1405" fill-rule="evenodd" fill="#ffe805" d="m289.15 241.26c-18.22-3.4-36.47-3.89-49.22-3.74-61.4 0.72-81.24 12.61-83.66 16.21l-4.59-7.48c15.63-11.34 49.07-17.69 88.59-17.04 20.51 0.33 38.22 1.7 53.11 4.58l-4.23 7.47"/><path id="path1407" stroke-linejoin="round" d="m152.7 247.28l3.01 5.19" stroke="#000" stroke-linecap="round" stroke-width=".57282" fill="none"/><path id="path1409" fill-rule="evenodd" fill="#ffe805" d="m239.58 236.46c17.08 0.26 33.85 0.96 50.03 3.98l-1.17 2.07c-15.03-2.78-31.05-3.84-48.8-3.75-22.66-0.18-45.58 1.94-65.54 7.67-6.3 1.75-16.72 5.8-17.79 9.14l-1.16-1.92c0.33-1.98 6.64-6.08 18.41-9.39 22.86-6.55 44.24-7.65 66.02-7.8zm0.78-8.59c17.69 0.33 35.97 1.14 53.74 4.66l-1.22 2.16c-16.04-3.19-31.37-4.25-52.42-4.57-22.73 0.04-46.85 1.66-68.78 8.04-7.08 2.06-19.29 6.52-19.7 10.04l-1.17-2.06c0.27-3.21 10.85-7.39 20.36-10.16 22.1-6.42 46.28-8.07 69.19-8.11"/><path id="path1411" stroke-linejoin="round" d="m239.58 236.46c17.08 0.26 33.85 0.96 50.03 3.98l-1.17 2.07c-15.03-2.78-31.05-3.84-48.8-3.75-22.66-0.18-45.58 1.94-65.54 7.67-6.3 1.75-16.72 5.8-17.79 9.14l-1.16-1.92c0.33-1.98 6.64-6.08 18.41-9.39 22.86-6.55 44.24-7.65 66.02-7.8v0zm0.78-8.59c17.69 0.33 35.97 1.14 53.74 4.66l-1.22 2.16c-16.05-3.19-31.37-4.25-52.42-4.57-22.73 0.04-46.85 1.66-68.78 8.03-7.08 2.07-19.29 6.52-19.7 10.05l-1.17-2.06c0.27-3.21 10.84-7.39 20.36-10.16 22.1-6.42 46.28-8.07 69.19-8.11z" stroke="#000" stroke-linecap="round" stroke-width=".54985" fill="none"/><path id="path1413" fill-rule="evenodd" d="m222.02 233.86c0.02-0.31 0.12-0.55 0.3-0.74 0.18-0.18 0.39-0.29 0.64-0.31 0.17-0.01 0.32 0.02 0.44 0.08 0.13 0.07 0.22 0.18 0.28 0.32s0.08 0.3 0.07 0.48c-0.02 0.19-0.07 0.36-0.16 0.51-0.08 0.15-0.19 0.27-0.34 0.36-0.14 0.09-0.29 0.14-0.44 0.15-0.17 0.02-0.32-0.01-0.45-0.08-0.13-0.08-0.22-0.18-0.28-0.32-0.05-0.14-0.07-0.29-0.06-0.45zm0.25-0.02c-0.02 0.22 0.02 0.39 0.13 0.51s0.25 0.17 0.42 0.15c0.18-0.01 0.34-0.09 0.46-0.23 0.13-0.14 0.2-0.32 0.22-0.56 0.01-0.15 0-0.28-0.04-0.38-0.04-0.11-0.11-0.19-0.2-0.25-0.09-0.05-0.19-0.07-0.31-0.06-0.17 0.01-0.32 0.09-0.45 0.21-0.13 0.13-0.21 0.34-0.23 0.61zm2.33 0.29l0.23-0.04c0 0.09 0.02 0.15 0.07 0.2 0.06 0.04 0.13 0.06 0.23 0.06 0.1-0.01 0.18-0.03 0.23-0.08 0.06-0.04 0.09-0.09 0.09-0.15 0.01-0.05-0.01-0.09-0.05-0.12-0.02-0.02-0.1-0.04-0.21-0.06-0.16-0.03-0.27-0.07-0.33-0.09-0.06-0.03-0.1-0.07-0.12-0.12-0.03-0.06-0.04-0.11-0.03-0.18 0.01-0.06 0.02-0.12 0.06-0.17 0.03-0.05 0.07-0.09 0.12-0.13 0.04-0.02 0.09-0.05 0.15-0.07s0.12-0.03 0.19-0.04c0.1 0 0.19 0.01 0.27 0.03 0.07 0.03 0.12 0.07 0.15 0.12s0.05 0.12 0.05 0.2l-0.21 0.04c-0.01-0.07-0.03-0.12-0.07-0.15-0.04-0.04-0.11-0.06-0.19-0.05-0.1 0.01-0.18 0.02-0.23 0.06-0.04 0.04-0.07 0.08-0.08 0.12 0 0.03 0.01 0.06 0.02 0.08 0.02 0.03 0.04 0.04 0.08 0.06 0.02 0.01 0.08 0.02 0.19 0.05 0.15 0.03 0.25 0.06 0.31 0.08 0.06 0.03 0.1 0.07 0.13 0.12s0.04 0.11 0.03 0.19c0 0.07-0.03 0.14-0.08 0.21-0.06 0.07-0.12 0.13-0.21 0.17-0.08 0.04-0.18 0.06-0.28 0.06-0.17 0.01-0.29-0.02-0.37-0.09-0.08-0.06-0.13-0.17-0.14-0.31zm2.25-0.16l0.23 0.02c-0.06 0.14-0.13 0.25-0.24 0.33s-0.23 0.12-0.39 0.13c-0.19 0.01-0.33-0.04-0.43-0.16-0.1-0.11-0.13-0.28-0.11-0.5 0.03-0.22 0.11-0.4 0.23-0.53 0.13-0.12 0.28-0.2 0.46-0.2 0.18-0.01 0.31 0.04 0.41 0.16 0.09 0.11 0.13 0.28 0.1 0.5v0.06l-0.97 0.05c-0.01 0.15 0.01 0.26 0.08 0.33 0.06 0.08 0.15 0.11 0.26 0.1 0.08 0 0.15-0.02 0.21-0.07s0.12-0.12 0.16-0.22zm-0.68-0.33l0.73-0.03c0-0.11-0.02-0.2-0.06-0.25-0.06-0.08-0.14-0.12-0.25-0.12-0.11 0.01-0.2 0.05-0.27 0.12-0.08 0.07-0.13 0.17-0.15 0.28zm1.09 0.82l0.22 0.02c0 0.07 0.02 0.12 0.05 0.15 0.05 0.04 0.13 0.05 0.22 0.05 0.1 0 0.19-0.03 0.24-0.07 0.07-0.05 0.11-0.11 0.14-0.19 0.02-0.04 0.03-0.14 0.05-0.29-0.11 0.13-0.24 0.19-0.38 0.2-0.18 0-0.31-0.05-0.4-0.18-0.08-0.13-0.11-0.29-0.09-0.47 0.02-0.13 0.05-0.25 0.11-0.36s0.13-0.19 0.22-0.26c0.1-0.06 0.2-0.09 0.32-0.1 0.15-0.01 0.27 0.05 0.35 0.17l0.02-0.16 0.21-0.01-0.14 1.15c-0.02 0.21-0.06 0.36-0.11 0.45s-0.13 0.16-0.22 0.22c-0.1 0.05-0.21 0.08-0.34 0.09-0.16 0.01-0.28-0.02-0.36-0.09-0.09-0.07-0.13-0.17-0.11-0.32zm0.28-0.81c-0.02 0.18 0 0.3 0.06 0.38s0.14 0.11 0.24 0.11c0.1-0.01 0.19-0.05 0.27-0.14 0.07-0.08 0.12-0.21 0.14-0.38 0.02-0.16 0-0.28-0.06-0.36s-0.14-0.12-0.24-0.11c-0.1 0-0.19 0.05-0.26 0.13-0.08 0.09-0.13 0.21-0.15 0.37zm1.16 0.63l0.17-1.34h0.2l-0.02 0.18c0.04-0.06 0.11-0.12 0.18-0.16s0.15-0.06 0.24-0.07c0.09 0 0.17 0.02 0.23 0.06 0.05 0.04 0.09 0.09 0.1 0.16 0.13-0.15 0.27-0.24 0.44-0.24 0.13-0.01 0.22 0.03 0.28 0.1s0.08 0.18 0.06 0.33l-0.12 0.92-0.22 0.01 0.11-0.84c0.01-0.09 0.01-0.16 0-0.2 0-0.04-0.03-0.07-0.06-0.09-0.04-0.02-0.08-0.04-0.13-0.03-0.09 0-0.17 0.03-0.24 0.1-0.07 0.06-0.11 0.16-0.13 0.3l-0.1 0.77-0.22 0.01 0.11-0.87c0.02-0.09 0.01-0.17-0.02-0.22s-0.09-0.07-0.17-0.07c-0.06 0-0.12 0.02-0.18 0.06-0.05 0.03-0.1 0.08-0.13 0.15-0.03 0.06-0.05 0.16-0.07 0.28l-0.09 0.69-0.22 0.01zm3.04-0.56l0.22 0.02c-0.05 0.14-0.13 0.25-0.24 0.33-0.1 0.08-0.23 0.12-0.38 0.12-0.19 0.01-0.34-0.05-0.43-0.16-0.1-0.12-0.13-0.29-0.1-0.5 0.03-0.23 0.11-0.4 0.24-0.53s0.28-0.2 0.46-0.2c0.17-0.01 0.31 0.05 0.4 0.17 0.1 0.12 0.13 0.29 0.1 0.51 0 0.01-0.01 0.03-0.01 0.06l-0.97 0.03c-0.01 0.14 0.01 0.26 0.08 0.33 0.06 0.08 0.14 0.11 0.25 0.11 0.08 0 0.15-0.03 0.22-0.07 0.06-0.05 0.11-0.12 0.16-0.22zm-0.67-0.34l0.72-0.02c0.01-0.11-0.01-0.2-0.05-0.25-0.06-0.09-0.14-0.13-0.25-0.12-0.1 0-0.19 0.04-0.27 0.11s-0.13 0.16-0.15 0.28zm1.12 0.76l0.18-1.34 0.2-0.01-0.03 0.19c0.12-0.15 0.27-0.22 0.45-0.23 0.07 0 0.14 0.01 0.2 0.04 0.07 0.02 0.11 0.06 0.14 0.11 0.02 0.04 0.04 0.1 0.04 0.16 0.01 0.04 0 0.11-0.01 0.22l-0.11 0.82-0.22 0.01 0.1-0.81c0.02-0.1 0.02-0.16 0.01-0.21s-0.04-0.08-0.08-0.11c-0.04-0.02-0.09-0.03-0.15-0.03-0.09 0-0.18 0.03-0.25 0.1-0.08 0.06-0.13 0.18-0.15 0.35l-0.1 0.73-0.22 0.01zm1.91-0.26v0.2c-0.06 0.01-0.12 0.02-0.17 0.02-0.08 0.01-0.14-0.01-0.18-0.03-0.04-0.03-0.06-0.06-0.07-0.1-0.02-0.05-0.01-0.14 0.01-0.27l0.11-0.77h-0.16l0.03-0.17 0.16-0.01 0.05-0.33 0.24-0.13-0.07 0.46h0.22l-0.03 0.18h-0.22l-0.12 0.78c-0.01 0.06-0.01 0.1 0 0.12 0 0.02 0.01 0.04 0.03 0.05 0.01 0.01 0.04 0.01 0.07 0.01 0.02 0 0.06 0 0.1-0.01zm0.21-0.48c0.03-0.25 0.13-0.43 0.28-0.55 0.13-0.1 0.27-0.15 0.43-0.16 0.18 0 0.31 0.06 0.41 0.18 0.09 0.12 0.12 0.28 0.09 0.49-0.02 0.18-0.07 0.31-0.13 0.41-0.07 0.1-0.15 0.18-0.25 0.23-0.11 0.06-0.22 0.09-0.33 0.09-0.18 0-0.32-0.06-0.41-0.17-0.1-0.12-0.13-0.29-0.09-0.52zm0.22 0c-0.02 0.17-0.01 0.3 0.05 0.38 0.06 0.09 0.15 0.13 0.26 0.13 0.11-0.01 0.2-0.05 0.29-0.14 0.08-0.08 0.14-0.21 0.16-0.39 0.03-0.16 0.01-0.29-0.05-0.37-0.06-0.09-0.14-0.13-0.25-0.13-0.11 0.01-0.21 0.05-0.29 0.13-0.09 0.09-0.14 0.22-0.17 0.39zm2.79 0.21l0.23 0.02c-0.06 0.14-0.14 0.25-0.25 0.32-0.11 0.08-0.24 0.12-0.39 0.12-0.19 0-0.33-0.05-0.42-0.18-0.09-0.11-0.12-0.28-0.09-0.5s0.12-0.4 0.25-0.52c0.13-0.13 0.28-0.19 0.46-0.19 0.17-0.01 0.31 0.05 0.4 0.17s0.12 0.29 0.09 0.51c-0.01 0.02-0.01 0.04-0.01 0.06l-0.97 0.01c-0.01 0.15 0.01 0.26 0.07 0.34s0.14 0.11 0.25 0.11c0.08 0 0.16-0.02 0.22-0.06 0.06-0.05 0.12-0.12 0.16-0.21zm-0.66-0.36l0.72-0.01c0.01-0.11-0.01-0.2-0.04-0.25-0.06-0.09-0.14-0.13-0.26-0.13-0.1 0-0.19 0.04-0.27 0.11s-0.13 0.16-0.15 0.28zm1.08 0.75l0.31-1.84h0.22l-0.31 1.84h-0.22m0.83-1.58l0.04-0.26h0.22l-0.04 0.26h-0.22zm-0.27 1.58l0.22-1.33h0.22l-0.22 1.33h-0.22m0.56 0l0.22-1.34h0.19l-0.03 0.19c0.06-0.07 0.12-0.12 0.19-0.16 0.08-0.04 0.16-0.06 0.24-0.06 0.1 0 0.17 0.02 0.23 0.07 0.05 0.04 0.08 0.09 0.1 0.17 0.12-0.16 0.27-0.23 0.43-0.23 0.13 0 0.22 0.03 0.28 0.11 0.06 0.07 0.07 0.19 0.05 0.34l-0.15 0.91h-0.22l0.14-0.84c0.01-0.09 0.02-0.15 0.01-0.2-0.01-0.03-0.03-0.07-0.06-0.09s-0.08-0.04-0.13-0.04c-0.09 0-0.17 0.03-0.24 0.1-0.07 0.06-0.12 0.16-0.14 0.29l-0.13 0.78h-0.22l0.15-0.87c0.01-0.1 0.01-0.18-0.02-0.23s-0.08-0.07-0.16-0.07c-0.06 0-0.12 0.01-0.18 0.05-0.06 0.03-0.1 0.08-0.14 0.14-0.03 0.07-0.06 0.16-0.08 0.28l-0.11 0.7h-0.22zm2.34-1.58l0.04-0.26h0.22l-0.04 0.26h-0.22m-0.26 1.58l0.22-1.33h0.22l-0.23 1.33h-0.21m0.55-0.02l0.25-1.34 0.2 0.01-0.04 0.19c0.12-0.15 0.27-0.22 0.45-0.21 0.08 0 0.15 0.01 0.21 0.04s0.1 0.07 0.12 0.12c0.03 0.05 0.04 0.11 0.04 0.17 0 0.04-0.01 0.12-0.03 0.22l-0.15 0.82h-0.22l0.15-0.82c0.02-0.09 0.02-0.16 0.01-0.2 0-0.05-0.03-0.09-0.07-0.12-0.03-0.02-0.08-0.04-0.14-0.04-0.09 0-0.18 0.03-0.26 0.09s-0.13 0.17-0.16 0.34l-0.14 0.73h-0.22m2.26-0.12c-0.1 0.07-0.18 0.12-0.26 0.15-0.08 0.02-0.17 0.04-0.25 0.03-0.14 0-0.25-0.04-0.31-0.11s-0.08-0.17-0.06-0.28c0.01-0.06 0.03-0.12 0.07-0.17 0.04-0.06 0.09-0.1 0.14-0.13s0.11-0.06 0.17-0.07c0.05-0.01 0.11-0.02 0.2-0.03 0.18-0.02 0.32-0.04 0.4-0.07 0.01-0.03 0.02-0.05 0.02-0.06 0.01-0.09 0-0.16-0.03-0.2-0.05-0.05-0.12-0.08-0.23-0.08s-0.19 0.01-0.24 0.05c-0.06 0.04-0.11 0.1-0.15 0.2l-0.21-0.04c0.04-0.09 0.09-0.17 0.14-0.22 0.06-0.06 0.13-0.11 0.22-0.14 0.09-0.02 0.19-0.04 0.3-0.04 0.11 0.01 0.2 0.02 0.26 0.05s0.11 0.06 0.13 0.1c0.03 0.05 0.04 0.1 0.04 0.16 0 0.04 0 0.11-0.02 0.21l-0.06 0.3c-0.04 0.21-0.06 0.34-0.06 0.4 0 0.05 0.01 0.11 0.03 0.16h-0.23c-0.01-0.05-0.02-0.11-0.01-0.17zm0.07-0.5c-0.08 0.03-0.21 0.05-0.37 0.07-0.09 0.02-0.16 0.03-0.2 0.04-0.04 0.02-0.07 0.04-0.1 0.08-0.02 0.03-0.04 0.06-0.05 0.1-0.01 0.06 0 0.11 0.04 0.15 0.04 0.05 0.1 0.07 0.18 0.07 0.09 0 0.16-0.02 0.24-0.05 0.07-0.04 0.13-0.09 0.17-0.16 0.03-0.05 0.06-0.12 0.08-0.22l0.01-0.08m1.28 0.67l0.03-0.17c-0.11 0.13-0.24 0.2-0.4 0.19-0.1 0-0.19-0.03-0.26-0.09-0.08-0.06-0.13-0.15-0.16-0.25-0.03-0.11-0.03-0.23 0-0.37 0.02-0.13 0.07-0.25 0.13-0.36s0.14-0.19 0.24-0.24c0.09-0.06 0.19-0.09 0.3-0.08 0.08 0 0.14 0.02 0.2 0.05 0.05 0.04 0.09 0.08 0.12 0.14l0.12-0.66h0.22l-0.34 1.84h-0.2zm-0.57-0.68c-0.03 0.17-0.02 0.3 0.04 0.38 0.05 0.09 0.12 0.14 0.22 0.14 0.09 0 0.18-0.04 0.26-0.12s0.14-0.2 0.17-0.37c0.03-0.18 0.03-0.31-0.03-0.4-0.05-0.09-0.12-0.13-0.22-0.14-0.1 0-0.19 0.04-0.27 0.12s-0.14 0.21-0.17 0.39zm1.16 0c0.05-0.25 0.15-0.43 0.3-0.55 0.13-0.09 0.27-0.14 0.43-0.14 0.18 0.01 0.31 0.07 0.4 0.19s0.12 0.29 0.08 0.5c-0.03 0.18-0.08 0.31-0.15 0.41s-0.15 0.17-0.26 0.22c-0.1 0.06-0.21 0.08-0.32 0.08-0.18-0.01-0.32-0.07-0.41-0.19-0.09-0.13-0.11-0.3-0.07-0.52zm0.23 0c-0.04 0.17-0.02 0.3 0.03 0.39 0.06 0.08 0.14 0.13 0.25 0.13s0.21-0.04 0.3-0.12c0.08-0.08 0.14-0.22 0.18-0.39 0.03-0.16 0.01-0.29-0.04-0.38-0.06-0.08-0.14-0.13-0.25-0.13s-0.21 0.04-0.29 0.12c-0.09 0.08-0.15 0.21-0.18 0.38zm1.8 0.72l0.24-1.33h0.2l-0.04 0.21c0.07-0.1 0.13-0.16 0.18-0.19 0.04-0.03 0.09-0.04 0.14-0.04 0.08 0 0.15 0.03 0.21 0.08l-0.11 0.2c-0.05-0.03-0.1-0.05-0.15-0.05s-0.09 0.01-0.14 0.04c-0.04 0.03-0.07 0.07-0.1 0.13-0.04 0.08-0.07 0.16-0.08 0.26l-0.13 0.7-0.22-0.01zm1.79-0.38l0.22 0.04c-0.06 0.13-0.15 0.24-0.26 0.31s-0.24 0.1-0.39 0.1c-0.19-0.01-0.32-0.08-0.41-0.2-0.08-0.13-0.11-0.3-0.06-0.51 0.04-0.23 0.13-0.4 0.27-0.52s0.29-0.17 0.47-0.17c0.17 0.01 0.3 0.07 0.38 0.2 0.09 0.13 0.11 0.3 0.06 0.52 0 0.01 0 0.03-0.01 0.06l-0.96-0.04c-0.02 0.15 0 0.26 0.06 0.34 0.05 0.08 0.13 0.13 0.24 0.13 0.08 0 0.15-0.02 0.22-0.06 0.06-0.04 0.12-0.11 0.17-0.2zm-0.64-0.39l0.72 0.02c0.01-0.11 0-0.19-0.03-0.25-0.05-0.09-0.13-0.14-0.24-0.14-0.1-0.01-0.2 0.02-0.28 0.09s-0.14 0.16-0.17 0.28zm1.06 0.41l0.22-0.02c-0.01 0.09 0.01 0.16 0.06 0.21 0.04 0.05 0.12 0.07 0.21 0.08 0.1 0 0.18-0.01 0.24-0.06 0.06-0.04 0.09-0.08 0.1-0.14 0.01-0.05 0-0.09-0.04-0.12-0.02-0.03-0.09-0.05-0.21-0.09-0.15-0.05-0.25-0.09-0.3-0.12-0.06-0.04-0.1-0.08-0.12-0.14-0.02-0.05-0.03-0.11-0.01-0.18 0.01-0.05 0.03-0.11 0.07-0.16s0.08-0.09 0.13-0.12c0.04-0.03 0.09-0.05 0.15-0.06 0.07-0.02 0.13-0.02 0.2-0.02 0.1 0 0.18 0.02 0.25 0.06 0.07 0.03 0.12 0.07 0.15 0.12 0.02 0.06 0.04 0.13 0.03 0.21l-0.22 0.03c0.01-0.07-0.01-0.13-0.05-0.17s-0.1-0.06-0.18-0.06c-0.1-0.01-0.18 0.01-0.23 0.04s-0.08 0.07-0.08 0.12c-0.01 0.03-0.01 0.05 0.01 0.08 0.01 0.02 0.03 0.04 0.07 0.06 0.02 0.01 0.08 0.03 0.18 0.06 0.14 0.06 0.24 0.09 0.3 0.12 0.05 0.03 0.09 0.07 0.12 0.13 0.02 0.05 0.03 0.11 0.01 0.19-0.01 0.08-0.05 0.15-0.1 0.21-0.06 0.07-0.13 0.12-0.22 0.15s-0.18 0.05-0.28 0.04c-0.17 0-0.29-0.04-0.36-0.12-0.07-0.07-0.11-0.18-0.1-0.33zm1.14 0.97l0.37-1.85 0.2 0.01-0.04 0.17c0.06-0.06 0.12-0.11 0.19-0.15 0.07-0.03 0.14-0.04 0.22-0.04 0.11 0.01 0.2 0.04 0.28 0.1 0.07 0.06 0.12 0.15 0.14 0.26s0.02 0.22-0.01 0.35c-0.03 0.14-0.07 0.26-0.14 0.37-0.07 0.1-0.16 0.19-0.26 0.24s-0.2 0.08-0.3 0.08c-0.07-0.01-0.13-0.02-0.19-0.06-0.05-0.03-0.09-0.07-0.11-0.13l-0.13 0.65h-0.22zm0.43-1.17c-0.03 0.17-0.03 0.3 0.02 0.39 0.05 0.08 0.13 0.13 0.22 0.13 0.1 0.01 0.19-0.03 0.28-0.12 0.08-0.08 0.14-0.21 0.18-0.39 0.03-0.17 0.02-0.29-0.03-0.38s-0.12-0.14-0.21-0.14-0.19 0.04-0.27 0.13c-0.09 0.08-0.16 0.21-0.19 0.39v-0.01zm2.01 0.32l0.22 0.04c-0.06 0.13-0.15 0.24-0.26 0.31s-0.24 0.1-0.39 0.09c-0.19-0.01-0.33-0.07-0.41-0.19-0.09-0.13-0.11-0.3-0.06-0.52 0.04-0.22 0.13-0.39 0.27-0.51 0.13-0.12 0.29-0.18 0.47-0.17 0.17 0.01 0.3 0.07 0.38 0.2 0.09 0.12 0.11 0.3 0.06 0.52 0 0.01-0.01 0.03-0.01 0.06l-0.96-0.04c-0.02 0.15 0 0.26 0.05 0.34 0.06 0.08 0.14 0.12 0.25 0.13 0.08 0 0.15-0.02 0.21-0.06 0.07-0.04 0.13-0.11 0.18-0.2zm-0.64-0.4l0.72 0.03c0.01-0.11 0-0.2-0.03-0.25-0.06-0.09-0.14-0.14-0.25-0.15-0.1 0-0.19 0.03-0.27 0.1s-0.14 0.16-0.17 0.27zm1.37-0.74l0.05-0.26 0.22 0.01-0.05 0.26-0.22-0.01m-0.32 1.59l0.27-1.34 0.22 0.01-0.27 1.34-0.22-0.01zm1.07-0.16l-0.01 0.2c-0.06 0.01-0.12 0.01-0.17 0.01-0.08 0-0.13-0.02-0.17-0.05-0.04-0.02-0.07-0.06-0.07-0.1-0.01-0.04 0-0.14 0.02-0.27l0.16-0.77h-0.16l0.03-0.18h0.16l0.07-0.33 0.24-0.12-0.09 0.46 0.22 0.01-0.04 0.18-0.22-0.01-0.15 0.78c-0.02 0.07-0.02 0.11-0.02 0.12 0.01 0.02 0.02 0.04 0.03 0.05 0.02 0.01 0.04 0.02 0.07 0.02s0.06 0 0.1-0.01v0.01zm1.01 0.07c-0.1 0.07-0.18 0.12-0.26 0.15-0.09 0.02-0.17 0.03-0.25 0.03-0.14 0-0.25-0.04-0.31-0.12s-0.08-0.17-0.05-0.28c0.01-0.06 0.03-0.12 0.07-0.18 0.04-0.05 0.09-0.09 0.14-0.12 0.06-0.03 0.11-0.05 0.17-0.07 0.05-0.01 0.12-0.02 0.2-0.02 0.18-0.02 0.32-0.04 0.41-0.07 0-0.03 0.01-0.05 0.01-0.06 0.02-0.09 0.01-0.15-0.02-0.19-0.05-0.06-0.12-0.09-0.23-0.09s-0.19 0.01-0.24 0.05c-0.06 0.03-0.11 0.1-0.15 0.19l-0.21-0.04c0.04-0.09 0.09-0.17 0.15-0.22 0.05-0.06 0.12-0.1 0.21-0.13s0.19-0.04 0.3-0.03c0.11 0 0.2 0.02 0.26 0.05 0.07 0.03 0.11 0.06 0.13 0.1 0.03 0.05 0.04 0.1 0.04 0.16 0 0.04-0.01 0.11-0.03 0.21l-0.06 0.3c-0.04 0.21-0.06 0.34-0.07 0.4 0 0.05 0.01 0.11 0.03 0.16l-0.23-0.01c-0.01-0.04-0.02-0.1-0.01-0.16v-0.01zm0.08-0.5c-0.08 0.03-0.21 0.05-0.37 0.07-0.09 0.01-0.16 0.02-0.2 0.04-0.04 0.01-0.07 0.04-0.1 0.07s-0.04 0.07-0.05 0.1c-0.01 0.06 0 0.12 0.03 0.16 0.04 0.04 0.1 0.06 0.19 0.06 0.08 0.01 0.16-0.01 0.23-0.04 0.07-0.04 0.13-0.09 0.18-0.15 0.03-0.05 0.06-0.13 0.08-0.23l0.01-0.08zm1.16 0.08c0.05-0.25 0.15-0.43 0.31-0.54 0.13-0.1 0.27-0.15 0.43-0.14 0.18 0.01 0.31 0.07 0.4 0.2 0.09 0.12 0.11 0.29 0.07 0.5-0.04 0.18-0.09 0.31-0.16 0.41-0.07 0.09-0.16 0.17-0.26 0.22-0.11 0.05-0.21 0.07-0.33 0.07-0.18-0.01-0.31-0.08-0.4-0.2-0.08-0.12-0.1-0.3-0.06-0.53v0.01zm0.22 0c-0.03 0.17-0.02 0.31 0.03 0.39 0.06 0.09 0.14 0.14 0.25 0.14s0.21-0.03 0.29-0.12c0.09-0.08 0.16-0.21 0.19-0.38s0.02-0.29-0.03-0.38c-0.06-0.09-0.14-0.14-0.25-0.14-0.1-0.01-0.2 0.03-0.29 0.12-0.09 0.08-0.15 0.2-0.19 0.37zm1.68 1.26l0.4-1.84 0.2 0.01-0.04 0.18c0.06-0.07 0.12-0.12 0.19-0.15s0.14-0.04 0.23-0.04c0.1 0.01 0.19 0.04 0.26 0.11 0.08 0.06 0.12 0.15 0.14 0.26s0.02 0.22-0.01 0.35c-0.03 0.14-0.08 0.26-0.15 0.37-0.07 0.1-0.16 0.18-0.26 0.24-0.1 0.05-0.21 0.07-0.3 0.06-0.08 0-0.14-0.02-0.19-0.05-0.05-0.04-0.09-0.08-0.11-0.13l-0.14 0.65-0.22-0.02zm0.45-1.15c-0.04 0.17-0.03 0.3 0.02 0.38 0.05 0.09 0.12 0.13 0.21 0.14 0.1 0.01 0.19-0.03 0.28-0.11 0.08-0.09 0.15-0.21 0.19-0.39 0.03-0.17 0.03-0.3-0.02-0.39s-0.12-0.14-0.21-0.14c-0.1-0.01-0.19 0.03-0.28 0.12-0.09 0.08-0.15 0.21-0.19 0.39zm1.03 0.72l0.29-1.33 0.2 0.01-0.05 0.21c0.07-0.1 0.13-0.16 0.18-0.18 0.05-0.03 0.1-0.05 0.15-0.04 0.07 0 0.14 0.03 0.21 0.08l-0.12 0.21c-0.05-0.04-0.1-0.06-0.15-0.06s-0.1 0.01-0.14 0.04-0.08 0.07-0.11 0.12c-0.04 0.07-0.07 0.16-0.09 0.26l-0.15 0.7-0.22-0.02zm0.89-0.61c0.05-0.25 0.16-0.42 0.31-0.53 0.13-0.1 0.28-0.14 0.44-0.13 0.17 0.01 0.3 0.08 0.39 0.21 0.08 0.12 0.1 0.29 0.06 0.5-0.04 0.18-0.09 0.31-0.16 0.4-0.08 0.1-0.16 0.17-0.27 0.22s-0.22 0.07-0.33 0.06c-0.18-0.01-0.31-0.07-0.39-0.2-0.09-0.13-0.1-0.3-0.06-0.53h0.01zm0.22 0.01c-0.04 0.18-0.03 0.3 0.02 0.39 0.06 0.09 0.14 0.14 0.24 0.15 0.11 0 0.21-0.03 0.3-0.11 0.09-0.09 0.15-0.21 0.19-0.39 0.04-0.16 0.03-0.29-0.02-0.38-0.06-0.09-0.14-0.14-0.24-0.14-0.11-0.01-0.21 0.03-0.3 0.11s-0.15 0.21-0.19 0.37zm1.42-0.81l0.06-0.26 0.21 0.01-0.05 0.27-0.22-0.02m-0.73 2.08l0.08-0.19c0.04 0.02 0.08 0.02 0.1 0.03 0.05 0 0.08-0.01 0.11-0.04s0.06-0.11 0.08-0.23l0.31-1.4 0.21 0.01-0.3 1.41c-0.04 0.16-0.08 0.27-0.14 0.34-0.07 0.08-0.16 0.11-0.28 0.11-0.06-0.01-0.12-0.02-0.17-0.04zm1.91-0.86l0.22 0.05c-0.07 0.13-0.16 0.23-0.27 0.3s-0.24 0.1-0.39 0.09c-0.19-0.01-0.32-0.08-0.41-0.2-0.08-0.13-0.1-0.3-0.05-0.52s0.14-0.39 0.28-0.51 0.29-0.17 0.47-0.16c0.17 0.01 0.3 0.08 0.38 0.21 0.08 0.12 0.1 0.3 0.05 0.52 0 0.01-0.01 0.03-0.01 0.06l-0.96-0.06c-0.02 0.15 0 0.26 0.05 0.35 0.06 0.08 0.14 0.12 0.24 0.13 0.08 0 0.15-0.02 0.22-0.05 0.07-0.04 0.13-0.11 0.18-0.21zm-0.63-0.4l0.71 0.04c0.01-0.11 0.01-0.2-0.03-0.26-0.05-0.09-0.13-0.14-0.24-0.14-0.1-0.01-0.19 0.02-0.27 0.09-0.08 0.06-0.14 0.15-0.17 0.27"/><path id="path1415" fill-rule="evenodd" d="m265.67 234.46l0.2 0.04c-0.05 0.15-0.14 0.27-0.25 0.35-0.12 0.08-0.25 0.12-0.39 0.11-0.17-0.01-0.3-0.08-0.38-0.2-0.08-0.13-0.09-0.3-0.05-0.53 0.03-0.14 0.08-0.26 0.15-0.37 0.07-0.1 0.16-0.18 0.27-0.23 0.1-0.05 0.21-0.07 0.32-0.06 0.14 0 0.24 0.05 0.32 0.13 0.07 0.08 0.1 0.18 0.1 0.32l-0.22 0.02c0-0.09-0.02-0.16-0.06-0.21s-0.1-0.07-0.17-0.08c-0.11 0-0.21 0.03-0.3 0.11-0.08 0.08-0.14 0.21-0.18 0.38-0.04 0.18-0.04 0.31 0.01 0.4 0.05 0.08 0.13 0.13 0.23 0.13 0.09 0.01 0.16-0.01 0.23-0.06 0.07-0.06 0.13-0.14 0.17-0.25zm0.8 0.38l-0.01 0.2c-0.07 0.01-0.12 0.01-0.17 0.01-0.08-0.01-0.14-0.02-0.18-0.05-0.03-0.03-0.05-0.07-0.06-0.11-0.01-0.05 0-0.14 0.03-0.27l0.18-0.77-0.16-0.01 0.05-0.18 0.16 0.02 0.07-0.33 0.25-0.12-0.11 0.47 0.22 0.01-0.05 0.18-0.21-0.02-0.18 0.78c-0.02 0.06-0.03 0.1-0.02 0.12 0 0.02 0.01 0.04 0.03 0.05 0.01 0.01 0.03 0.02 0.06 0.02h0.1zm0.24-0.45c0.06-0.25 0.17-0.43 0.33-0.54 0.13-0.09 0.27-0.13 0.43-0.11 0.18 0.01 0.31 0.08 0.39 0.21s0.1 0.3 0.05 0.51c-0.04 0.17-0.1 0.3-0.17 0.4-0.07 0.09-0.16 0.16-0.27 0.21-0.1 0.05-0.21 0.07-0.33 0.06-0.17-0.02-0.3-0.09-0.39-0.22-0.08-0.12-0.09-0.3-0.04-0.52zm0.22 0.02c-0.04 0.17-0.03 0.3 0.02 0.39s0.13 0.14 0.24 0.14c0.11 0.01 0.21-0.02 0.3-0.1s0.15-0.21 0.19-0.39c0.04-0.16 0.04-0.29-0.01-0.38-0.06-0.09-0.14-0.14-0.24-0.15-0.11 0-0.21 0.03-0.3 0.11s-0.16 0.2-0.2 0.37v0.01zm2.58 0.9l0.04-0.17c-0.11 0.13-0.25 0.18-0.41 0.17-0.1-0.01-0.18-0.04-0.26-0.11-0.07-0.06-0.11-0.15-0.14-0.26-0.02-0.11-0.01-0.23 0.02-0.36 0.03-0.14 0.08-0.26 0.15-0.36 0.06-0.11 0.15-0.18 0.25-0.24 0.09-0.05 0.2-0.07 0.3-0.06 0.08 0.01 0.14 0.03 0.19 0.07 0.06 0.04 0.1 0.08 0.12 0.14l0.15-0.66 0.22 0.02-0.43 1.84-0.2-0.02zm-0.53-0.72c-0.04 0.17-0.04 0.3 0.01 0.39s0.12 0.14 0.22 0.15c0.09 0.01 0.18-0.03 0.27-0.1 0.08-0.08 0.14-0.2 0.18-0.37 0.04-0.18 0.04-0.31-0.01-0.4-0.04-0.09-0.12-0.15-0.21-0.15-0.1-0.01-0.19 0.02-0.27 0.1-0.09 0.08-0.15 0.2-0.19 0.38zm2.04 0.42l0.22 0.05c-0.07 0.13-0.16 0.23-0.28 0.3-0.11 0.06-0.24 0.09-0.39 0.08-0.18-0.02-0.32-0.09-0.4-0.22-0.07-0.13-0.09-0.31-0.03-0.52 0.06-0.23 0.15-0.4 0.29-0.51 0.15-0.11 0.3-0.16 0.48-0.14 0.17 0.01 0.29 0.09 0.37 0.22 0.07 0.13 0.09 0.3 0.03 0.52 0 0.02-0.01 0.04-0.02 0.06l-0.94-0.09c-0.03 0.15-0.02 0.27 0.03 0.35s0.13 0.13 0.24 0.14c0.08 0.01 0.15-0.01 0.22-0.04 0.06-0.04 0.12-0.11 0.18-0.2zm-0.61-0.43l0.71 0.07c0.01-0.12 0.01-0.2-0.02-0.26-0.05-0.1-0.13-0.15-0.24-0.16-0.1-0.01-0.19 0.02-0.27 0.08-0.09 0.06-0.15 0.15-0.18 0.27zm3.11 0.47l0.22 0.08c-0.1 0.2-0.23 0.34-0.38 0.43-0.15 0.1-0.32 0.13-0.5 0.11-0.19-0.01-0.33-0.07-0.43-0.16s-0.16-0.22-0.18-0.37c-0.02-0.16-0.01-0.33 0.03-0.51 0.05-0.19 0.12-0.35 0.23-0.49 0.11-0.13 0.23-0.23 0.38-0.29s0.3-0.09 0.45-0.07c0.18 0.01 0.31 0.08 0.41 0.18 0.09 0.11 0.14 0.24 0.15 0.42l-0.24 0.03c-0.01-0.13-0.05-0.24-0.11-0.3-0.06-0.07-0.15-0.11-0.27-0.12-0.13-0.02-0.25 0.01-0.36 0.06-0.1 0.06-0.19 0.15-0.26 0.26-0.06 0.11-0.11 0.23-0.14 0.35-0.04 0.15-0.05 0.29-0.04 0.41 0.02 0.12 0.06 0.22 0.14 0.28 0.07 0.07 0.17 0.11 0.27 0.12 0.13 0.01 0.25-0.02 0.36-0.09s0.2-0.18 0.27-0.33zm0.43 0.02c0.07-0.24 0.18-0.42 0.34-0.52 0.14-0.08 0.28-0.12 0.44-0.1 0.17 0.02 0.3 0.09 0.37 0.23 0.08 0.13 0.09 0.3 0.04 0.51-0.05 0.17-0.11 0.3-0.18 0.4-0.08 0.09-0.17 0.16-0.28 0.2s-0.21 0.06-0.32 0.04c-0.18-0.01-0.31-0.09-0.38-0.22-0.08-0.13-0.09-0.31-0.03-0.54zm0.22 0.03c-0.05 0.17-0.04 0.3 0 0.39 0.05 0.1 0.13 0.15 0.24 0.16 0.1 0.01 0.2-0.02 0.3-0.1 0.09-0.07 0.16-0.2 0.2-0.37 0.05-0.17 0.05-0.3 0-0.39s-0.13-0.14-0.23-0.15c-0.11-0.02-0.21 0.01-0.3 0.09s-0.16 0.2-0.21 0.37zm1.03 0.81l0.49-1.84 0.22 0.03-0.49 1.83-0.22-0.02m1.37 0.17l0.06-0.2c-0.14 0.14-0.3 0.2-0.46 0.18-0.08-0.01-0.14-0.03-0.2-0.07s-0.1-0.08-0.11-0.13c-0.02-0.05-0.03-0.11-0.02-0.17 0-0.05 0.01-0.12 0.04-0.22l0.22-0.82 0.21 0.03-0.19 0.73c-0.04 0.12-0.05 0.2-0.06 0.24 0 0.06 0.02 0.11 0.05 0.15 0.04 0.04 0.09 0.06 0.15 0.07 0.07 0.01 0.13 0 0.2-0.03 0.06-0.03 0.11-0.07 0.15-0.13 0.04-0.05 0.08-0.14 0.11-0.25l0.19-0.71 0.21 0.02-0.35 1.33-0.2-0.02zm0.51 0.06l0.36-1.33 0.19 0.02-0.05 0.19c0.05-0.06 0.12-0.11 0.2-0.14 0.07-0.03 0.15-0.04 0.24-0.03s0.16 0.04 0.21 0.08c0.05 0.05 0.08 0.11 0.08 0.19 0.14-0.14 0.29-0.21 0.45-0.19 0.13 0.02 0.21 0.07 0.26 0.14 0.05 0.09 0.05 0.2 0.01 0.35l-0.24 0.92-0.21-0.03 0.22-0.84c0.02-0.09 0.03-0.15 0.03-0.19s-0.02-0.08-0.05-0.1c-0.03-0.03-0.07-0.05-0.12-0.06-0.09-0.01-0.17 0.02-0.24 0.07-0.08 0.06-0.13 0.15-0.17 0.29l-0.21 0.77-0.21-0.02 0.23-0.87c0.03-0.1 0.03-0.17 0.01-0.23-0.02-0.05-0.07-0.08-0.15-0.09-0.06-0.01-0.12 0-0.18 0.03s-0.11 0.07-0.15 0.13-0.08 0.15-0.11 0.27l-0.19 0.69-0.21-0.02zm2.22 0.29l-0.2-0.03 0.53-1.82 0.21 0.02-0.19 0.66c0.13-0.11 0.26-0.15 0.4-0.14 0.07 0.02 0.14 0.04 0.2 0.08 0.06 0.05 0.11 0.1 0.13 0.16 0.03 0.07 0.05 0.15 0.05 0.23 0 0.09-0.01 0.18-0.04 0.28-0.07 0.22-0.17 0.39-0.31 0.5s-0.29 0.16-0.44 0.14-0.24-0.1-0.29-0.24l-0.05 0.16m0.19-0.67c-0.04 0.16-0.06 0.27-0.04 0.35 0.04 0.13 0.11 0.2 0.23 0.21 0.09 0.01 0.18-0.02 0.27-0.1 0.1-0.07 0.17-0.19 0.21-0.36 0.05-0.18 0.06-0.31 0.01-0.4-0.04-0.09-0.1-0.14-0.19-0.15-0.1-0.02-0.19 0.01-0.28 0.09s-0.16 0.19-0.21 0.36zm1.83 0.78c-0.1 0.06-0.19 0.1-0.27 0.11-0.08 0.02-0.16 0.03-0.25 0.02-0.13-0.02-0.23-0.07-0.28-0.15-0.06-0.08-0.07-0.18-0.04-0.29 0.02-0.06 0.05-0.12 0.1-0.17 0.04-0.05 0.09-0.09 0.14-0.12 0.06-0.02 0.11-0.04 0.18-0.05 0.04-0.01 0.11-0.01 0.19-0.01 0.18 0 0.32 0 0.41-0.02 0.01-0.03 0.01-0.05 0.01-0.06 0.03-0.09 0.03-0.16 0-0.2-0.04-0.06-0.11-0.1-0.22-0.11-0.1-0.01-0.18-0.01-0.24 0.02-0.06 0.04-0.11 0.1-0.16 0.19l-0.2-0.06c0.05-0.09 0.1-0.16 0.16-0.22 0.06-0.05 0.13-0.09 0.22-0.1 0.1-0.02 0.19-0.03 0.3-0.01 0.11 0.01 0.19 0.04 0.25 0.07 0.06 0.04 0.1 0.08 0.12 0.12 0.02 0.05 0.03 0.1 0.02 0.16 0 0.04-0.02 0.11-0.04 0.21l-0.09 0.3c-0.06 0.21-0.09 0.34-0.1 0.4-0.01 0.05 0 0.11 0.01 0.16l-0.22-0.03c-0.01-0.05-0.01-0.1 0-0.16zm0.13-0.51c-0.09 0.03-0.21 0.04-0.37 0.04-0.1 0-0.16 0.01-0.2 0.02s-0.08 0.03-0.11 0.06-0.05 0.06-0.06 0.1c-0.01 0.06-0.01 0.12 0.02 0.16 0.04 0.05 0.09 0.08 0.18 0.09 0.08 0.01 0.16 0 0.23-0.03s0.14-0.07 0.18-0.14c0.04-0.04 0.08-0.12 0.1-0.21l0.03-0.09m0.35 0.77l0.4-1.32 0.19 0.03-0.05 0.19c0.13-0.13 0.28-0.18 0.46-0.16 0.07 0.01 0.14 0.04 0.19 0.08 0.06 0.04 0.09 0.08 0.11 0.13s0.02 0.11 0.02 0.18c-0.01 0.04-0.03 0.11-0.06 0.22l-0.24 0.81-0.22-0.03 0.25-0.81c0.02-0.09 0.04-0.16 0.04-0.2-0.01-0.05-0.03-0.09-0.06-0.12-0.03-0.04-0.08-0.06-0.13-0.07-0.09-0.01-0.18 0-0.27 0.05-0.08 0.06-0.15 0.17-0.2 0.34l-0.22 0.72-0.21-0.04zm1.44-0.46c0.08-0.25 0.2-0.42 0.36-0.51 0.14-0.09 0.28-0.11 0.44-0.09 0.17 0.03 0.29 0.11 0.36 0.24 0.08 0.14 0.08 0.31 0.02 0.52-0.05 0.17-0.12 0.3-0.2 0.39-0.07 0.09-0.17 0.16-0.27 0.2-0.11 0.04-0.22 0.05-0.33 0.03-0.18-0.03-0.3-0.11-0.37-0.24-0.07-0.14-0.07-0.32-0.01-0.54zm0.22 0.03c-0.05 0.17-0.05 0.3-0.01 0.4 0.04 0.09 0.12 0.15 0.23 0.17 0.1 0.01 0.2-0.02 0.3-0.09 0.09-0.08 0.17-0.2 0.22-0.37 0.05-0.16 0.05-0.29 0-0.39-0.04-0.1-0.11-0.15-0.22-0.17-0.1-0.01-0.21 0.02-0.3 0.09-0.1 0.07-0.17 0.19-0.22 0.36"/><path id="path1417" stroke-linejoin="round" d="m294 232.75l-5.41 9.59" stroke="#dc241f" stroke-linecap="round" stroke-width=".93726" fill="none"/><path id="path1419" fill-rule="evenodd" fill="#ffe805" d="m156.9 144.52c30.42-0.4 170.91 85.84 171.32 101.73l-8.7 13.34c-3.93-18.44-146.48-102.37-170-100.78l7.38-14.29"/><path id="path1421" stroke-linejoin="round" d="m327.58 247.38l-7.38 11.45" stroke="#000" stroke-linecap="round" stroke-width=".57298" fill="none"/><path id="path1423" stroke-linejoin="round" d="m156.67 145.27l-6.86 12.72" stroke="#000" stroke-linecap="round" stroke-width=".57298" fill="none"/><path id="path1425" fill-rule="evenodd" fill="#ffe805" d="m148.65 158.3c5.65-3.83 47.14 14.65 90.55 40.83 43.3 26.25 84.68 55.92 80.95 61.47l-1.23 1.93-0.57 0.45c0.13-0.09 0.75-0.85-0.06-2.91-1.84-6.07-31.19-29.49-79.89-58.89-47.47-28.31-87.04-45.37-91-40.5l1.25-2.38zm180.44 88.92c3.57-7.05-34.91-36.04-82.63-64.27-48.81-27.67-83.99-43.95-90.42-39.1l-1.43 2.6c-0.01 0.15 0.05-0.17 0.35-0.41 1.17-1.02 3.11-0.95 3.98-0.97 11.07 0.17 42.67 14.71 87.01 40.13 19.43 11.32 82.07 51.49 81.83 62.79 0.02 0.97 0.08 1.17-0.28 1.65l1.59-2.42"/><path id="path1427" stroke-linejoin="round" d="m148.65 158.29c5.65-3.83 47.14 14.66 90.55 40.84 43.3 26.25 84.68 55.92 80.95 61.47l-1.23 1.93-0.57 0.45c0.13-0.09 0.75-0.85-0.06-2.91-1.84-6.07-31.19-29.49-79.89-58.89-47.47-28.31-87.04-45.37-91-40.5l1.25-2.39v0zm180.44 88.93c3.57-7.05-34.91-36.04-82.63-64.27-48.81-27.67-83.99-43.95-90.42-39.1l-1.43 2.6c-0.01 0.15 0.05-0.17 0.36-0.41 1.16-1.02 3.1-0.95 3.97-0.96 11.07 0.16 42.67 14.71 87.01 40.12 19.43 11.32 82.07 51.5 81.83 62.79 0.02 0.98 0.08 1.18-0.28 1.66l1.59-2.43v0z" stroke="#000" stroke-linecap="round" stroke-width="0.573" fill="none"/><path id="path1429" fill-rule="evenodd" fill="#fff" d="m180.6 211.01c0 16.27 6.66 30.98 17.46 41.74 10.81 10.78 25.51 17.58 41.8 17.58 16.39 0 31.25-6.65 42.02-17.39s17.44-25.55 17.45-41.88h-0.01v-79.19l-118.74-0.14 0.02 79.28"/><path id="path1431" d="m180.6 211.01c0 16.27 6.66 30.98 17.45 41.74 10.82 10.78 25.52 17.58 41.81 17.58 16.38 0 31.25-6.65 42.02-17.39s17.44-25.55 17.44-41.88v-79.19l-118.74-0.14 0.01 79.28h0.01z" stroke="#000" stroke-width=".67037" fill="none"/><path id="path1433" fill-rule="evenodd" fill="#dc241f" d="m182.82 211.12v0.04c0 15.56 6.44 29.73 16.78 40.01 10.35 10.31 24.61 16.72 40.21 16.72 15.68 0 29.91-6.37 40.22-16.63s16.7-24.43 16.7-40.05v-76.82l-113.84-0.02-0.07 76.75m91.02-53.75l0.01 48.89-0.05 5.17c0 1.37-0.08 2.92-0.24 4.24-0.92 7.73-4.48 14.46-9.74 19.7-6.16 6.14-14.67 9.95-24.05 9.95-9.32 0-17.64-3.94-23.83-10.1-6.35-6.32-10.03-14.99-10.03-23.95l-0.01-54.02 67.94 0.12"/><path id="path1435" d="m182.82 211.12v0.04c0 15.56 6.44 29.73 16.77 40.01 10.36 10.31 24.62 16.72 40.22 16.72 15.68 0 29.91-6.37 40.22-16.63s16.7-24.43 16.7-40.04v-76.83l-113.84-0.02-0.07 76.75m91.02-53.75v48.89l-0.04 5.17c0 1.37-0.08 2.92-0.24 4.24-0.92 7.73-4.48 14.46-9.74 19.71-6.17 6.13-14.67 9.94-24.05 9.94-9.33 0-17.64-3.94-23.83-10.1-6.35-6.32-10.03-14.99-10.03-23.95l-0.01-54.02 67.94 0.12z" stroke="#000" stroke-width=".50734" fill="none"/><path id="path1437" fill-rule="evenodd" fill="#003082" d="m232.64 202.4v0.01c0 2.21 0.85 4.23 2.21 5.69s3.24 2.37 5.3 2.37c2.07 0 3.94-0.9 5.3-2.36s2.2-3.47 2.2-5.69v-10.77l-14.99-0.01-0.02 10.76"/><path id="path1439" fill-rule="evenodd" fill="#fff" d="m244.39 194.25c-0.82 0-1.49 0.67-1.49 1.49s0.67 1.48 1.49 1.48 1.48-0.66 1.48-1.48-0.66-1.49-1.48-1.49"/><path id="path1441" fill-rule="evenodd" fill="#fff" d="m240.22 198.25c-0.82 0-1.48 0.66-1.48 1.48s0.66 1.48 1.48 1.48 1.49-0.66 1.49-1.48-0.67-1.48-1.49-1.48"/><path id="path1443" fill-rule="evenodd" fill="#fff" d="m244.38 202.42c-0.82 0-1.49 0.66-1.49 1.48s0.67 1.48 1.49 1.48 1.49-0.66 1.49-1.48-0.67-1.48-1.49-1.48"/><path id="path1445" fill-rule="evenodd" fill="#fff" d="m236.27 202.43c-0.82 0-1.49 0.66-1.49 1.48s0.67 1.49 1.49 1.49c0.81 0 1.48-0.67 1.48-1.49s-0.67-1.48-1.48-1.48"/><path id="path1447" fill-rule="evenodd" fill="#fff" d="m236.25 194.24c-0.82 0-1.49 0.67-1.49 1.49s0.67 1.49 1.49 1.49 1.49-0.67 1.49-1.49-0.67-1.49-1.49-1.49"/><path id="path1449" fill-rule="evenodd" fill="#003082" d="m232.56 228.18v0.01c0 2.21 0.85 4.23 2.22 5.69 1.36 1.47 3.24 2.38 5.3 2.38s3.94-0.91 5.3-2.37 2.2-3.47 2.2-5.69v-10.77l-14.99-0.01-0.03 10.76"/><path id="path1451" fill-rule="evenodd" fill="#fff" d="m244.32 220.04c-0.82 0-1.49 0.66-1.49 1.48s0.67 1.49 1.49 1.49c0.81 0 1.48-0.67 1.48-1.49s-0.67-1.48-1.48-1.48"/><path id="path1453" fill-rule="evenodd" fill="#fff" d="m240.15 224.03c-0.82 0-1.49 0.67-1.49 1.48 0 0.82 0.67 1.49 1.49 1.49s1.49-0.67 1.49-1.49c0-0.81-0.67-1.48-1.49-1.48"/><path id="path1455" fill-rule="evenodd" fill="#fff" d="m244.31 228.2c-0.82 0-1.49 0.67-1.49 1.48 0 0.82 0.67 1.49 1.49 1.49s1.48-0.67 1.48-1.49c0-0.81-0.66-1.48-1.48-1.48"/><path id="path1457" fill-rule="evenodd" fill="#fff" d="m236.19 228.21c-0.81 0-1.48 0.67-1.48 1.49 0 0.81 0.67 1.48 1.48 1.48 0.82 0 1.49-0.67 1.49-1.48 0-0.82-0.67-1.49-1.49-1.49"/><path id="path1459" fill-rule="evenodd" fill="#fff" d="m236.18 220.03c-0.82 0-1.49 0.67-1.49 1.48 0 0.82 0.67 1.49 1.49 1.49s1.48-0.67 1.48-1.49c0-0.81-0.66-1.48-1.48-1.48"/><path id="path1461" fill-rule="evenodd" fill="#003082" d="m211.84 202.45v0.01c0 2.21 0.85 4.23 2.21 5.69s3.25 2.37 5.3 2.37c2.07 0 3.95-0.9 5.3-2.36 1.36-1.46 2.2-3.47 2.21-5.69v-10.77l-14.99-0.01-0.03 10.76"/><path id="path1463" fill-rule="evenodd" fill="#fff" d="m223.59 194.31c-0.82 0-1.49 0.66-1.49 1.48s0.67 1.48 1.49 1.48 1.49-0.66 1.49-1.48-0.67-1.48-1.49-1.48"/><path id="path1465" fill-rule="evenodd" fill="#fff" d="m219.42 198.3c-0.81 0-1.48 0.67-1.48 1.48 0 0.82 0.67 1.49 1.48 1.49 0.82 0 1.49-0.67 1.49-1.49 0-0.81-0.67-1.48-1.49-1.48"/><path id="path1467" fill-rule="evenodd" fill="#fff" d="m223.58 202.47c-0.82 0-1.48 0.66-1.48 1.48s0.66 1.49 1.48 1.49 1.49-0.67 1.49-1.49-0.67-1.48-1.49-1.48"/><path id="path1469" fill-rule="evenodd" fill="#fff" d="m215.47 202.48c-0.82 0-1.49 0.67-1.49 1.48 0 0.82 0.67 1.49 1.49 1.49s1.48-0.67 1.48-1.49c0-0.81-0.66-1.48-1.48-1.48"/><path id="path1471" fill-rule="evenodd" fill="#fff" d="m215.45 194.3c-0.82 0-1.48 0.67-1.48 1.48 0 0.82 0.66 1.49 1.48 1.49s1.49-0.67 1.49-1.49c0-0.81-0.67-1.48-1.49-1.48"/><path id="path1473" fill-rule="evenodd" fill="#003082" d="m253.38 202.44v0.01c0 2.21 0.85 4.23 2.21 5.69 1.37 1.46 3.25 2.38 5.31 2.38s3.94-0.91 5.3-2.37 2.2-3.47 2.2-5.69v-10.77l-14.99-0.01-0.03 10.76"/><path id="path1475" fill-rule="evenodd" fill="#fff" d="m265.13 194.29c-0.81 0-1.48 0.67-1.48 1.49s0.67 1.48 1.48 1.48c0.82 0 1.49-0.66 1.49-1.48s-0.67-1.49-1.49-1.49"/><path id="path1477" fill-rule="evenodd" fill="#fff" d="m260.97 198.29c-0.82 0-1.49 0.66-1.49 1.48s0.67 1.49 1.49 1.49 1.48-0.67 1.48-1.49-0.66-1.48-1.48-1.48"/><path id="path1479" fill-rule="evenodd" fill="#fff" d="m265.13 202.46c-0.82 0-1.49 0.66-1.49 1.48s0.67 1.48 1.49 1.48c0.81 0 1.48-0.66 1.48-1.48s-0.67-1.48-1.48-1.48"/><path id="path1481" fill-rule="evenodd" fill="#fff" d="m257.01 202.47c-0.81 0-1.48 0.66-1.48 1.48s0.67 1.49 1.48 1.49c0.82 0 1.49-0.67 1.49-1.49s-0.67-1.48-1.49-1.48"/><path id="path1483" fill-rule="evenodd" fill="#fff" d="m257 194.29c-0.82 0-1.49 0.66-1.49 1.48s0.67 1.49 1.49 1.49c0.81 0 1.48-0.67 1.48-1.49s-0.67-1.48-1.48-1.48"/><path id="path1485" fill-rule="evenodd" fill="#003082" d="m232.63 176.39c0 2.21 0.85 4.23 2.21 5.69 1.37 1.47 3.25 2.38 5.3 2.38 2.07 0 3.95-0.91 5.31-2.37s2.2-3.47 2.2-5.69v-10.77l-14.99-0.01-0.03 10.77"/><path id="path1487" fill-rule="evenodd" fill="#fff" d="m244.38 168.24c-0.82 0-1.48 0.66-1.48 1.48s0.66 1.49 1.48 1.49 1.49-0.67 1.49-1.49-0.67-1.48-1.49-1.48"/><path id="path1489" fill-rule="evenodd" fill="#fff" d="m240.22 172.23c-0.82 0-1.49 0.67-1.49 1.49 0 0.81 0.67 1.48 1.49 1.48 0.81 0 1.48-0.67 1.48-1.48 0-0.82-0.67-1.49-1.48-1.49"/><path id="path1491" fill-rule="evenodd" fill="#fff" d="m244.37 176.4c-0.81 0-1.48 0.67-1.48 1.48 0 0.82 0.67 1.49 1.48 1.49 0.82 0 1.49-0.67 1.49-1.49 0-0.81-0.67-1.48-1.49-1.48"/><path id="path1493" fill-rule="evenodd" fill="#fff" d="m236.26 176.41c-0.82 0-1.49 0.67-1.49 1.48 0 0.82 0.67 1.49 1.49 1.49s1.49-0.67 1.49-1.49c0-0.81-0.67-1.48-1.49-1.48"/><path id="path1495" fill-rule="evenodd" fill="#fff" d="m236.24 168.23c-0.81 0-1.48 0.67-1.48 1.48 0 0.82 0.67 1.49 1.48 1.49 0.82 0 1.49-0.67 1.49-1.49 0-0.81-0.67-1.48-1.49-1.48"/><path id="path1497" fill-rule="evenodd" fill="#ffe805" d="m190.19 154.43c0.14-5.52 4.05-6.82 4.08-6.84s4.23 1.4 4.22 6.9l-8.3-0.06"/><path id="path1499" fill-rule="evenodd" fill="#ffe805" d="m186.81 147.68l-0.68 6.35 4.14 0.01c0.04-5.25 3.97-6.12 4.07-6.1 0.09-0.01 3.99 1.16 4.09 6.1h4.15l-0.75-6.39-15.02 0.03"/><path id="path1501" d="m186.81 147.69l-0.68 6.34 4.14 0.01c0.04-5.25 3.97-6.12 4.07-6.1 0.09-0.01 3.99 1.16 4.09 6.1h4.15l-0.75-6.39-15.02 0.03v0.01z" stroke="#000" stroke-width=".49936" fill="none"/><path id="path1503" fill-rule="evenodd" fill="#ffe805" d="m185.85 154.06h16.95c0.35 0 0.65 0.35 0.65 0.78s-0.3 0.79-0.65 0.79h-16.95c-0.36 0-0.65-0.36-0.65-0.79s0.29-0.78 0.65-0.78"/><path id="path1505" d="m185.85 154.06h16.95c0.35 0 0.65 0.35 0.65 0.78s-0.3 0.79-0.65 0.79h-16.95c-0.36 0-0.65-0.36-0.65-0.79s0.29-0.78 0.65-0.78z" stroke="#000" stroke-width=".49943" fill="none"/><path id="path1507" fill-rule="evenodd" fill="#ffe805" d="m192.01 154.03c0.02-3.31 2.27-4.25 2.28-4.25 0 0 2.34 0.97 2.36 4.25h-4.64"/><path id="path1509" d="m192.01 154.03c0.02-3.31 2.27-4.25 2.28-4.25 0 0 2.34 0.97 2.36 4.25h-4.64" stroke="#000" stroke-width=".49703" fill="none"/><path id="path1511" fill-rule="evenodd" fill="#ffe805" d="m186.21 145.06h16.24c0.34 0 0.63 0.31 0.63 0.7s-0.29 0.71-0.63 0.71h-16.24c-0.34 0-0.62-0.32-0.62-0.71s0.28-0.7 0.62-0.7"/><path id="path1513" d="m186.21 145.05h16.24c0.34 0 0.63 0.32 0.63 0.71s-0.29 0.7-0.63 0.7h-16.24c-0.34 0-0.62-0.31-0.62-0.7s0.28-0.71 0.62-0.71z" stroke="#000" stroke-width=".49901" fill="none"/><path id="path1515" fill-rule="evenodd" fill="#ffe805" d="m186.55 146.47h15.54c0.33 0 0.6 0.31 0.6 0.7s-0.27 0.7-0.6 0.7h-15.54c-0.33 0-0.59-0.31-0.59-0.7s0.26-0.7 0.59-0.7"/><path id="path1517" d="m186.55 146.47h15.54c0.33 0 0.59 0.31 0.59 0.7s-0.26 0.7-0.59 0.7h-15.54c-0.33 0-0.59-0.31-0.59-0.7s0.26-0.7 0.59-0.7z" stroke="#000" stroke-width=".49901" fill="none"/><path id="path1519" fill-rule="evenodd" fill="#ffe805" d="m191.57 135.88h1.23v0.88h0.89v-0.9l1.26 0.01v0.89h0.9v-0.9l1.26 0.01-0.01 2.01c0 0.31-0.25 0.52-0.54 0.52h-4.41c-0.3 0-0.57-0.24-0.57-0.53l-0.01-1.99"/><path id="path1521" d="m191.57 135.88h1.23v0.88h0.89v-0.9l1.26 0.01v0.89h0.9v-0.9h1.26l-0.01 2.02c0 0.31-0.25 0.52-0.54 0.52h-4.42c-0.29 0-0.57-0.24-0.57-0.53v-1.99z" stroke="#000" stroke-width=".50025" fill="none"/><path id="path1523" fill-rule="evenodd" fill="#ffe805" d="m196.19 138.57l0.28 6.46-4.3-0.02 0.28-6.45 3.74 0.01"/><path id="path1525" d="m196.19 138.57l0.28 6.46-4.3-0.02 0.28-6.45 3.74 0.01" stroke="#000" stroke-width=".49898" fill="none"/><path id="path1527" fill-rule="evenodd" fill="#ffe805" d="m196.91 139.04h1.2v0.87h0.88v-0.89h1.23v0.89h0.88v-0.89h1.23l-0.01 2.01c0 0.31-0.24 0.52-0.53 0.52h-4.32c-0.29 0-0.56-0.24-0.56-0.53v-1.99"/><path id="path1529" d="m196.91 139.03l1.2 0.01v0.87h0.88v-0.89h1.23v0.89h0.88v-0.89h1.23l-0.01 2.01c0 0.31-0.24 0.52-0.53 0.52h-4.32c-0.29 0-0.56-0.24-0.56-0.53v-1.99" stroke="#000" stroke-width=".50017" fill="none"/><path id="path1531" fill-rule="evenodd" fill="#ffe805" d="m201.55 141.55l0.13 3.48h-4.13l0.12-3.48h3.88"/><path id="path1533" d="m201.55 141.55l0.13 3.48h-4.13l0.12-3.48h3.88" stroke="#000" stroke-width=".50128" fill="none"/><path id="path1535" fill-rule="evenodd" fill="#ffe805" d="m186.3 139.04l1.2 0.01v0.87h0.88v-0.89h1.23v0.89h0.88v-0.89h1.23v2.01c0 0.31-0.25 0.52-0.54 0.52h-4.32c-0.29 0-0.56-0.24-0.56-0.53v-1.99"/><path id="path1537" d="m186.3 139.04l1.2 0.01v0.87h0.88v-0.89h1.23v0.89h0.88v-0.89h1.23v2.01c0 0.31-0.25 0.52-0.54 0.52h-4.32c-0.29 0-0.56-0.24-0.56-0.53v-1.99z" stroke="#000" stroke-width=".50017" fill="none"/><path id="path1539" fill-rule="evenodd" fill="#ffe805" d="m190.94 141.56l0.13 3.48h-4.13l0.12-3.48h3.88"/><path id="path1541" d="m190.94 141.56l0.13 3.48h-4.12l0.11-3.48h3.88z" stroke="#000" stroke-width=".50128" fill="none"/><path id="path1543" fill-rule="evenodd" d="m193.9 140.61c-0.03-0.63 0.87-0.63 0.86 0v1.54h-0.86v-1.54"/><path id="path1545" fill-rule="evenodd" d="m199.21 142.83c-0.01-0.6 0.83-0.62 0.82 0v1.19h-0.82v-1.19"/><path id="path1547" fill-rule="evenodd" d="m188.57 142.84c-0.01-0.6 0.83-0.61 0.82 0v1.19h-0.82v-1.19"/><path id="path1549" fill-rule="evenodd" fill="#ffe805" d="m237.29 135.89h1.22v0.87h0.9v-0.89l1.25 0.01v0.88h0.9v-0.89h1.26v2.02c0 0.31-0.26 0.51-0.55 0.51h-4.41c-0.3 0-0.57-0.23-0.57-0.52v-1.99"/><path id="path1551" d="m237.29 135.89h1.22v0.87h0.9v-0.89l1.25 0.01v0.88h0.9v-0.89h1.26v2.01c0 0.32-0.26 0.52-0.55 0.52h-4.41c-0.3 0-0.57-0.23-0.57-0.52l-0.01-1.99h0.01z" stroke="#000" stroke-width=".50025" fill="none"/><path id="path1553" fill-rule="evenodd" fill="#ffe805" d="m241.91 138.58l0.27 6.45-4.3-0.01 0.29-6.45 3.74 0.01"/><path id="path1555" d="m241.91 138.58l0.27 6.45-4.3-0.01 0.28-6.45 3.75 0.01" stroke="#000" stroke-width=".49898" fill="none"/><path id="path1557" fill-rule="evenodd" fill="#ffe805" d="m242.62 139.04h1.2v0.88h0.88v-0.89h1.23v0.89h0.88v-0.89h1.23v2.01c0 0.31-0.25 0.52-0.54 0.52h-4.31c-0.3 0-0.56-0.24-0.56-0.53l-0.01-1.99"/><path id="path1559" d="m242.62 139.04l1.2 0.01v0.87h0.88v-0.89h1.23v0.89h0.88v-0.89h1.23v2.01c0 0.31-0.25 0.52-0.54 0.52h-4.32c-0.29 0-0.55-0.24-0.55-0.53l-0.01-1.99z" stroke="#000" stroke-width=".50017" fill="none"/><path id="path1561" fill-rule="evenodd" fill="#ffe805" d="m247.26 141.56l0.13 3.48h-4.12l0.11-3.48h3.88"/><path id="path1563" d="m247.26 141.56l0.13 3.48h-4.12l0.11-3.48h3.88z" stroke="#000" stroke-width=".50128" fill="none"/><path id="path1565" fill-rule="evenodd" fill="#ffe805" d="m232.02 139.05h1.2v0.88h0.87v-0.89h1.23v0.89h0.88v-0.89h1.23v2.01c0 0.31-0.25 0.52-0.54 0.52h-4.31c-0.29 0-0.56-0.24-0.56-0.53v-1.99"/><path id="path1567" d="m232.01 139.05h1.2v0.88h0.88v-0.89h1.23v0.89h0.88v-0.89h1.23v2.01c0 0.31-0.25 0.52-0.54 0.52h-4.31c-0.29 0-0.56-0.24-0.56-0.53l-0.01-1.99z" stroke="#000" stroke-width=".50017" fill="none"/><path id="path1569" fill-rule="evenodd" fill="#ffe805" d="m236.65 141.57l0.13 3.48h-4.12l0.11-3.48h3.88"/><path id="path1571" d="m236.65 141.57l0.14 3.48h-4.13l0.12-3.48h3.87" stroke="#000" stroke-width=".50128" fill="none"/><path id="path1573" fill-rule="evenodd" fill="#ffe805" d="m235.9 154.44c0.14-5.52 4.06-6.83 4.09-6.84 0.02-0.02 4.23 1.4 4.21 6.89l-8.3-0.05"/><path id="path1575" fill-rule="evenodd" fill="#ffe805" d="m232.52 147.69l-0.68 6.35 4.14 0.01c0.04-5.25 3.98-6.12 4.07-6.11 0.09 0 3.99 1.17 4.09 6.11h4.15l-0.74-6.39-15.03 0.03"/><path id="path1577" d="m232.52 147.69l-0.68 6.35 4.14 0.01c0.04-5.25 3.98-6.12 4.07-6.11 0.09 0 3.99 1.16 4.09 6.11h4.15l-0.75-6.39-15.02 0.03z" stroke="#000" stroke-width=".49936" fill="none"/><path id="path1579" fill-rule="evenodd" fill="#ffe805" d="m231.56 154.07h16.95c0.36 0 0.65 0.35 0.65 0.78s-0.29 0.78-0.65 0.78h-16.95c-0.35 0-0.64-0.35-0.64-0.78s0.29-0.78 0.64-0.78"/><path id="path1581" d="m231.57 154.07h16.94c0.36 0 0.65 0.35 0.65 0.78s-0.29 0.78-0.65 0.78h-16.94c-0.36 0-0.65-0.35-0.65-0.78s0.29-0.78 0.65-0.78z" stroke="#000" stroke-width=".49943" fill="none"/><path id="path1583" fill-rule="evenodd" fill="#ffe805" d="m237.73 154.04c0.02-3.31 2.26-4.25 2.27-4.25 0 0 2.34 0.97 2.36 4.25h-4.63"/><path id="path1585" d="m237.73 154.04c0.02-3.31 2.26-4.25 2.27-4.25 0 0 2.34 0.97 2.36 4.25h-4.63" stroke="#000" stroke-width=".49703" fill="none"/><path id="path1587" fill-rule="evenodd" fill="#ffe805" d="m231.92 145.06h16.25c0.34 0 0.62 0.32 0.62 0.71s-0.28 0.7-0.62 0.7h-16.25c-0.34 0-0.62-0.31-0.62-0.7s0.28-0.71 0.62-0.71"/><path id="path1589" d="m231.92 145.06h16.25c0.34 0 0.62 0.32 0.62 0.71s-0.28 0.7-0.62 0.7h-16.25c-0.34 0-0.62-0.31-0.62-0.7s0.28-0.71 0.62-0.71z" stroke="#000" stroke-width=".49901" fill="none"/><path id="path1591" fill-rule="evenodd" fill="#ffe805" d="m232.26 146.47h15.54c0.33 0 0.6 0.32 0.6 0.71s-0.27 0.7-0.6 0.7h-15.54c-0.32 0-0.59-0.31-0.59-0.7s0.27-0.71 0.59-0.71"/><path id="path1593" d="m232.26 146.47h15.54c0.33 0 0.6 0.32 0.6 0.71s-0.27 0.7-0.6 0.7h-15.54c-0.32 0-0.59-0.31-0.59-0.7s0.27-0.71 0.59-0.71z" stroke="#000" stroke-width=".49901" fill="none"/><path id="path1595" fill-rule="evenodd" d="m239.61 140.62c-0.03-0.63 0.88-0.64 0.87 0v1.54h-0.87v-1.54"/><path id="path1597" fill-rule="evenodd" d="m244.92 142.84c0-0.6 0.84-0.62 0.83 0v1.19h-0.83v-1.19"/><path id="path1599" fill-rule="evenodd" d="m234.28 142.85c0-0.6 0.84-0.62 0.83 0v1.19h-0.83v-1.19"/><path id="path1601" fill-rule="evenodd" fill="#ffe805" d="m282.49 135.92h1.23v0.87h0.89v-0.89l1.26 0.01v0.88h0.9v-0.89h1.25v2.02c0 0.31-0.25 0.51-0.55 0.51h-4.41c-0.29 0-0.57-0.23-0.57-0.52v-1.99"/><path id="path1603" d="m282.49 135.92h1.23v0.87h0.89v-0.89l1.26 0.01v0.88h0.9v-0.89h1.25v2.01c0 0.32-0.25 0.52-0.55 0.52h-4.41c-0.29 0-0.57-0.23-0.57-0.52v-1.99" stroke="#000" stroke-width=".50025" fill="none"/><path id="path1605" fill-rule="evenodd" fill="#ffe805" d="m287.11 138.61l0.28 6.45-4.3-0.01 0.28-6.45 3.74 0.01"/><path id="path1607" d="m287.11 138.61l0.28 6.45-4.31-0.01 0.29-6.45 3.74 0.01" stroke="#000" stroke-width=".49898" fill="none"/><path id="path1609" fill-rule="evenodd" fill="#ffe805" d="m287.83 139.07l1.2 0.01v0.87h0.88v-0.89h1.23v0.89h0.87v-0.89h1.23v2.01c0 0.31-0.25 0.52-0.53 0.52h-4.32c-0.29 0-0.56-0.24-0.56-0.53v-1.99"/><path id="path1611" d="m287.83 139.07l1.2 0.01v0.87h0.87v-0.89h1.23v0.89h0.88v-0.89h1.23v2.01c0 0.31-0.25 0.52-0.54 0.52h-4.31c-0.29 0-0.56-0.24-0.56-0.53v-1.99z" stroke="#000" stroke-width=".50017" fill="none"/><path id="path1613" fill-rule="evenodd" fill="#ffe805" d="m292.47 141.59l0.13 3.48h-4.13l0.12-3.48h3.88"/><path id="path1615" d="m292.47 141.59l0.13 3.48h-4.13l0.12-3.48h3.88" stroke="#000" stroke-width=".50128" fill="none"/><path id="path1617" fill-rule="evenodd" fill="#ffe805" d="m277.22 139.08l1.2 0.01v0.87h0.88v-0.89h1.23v0.89h0.88v-0.89h1.23l-0.01 2.01c0 0.31-0.24 0.52-0.53 0.52h-4.32c-0.29 0-0.56-0.24-0.56-0.53v-1.99"/><path id="path1619" d="m277.22 139.08l1.2 0.01v0.87h0.88v-0.89h1.23v0.89h0.88v-0.89h1.22v2.01c0 0.31-0.25 0.52-0.53 0.52h-4.32c-0.29 0-0.56-0.24-0.56-0.53v-1.99z" stroke="#000" stroke-width=".50017" fill="none"/><path id="path1621" fill-rule="evenodd" fill="#ffe805" d="m281.86 141.6l0.13 3.48h-4.13l0.12-3.48h3.88"/><path id="path1623" d="m281.86 141.6l0.13 3.48h-4.13l0.12-3.48h3.88" stroke="#000" stroke-width=".50128" fill="none"/><path id="path1625" fill-rule="evenodd" fill="#ffe805" d="m281.11 154.47c0.14-5.52 4.05-6.83 4.08-6.84 0.03-0.02 4.23 1.4 4.22 6.89l-8.3-0.05"/><path id="path1627" fill-rule="evenodd" fill="#ffe805" d="m277.73 147.72l-0.68 6.35 4.14 0.01c0.04-5.25 3.97-6.12 4.07-6.1 0.08-0.01 3.98 1.16 4.09 6.1h4.15l-0.75-6.39-15.02 0.03"/><path id="path1629" d="m277.73 147.72l-0.68 6.35 4.14 0.01c0.03-5.25 3.97-6.12 4.07-6.1 0.08-0.01 3.98 1.16 4.09 6.1h4.15l-0.75-6.39-15.02 0.03" stroke="#000" stroke-width=".49936" fill="none"/><path id="path1631" fill-rule="evenodd" fill="#ffe805" d="m276.77 154.1h16.94c0.36 0 0.65 0.35 0.65 0.78s-0.29 0.79-0.65 0.79h-16.94c-0.36 0-0.65-0.36-0.65-0.79s0.29-0.78 0.65-0.78"/><path id="path1633" d="m276.77 154.1h16.94c0.36 0 0.65 0.35 0.65 0.78s-0.29 0.79-0.65 0.79h-16.94c-0.36 0-0.65-0.36-0.65-0.79s0.29-0.78 0.65-0.78z" stroke="#000" stroke-width=".49943" fill="none"/><path id="path1635" fill-rule="evenodd" fill="#ffe805" d="m282.93 154.07c0.02-3.32 2.26-4.25 2.28-4.25 0 0 2.34 0.97 2.36 4.25h-4.64"/><path id="path1637" d="m282.93 154.07c0.02-3.31 2.26-4.25 2.28-4.25 0 0 2.34 0.97 2.36 4.25h-4.64" stroke="#000" stroke-width=".49703" fill="none"/><path id="path1639" fill-rule="evenodd" fill="#ffe805" d="m277.13 145.09h16.24c0.34 0 0.62 0.32 0.62 0.71s-0.28 0.7-0.62 0.7h-16.24c-0.35 0-0.63-0.31-0.63-0.7s0.28-0.71 0.63-0.71"/><path id="path1641" d="m277.13 145.09h16.24c0.34 0 0.62 0.32 0.62 0.71s-0.28 0.7-0.62 0.7h-16.24c-0.35 0-0.63-0.31-0.63-0.7s0.28-0.71 0.63-0.71z" stroke="#000" stroke-width=".49901" fill="none"/><path id="path1643" fill-rule="evenodd" fill="#ffe805" d="m277.47 146.51h15.54c0.32 0 0.59 0.31 0.59 0.7s-0.27 0.7-0.59 0.7h-15.54c-0.33 0-0.6-0.31-0.6-0.7s0.27-0.7 0.6-0.7"/><path id="path1645" d="m277.47 146.51h15.54c0.32 0 0.59 0.31 0.59 0.7s-0.27 0.7-0.59 0.7h-15.54c-0.33 0-0.6-0.31-0.6-0.7s0.27-0.7 0.6-0.7z" stroke="#000" stroke-width=".49901" fill="none"/><path id="path1647" fill-rule="evenodd" d="m284.82 140.65c-0.03-0.63 0.87-0.63 0.86 0v1.54h-0.86v-1.54"/><path id="path1649" fill-rule="evenodd" d="m290.12 142.87c0-0.6 0.84-0.62 0.83 0v1.19h-0.83v-1.19"/><path id="path1651" fill-rule="evenodd" d="m279.48 142.88c0-0.6 0.84-0.62 0.83 0v1.19h-0.83v-1.19"/><path id="path1653" fill-rule="evenodd" fill="#ffe805" d="m191.59 182.19h1.23v0.88h0.9v-0.9l1.25 0.01v0.89h0.9v-0.89h1.26v2.01c0 0.31-0.26 0.52-0.55 0.52h-4.41c-0.3 0-0.57-0.24-0.57-0.53l-0.01-1.99"/><path id="path1655" d="m191.6 182.19h1.22v0.88h0.9v-0.89h1.25v0.89h0.9v-0.89h1.26v2.01c0 0.31-0.26 0.52-0.55 0.52h-4.41c-0.3 0-0.57-0.24-0.57-0.53l-0.01-1.99h0.01z" stroke="#000" stroke-width=".46223" fill="none"/><path id="path1657" fill-rule="evenodd" fill="#ffe805" d="m196.22 184.88l0.27 6.45-4.3-0.01 0.28-6.45 3.75 0.01"/><path id="path1659" d="m196.22 184.88l0.27 6.45-4.3-0.01 0.28-6.45 3.75 0.01" stroke="#000" stroke-width=".49581" fill="none"/><path id="path1661" fill-rule="evenodd" fill="#ffe805" d="m196.93 185.35h1.2v0.87h0.88v-0.89h1.23v0.89h0.88v-0.89h1.23v2.01c0 0.31-0.25 0.52-0.54 0.52h-4.32c-0.28 0-0.55-0.24-0.55-0.53l-0.01-1.98"/><path id="path1663" d="m196.93 185.35h1.2v0.87h0.88v-0.89h1.23v0.89h0.88v-0.89h1.23v2.01c0 0.31-0.25 0.52-0.54 0.52h-4.31c-0.29 0-0.56-0.24-0.56-0.53v-1.98h-0.01z" stroke="#000" stroke-width=".47098" fill="none"/><path id="path1665" fill-rule="evenodd" fill="#ffe805" d="m201.57 187.86l0.13 3.48h-4.12l0.11-3.48h3.88"/><path id="path1667" d="m201.57 187.86l0.13 3.48h-4.12l0.11-3.48h3.88" stroke="#000" stroke-width=".46328" fill="none"/><path id="path1669" fill-rule="evenodd" fill="#ffe805" d="m186.33 185.35l1.2 0.01v0.87h0.87v-0.89h1.23v0.89h0.88v-0.89h1.23v2.01c0 0.31-0.25 0.52-0.54 0.52h-4.31c-0.29 0-0.56-0.24-0.56-0.53v-1.99"/><path id="path1671" d="m186.33 185.35l1.2 0.01v0.87h0.87v-0.89h1.23v0.89h0.88v-0.89h1.23v2.01c0 0.31-0.25 0.52-0.54 0.52h-4.31c-0.29 0-0.56-0.24-0.56-0.53v-1.99z" stroke="#000" stroke-width=".47098" fill="none"/><path id="path1673" fill-rule="evenodd" fill="#ffe805" d="m190.96 187.87l0.13 3.48h-4.12l0.11-3.48h3.88"/><path id="path1675" d="m190.96 187.87l0.13 3.48h-4.12l0.11-3.48h3.88z" stroke="#000" stroke-width=".46328" fill="none"/><path id="path1677" fill-rule="evenodd" fill="#ffe805" d="m190.21 200.74c0.14-5.52 4.06-6.83 4.08-6.84 0.03-0.02 4.24 1.4 4.22 6.9l-8.3-0.06"/><path id="path1679" fill-rule="evenodd" fill="#ffe805" d="m186.83 194l-0.68 6.34 4.14 0.01c0.04-5.25 3.98-6.12 4.07-6.1 0.09-0.01 3.99 1.16 4.09 6.1h4.15l-0.74-6.39-15.03 0.04"/><path id="path1681" d="m186.83 194l-0.68 6.34 4.14 0.01c0.04-5.25 3.98-6.12 4.07-6.1 0.09-0.01 3.99 1.16 4.09 6.1h4.16l-0.75-6.39-15.03 0.03v0.01z" stroke="#000" stroke-width=".49620" fill="none"/><path id="path1683" fill-rule="evenodd" fill="#ffe805" d="m185.87 200.37h16.95c0.36 0 0.65 0.35 0.65 0.78 0 0.44-0.29 0.79-0.65 0.79h-16.95c-0.35 0-0.65-0.35-0.65-0.79 0-0.43 0.3-0.78 0.65-0.78"/><path id="path1685" d="m185.87 200.37h16.95c0.36 0 0.65 0.35 0.65 0.78 0 0.44-0.29 0.79-0.65 0.79h-16.95c-0.35 0-0.65-0.36-0.65-0.79s0.3-0.78 0.65-0.78z" stroke="#000" stroke-width=".49621" fill="none"/><path id="path1687" fill-rule="evenodd" fill="#ffe805" d="m192.04 200.34c0.02-3.31 2.26-4.25 2.27-4.25 0 0 2.34 0.97 2.36 4.25h-4.63"/><path id="path1689" d="m192.04 200.34c0.02-3.31 2.26-4.25 2.27-4.25 0 0 2.34 0.97 2.36 4.25h-4.63" stroke="#000" stroke-width=".49077" fill="none"/><path id="path1691" fill-rule="evenodd" fill="#ffe805" d="m186.23 191.37h16.25c0.34 0 0.62 0.31 0.62 0.7s-0.28 0.7-0.62 0.7h-16.25c-0.34 0-0.62-0.31-0.62-0.7s0.28-0.7 0.62-0.7"/><path id="path1693" d="m186.23 191.37h16.24c0.35 0 0.63 0.31 0.63 0.7s-0.28 0.7-0.63 0.7h-16.24c-0.34 0-0.62-0.31-0.62-0.7s0.28-0.7 0.62-0.7z" stroke="#000" stroke-width=".49580" fill="none"/><path id="path1695" fill-rule="evenodd" fill="#ffe805" d="m186.57 192.78h15.54c0.33 0 0.6 0.31 0.6 0.7s-0.27 0.7-0.6 0.7h-15.54c-0.32 0-0.59-0.31-0.59-0.7s0.27-0.7 0.59-0.7"/><path id="path1697" d="m186.57 192.78h15.54c0.33 0 0.6 0.31 0.6 0.7s-0.27 0.7-0.6 0.7h-15.54c-0.32 0-0.59-0.31-0.59-0.7s0.27-0.7 0.59-0.7z" stroke="#000" stroke-width=".49580" fill="none"/><path id="path1699" fill-rule="evenodd" d="m193.92 186.92c-0.03-0.63 0.88-0.63 0.87 0v1.54h-0.87v-1.54"/><path id="path1701" fill-rule="evenodd" d="m199.23 189.14c0-0.6 0.84-0.62 0.83 0v1.19h-0.83v-1.19"/><path id="path1703" fill-rule="evenodd" d="m188.59 189.16c0-0.61 0.83-0.62 0.82 0v1.18h-0.82v-1.18"/><path id="path1705" fill-rule="evenodd" fill="#ffe805" d="m279.82 231.05l0.87 0.87-0.62 0.61 0.64 0.64 0.63-0.63 0.88 0.89-0.63 0.62 0.64 0.64 0.63-0.63 0.89 0.89-1.43 1.42c-0.22 0.22-0.54 0.19-0.75-0.02l-3.12-3.12c-0.21-0.21-0.24-0.57-0.03-0.78l1.4-1.4"/><path id="path1707" d="m279.82 231.05l0.87 0.87-0.62 0.61 0.64 0.64 0.63-0.63 0.88 0.89-0.62 0.62 0.63 0.64 0.63-0.63 0.89 0.89-1.42 1.42c-0.23 0.22-0.55 0.19-0.76-0.02l-3.12-3.12c-0.21-0.21-0.23-0.57-0.03-0.77l1.41-1.41h-0.01z" stroke="#000" stroke-width=".50030" fill="none"/><path id="path1709" fill-rule="evenodd" fill="#ffe805" d="m281.19 236.22l-4.37 4.76-3.03-3.06 4.76-4.36 2.64 2.66"/><path id="path1711" d="m281.19 236.22l-4.37 4.76-3.03-3.06 4.76-4.36 2.64 2.66" stroke="#000" stroke-width=".50444" fill="none"/><path id="path1713" fill-rule="evenodd" fill="#ffe805" d="m281.37 237.05l0.85 0.85-0.62 0.62 0.62 0.62 0.63-0.63 0.87 0.87-0.63 0.63 0.62 0.62 0.63-0.63 0.87 0.87-1.42 1.42c-0.23 0.22-0.55 0.19-0.75-0.01l-3.05-3.06c-0.21-0.2-0.23-0.56-0.02-0.76l1.4-1.41"/><path id="path1715" d="m281.37 237.05l0.85 0.85-0.62 0.62 0.62 0.62 0.63-0.63 0.87 0.87-0.63 0.63 0.62 0.62 0.63-0.63 0.87 0.87-1.42 1.42c-0.23 0.22-0.55 0.19-0.75-0.01l-3.05-3.05c-0.21-0.21-0.23-0.57-0.03-0.77l1.41-1.41z" stroke="#000" stroke-width=".50053" fill="none"/><path id="path1717" fill-rule="evenodd" fill="#ffe805" d="m282.87 242.11l-2.37 2.55-2.92-2.91 2.55-2.38 2.74 2.74"/><path id="path1719" d="m282.87 242.11l-2.37 2.55-2.92-2.91 2.55-2.38 2.74 2.74" stroke="#000" stroke-width=".50131" fill="none"/><path id="path1721" fill-rule="evenodd" fill="#ffe805" d="m273.86 229.56l0.85 0.85-0.62 0.62 0.62 0.62 0.63-0.64 0.87 0.88-0.63 0.63 0.62 0.62 0.63-0.63 0.87 0.87-1.42 1.42c-0.22 0.22-0.54 0.19-0.75-0.01l-3.05-3.06c-0.21-0.2-0.23-0.56-0.02-0.76l1.4-1.41"/><path id="path1723" d="m273.86 229.56l0.85 0.85-0.62 0.62 0.62 0.62 0.63-0.63 0.87 0.87-0.63 0.63 0.62 0.62 0.63-0.63 0.87 0.87-1.42 1.42c-0.23 0.22-0.55 0.19-0.75-0.01l-3.05-3.06c-0.21-0.2-0.23-0.56-0.03-0.76l1.41-1.41z" stroke="#000" stroke-width=".50053" fill="none"/><path id="path1725" fill-rule="evenodd" fill="#ffe805" d="m275.36 234.62l-2.36 2.55-2.92-2.92 2.54-2.38 2.74 2.75"/><path id="path1727" d="m275.36 234.62l-2.36 2.55-2.92-2.92 2.54-2.38 2.74 2.75z" stroke="#000" stroke-width=".50131" fill="none"/><path id="path1729" fill-rule="evenodd" fill="#ffe805" d="m265.73 243.19c4-3.81 7.69-1.96 7.73-1.96 0.03 0.01 1.99 3.99-1.9 7.86l-5.83-5.9"/><path id="path1731" fill-rule="evenodd" fill="#ffe805" d="m268.11 236.03l-4.97 4 2.92 2.94c3.74-3.69 7.14-1.52 7.19-1.44 0.07 0.06 2.01 3.64-1.42 7.21l2.94 2.93 3.99-5.05-10.65-10.59"/><path id="path1733" d="m268.11 236.03l-4.97 4 2.92 2.93c3.74-3.68 7.14-1.51 7.19-1.43 0.07 0.05 2.01 3.64-1.42 7.21l2.94 2.93 3.99-5.05-10.65-10.59" stroke="#000" stroke-width=".49934" fill="none"/><path id="path1735" fill-rule="evenodd" fill="#ffe805" d="m262.92 239.86l11.99 11.98c0.25 0.25 0.21 0.71-0.1 1.01-0.3 0.31-0.76 0.35-1.01 0.1l-11.98-11.99c-0.26-0.25-0.21-0.7 0.09-1.01 0.31-0.3 0.76-0.34 1.01-0.09"/><path id="path1737" d="m262.92 239.86l11.99 11.98c0.25 0.25 0.21 0.71-0.1 1.01-0.3 0.31-0.76 0.35-1.01 0.1l-11.98-11.99c-0.26-0.25-0.21-0.7 0.09-1.01 0.31-0.3 0.76-0.34 1.01-0.09z" stroke="#000" stroke-width=".50262" fill="none"/><path id="path1739" fill-rule="evenodd" fill="#ffe805" d="m267.3 244.19c2.36-2.33 4.61-1.4 4.61-1.39 0.01 0 0.98 2.34-1.33 4.67l-3.28-3.28"/><path id="path1741" d="m267.3 244.19c2.36-2.33 4.61-1.4 4.62-1.39 0 0 0.97 2.34-1.34 4.67l-3.27-3.28h-0.01z" stroke="#000" stroke-width=".49653" fill="none"/><path id="path1743" fill-rule="evenodd" fill="#ffe805" d="m269.54 233.74l11.49 11.49c0.24 0.24 0.22 0.66-0.06 0.94-0.27 0.27-0.69 0.3-0.94 0.05l-11.48-11.48c-0.24-0.24-0.22-0.67 0.06-0.94 0.27-0.27 0.69-0.3 0.93-0.06"/><path id="path1745" d="m269.54 233.74l11.49 11.49c0.24 0.24 0.22 0.66-0.06 0.94-0.27 0.27-0.69 0.3-0.94 0.05l-11.48-11.48c-0.24-0.24-0.22-0.67 0.06-0.94 0.27-0.27 0.69-0.3 0.93-0.06z" stroke="#000" stroke-width=".49901" fill="none"/><path id="path1747" fill-rule="evenodd" fill="#ffe805" d="m268.79 234.98l10.99 10.99c0.23 0.23 0.19 0.65-0.08 0.92s-0.69 0.31-0.92 0.08l-10.99-10.99c-0.23-0.23-0.19-0.65 0.08-0.92s0.69-0.31 0.92-0.08"/><path id="path1749" d="m268.79 234.98l10.99 10.99c0.23 0.23 0.19 0.64-0.08 0.92-0.27 0.27-0.69 0.31-0.92 0.08l-10.99-10.99c-0.23-0.24-0.2-0.65 0.08-0.92 0.27-0.28 0.69-0.31 0.92-0.08z" stroke="#000" stroke-width=".49901" fill="none"/><path id="path1751" fill-rule="evenodd" d="m278.12 235.9c0.43-0.46 1.07 0.18 0.62 0.61l-1.09 1.09-0.61-0.61 1.08-1.09"/><path id="path1753" fill-rule="evenodd" d="m280.31 241.23c0.42-0.43 1.03 0.15 0.58 0.58l-0.84 0.84-0.58-0.58 0.84-0.84"/><path id="path1755" fill-rule="evenodd" d="m272.77 233.71c0.43-0.43 1.03 0.16 0.59 0.59l-0.84 0.84-0.58-0.59 0.83-0.84"/><path id="path1757" fill-rule="evenodd" fill="#ffe805" d="m282.42 182.2h1.23v0.87h0.89v-0.89l1.26 0.01v0.88h0.9v-0.89l1.26 0.01-0.01 2.01c0 0.31-0.25 0.52-0.54 0.52h-4.41c-0.3 0-0.58-0.24-0.58-0.53v-1.99"/><path id="path1759" d="m282.42 182.2h1.23v0.87h0.89v-0.89l1.26 0.01v0.88h0.9v-0.89h1.26l-0.01 2.02c0 0.31-0.25 0.52-0.55 0.52h-4.41c-0.29 0-0.57-0.24-0.57-0.53v-1.99z" stroke="#000" stroke-width=".50025" fill="none"/><path id="path1761" fill-rule="evenodd" fill="#ffe805" d="m287.04 184.89l0.28 6.45-4.3-0.01 0.28-6.45 3.74 0.01"/><path id="path1763" d="m287.04 184.89l0.28 6.45-4.3-0.01 0.28-6.45 3.74 0.01" stroke="#000" stroke-width=".49898" fill="none"/><path id="path1765" fill-rule="evenodd" fill="#ffe805" d="m287.76 185.35l1.2 0.01v0.87h0.88v-0.89h1.23v0.89h0.88v-0.89h1.23l-0.01 2.01c0 0.31-0.24 0.52-0.53 0.52h-4.32c-0.29 0-0.56-0.24-0.56-0.53v-1.99"/><path id="path1767" d="m287.76 185.35l1.2 0.01v0.87h0.88v-0.89h1.23v0.89h0.87v-0.89h1.24l-0.01 2.01c0 0.31-0.25 0.52-0.53 0.52h-4.32c-0.29 0-0.56-0.24-0.56-0.53v-1.99z" stroke="#000" stroke-width=".50017" fill="none"/><path id="path1769" fill-rule="evenodd" fill="#ffe805" d="m292.4 187.87l0.13 3.48h-4.13l0.12-3.48h3.88"/><path id="path1771" d="m292.4 187.87l0.13 3.48h-4.13l0.12-3.48h3.88z" stroke="#000" stroke-width=".50128" fill="none"/><path id="path1773" fill-rule="evenodd" fill="#ffe805" d="m277.15 185.36l1.2 0.01v0.87h0.88v-0.89h1.23v0.89h0.88v-0.89h1.23v2.01c0 0.31-0.25 0.52-0.54 0.52h-4.32c-0.29 0-0.55-0.24-0.56-0.53v-1.99"/><path id="path1775" d="m277.15 185.36l1.2 0.01v0.87h0.88v-0.89h1.23v0.89h0.88v-0.89h1.23l-0.01 2.01c0 0.31-0.24 0.52-0.53 0.52h-4.32c-0.29 0-0.56-0.24-0.56-0.53v-1.99" stroke="#000" stroke-width=".50017" fill="none"/><path id="path1777" fill-rule="evenodd" fill="#ffe805" d="m281.79 187.88l0.13 3.48h-4.13l0.12-3.48h3.88"/><path id="path1779" d="m281.79 187.88l0.13 3.48h-4.13l0.12-3.48h3.88" stroke="#000" stroke-width=".50128" fill="none"/><path id="path1781" fill-rule="evenodd" fill="#ffe805" d="m281.04 200.75c0.14-5.52 4.05-6.83 4.08-6.84 0.03-0.02 4.23 1.4 4.22 6.89l-8.3-0.05"/><path id="path1783" fill-rule="evenodd" fill="#ffe805" d="m277.66 194.01l-0.68 6.34 4.14 0.01c0.04-5.25 3.97-6.12 4.07-6.1 0.09-0.01 3.99 1.16 4.09 6.1h4.15l-0.75-6.39-15.02 0.04"/><path id="path1785" d="m277.66 194l-0.68 6.35 4.14 0.01c0.04-5.25 3.97-6.12 4.07-6.1 0.09-0.01 3.98 1.16 4.09 6.1h4.15l-0.75-6.39-15.02 0.03z" stroke="#000" stroke-width=".49936" fill="none"/><path id="path1787" fill-rule="evenodd" fill="#ffe805" d="m276.7 200.38h16.95c0.35 0 0.65 0.35 0.65 0.78s-0.3 0.79-0.65 0.79h-16.95c-0.36 0-0.65-0.36-0.65-0.79s0.29-0.78 0.65-0.78"/><path id="path1789" d="m276.7 200.38h16.95c0.35 0 0.65 0.35 0.65 0.78s-0.3 0.79-0.65 0.79h-16.95c-0.36 0-0.65-0.36-0.65-0.79s0.29-0.78 0.65-0.78z" stroke="#000" stroke-width=".49943" fill="none"/><path id="path1791" fill-rule="evenodd" fill="#ffe805" d="m282.86 200.35c0.02-3.31 2.27-4.25 2.28-4.25 0 0 2.34 0.97 2.36 4.25h-4.64"/><path id="path1793" d="m282.86 200.35c0.02-3.31 2.27-4.25 2.28-4.25 0 0 2.34 0.97 2.36 4.25h-4.64" stroke="#000" stroke-width=".49703" fill="none"/><path id="path1795" fill-rule="evenodd" fill="#ffe805" d="m277.06 191.37h16.24c0.34 0 0.62 0.32 0.62 0.71s-0.28 0.7-0.62 0.7h-16.24c-0.34 0-0.63-0.31-0.63-0.7s0.29-0.71 0.63-0.71"/><path id="path1797" d="m277.06 191.38h16.24c0.34 0 0.62 0.31 0.62 0.7s-0.28 0.7-0.62 0.7h-16.24c-0.34 0-0.63-0.31-0.63-0.7s0.29-0.7 0.63-0.7z" stroke="#000" stroke-width=".49901" fill="none"/><path id="path1799" fill-rule="evenodd" fill="#ffe805" d="m277.4 192.78h15.54c0.33 0 0.59 0.32 0.59 0.71s-0.26 0.7-0.59 0.7h-15.54c-0.33 0-0.59-0.31-0.59-0.7s0.26-0.71 0.59-0.71"/><path id="path1801" d="m277.4 192.79h15.54c0.33 0 0.59 0.31 0.59 0.7s-0.26 0.71-0.59 0.71h-15.54c-0.33 0-0.6-0.32-0.6-0.71s0.27-0.7 0.6-0.7z" stroke="#000" stroke-width=".49901" fill="none"/><path id="path1803" fill-rule="evenodd" d="m284.75 186.93c-0.03-0.63 0.87-0.63 0.86 0v1.54h-0.86v-1.54"/><path id="path1805" fill-rule="evenodd" d="m290.06 189.15c-0.01-0.6 0.83-0.62 0.82 0v1.19h-0.82v-1.19"/><path id="path1807" fill-rule="evenodd" d="m279.42 189.16c-0.01-0.6 0.83-0.62 0.82 0v1.19h-0.82v-1.19"/><path id="path1809" fill-rule="evenodd" fill="#ffe805" d="m196.08 234.88l0.87-0.87 0.61 0.62 0.64-0.63-0.63-0.63 0.89-0.89 0.63 0.63 0.63-0.64-0.63-0.63 0.89-0.89 1.42 1.43c0.22 0.22 0.19 0.55-0.02 0.75l-3.12 3.12c-0.21 0.21-0.57 0.24-0.77 0.03l-1.41-1.4"/><path id="path1811" d="m196.08 234.88l0.87-0.86 0.61 0.61 0.64-0.63-0.63-0.63 0.89-0.89 0.63 0.63 0.63-0.64-0.63-0.63 0.89-0.88 1.42 1.42c0.22 0.22 0.19 0.55-0.02 0.76l-3.12 3.11c-0.21 0.21-0.57 0.24-0.77 0.04l-1.41-1.41z" stroke="#000" stroke-width=".50020" fill="none"/><path id="path1813" fill-rule="evenodd" fill="#ffe805" d="m201.25 233.52l4.76 4.36-3.06 3.03-4.36-4.76 2.66-2.63"/><path id="path1815" d="m201.25 233.52l4.76 4.36-3.06 3.03-4.36-4.76 2.66-2.63" stroke="#000" stroke-width=".49898" fill="none"/><path id="path1817" fill-rule="evenodd" fill="#ffe805" d="m202.08 233.34l0.85-0.85 0.62 0.62 0.62-0.62-0.63-0.63 0.87-0.87 0.63 0.62 0.62-0.62-0.63-0.63 0.87-0.87 1.42 1.43c0.22 0.22 0.19 0.54-0.01 0.74l-3.05 3.06c-0.21 0.2-0.57 0.22-0.77 0.02l-1.41-1.4"/><path id="path1819" d="m202.08 233.34l0.85-0.85 0.62 0.61 0.62-0.61-0.63-0.63 0.87-0.87 0.63 0.63 0.62-0.63-0.63-0.63 0.87-0.87 1.42 1.43c0.22 0.22 0.19 0.54-0.01 0.74l-3.05 3.06c-0.21 0.2-0.56 0.22-0.77 0.02l-1.41-1.4z" stroke="#000" stroke-width=".50012" fill="none"/><path id="path1821" fill-rule="evenodd" fill="#ffe805" d="m207.14 231.84l2.55 2.36-2.91 2.92-2.38-2.54 2.74-2.74"/><path id="path1823" d="m207.14 231.83l2.55 2.37-2.91 2.92-2.38-2.54 2.74-2.75" stroke="#000" stroke-width=".50131" fill="none"/><path id="path1825" fill-rule="evenodd" fill="#ffe805" d="m194.59 240.84l0.85-0.84 0.62 0.61 0.62-0.62-0.64-0.63 0.88-0.86 0.62 0.62 0.63-0.62-0.63-0.63 0.87-0.87 1.42 1.43c0.22 0.22 0.19 0.54-0.02 0.74l-3.05 3.05c-0.2 0.21-0.56 0.23-0.77 0.03l-1.4-1.41"/><path id="path1827" d="m194.59 240.84l0.85-0.84 0.62 0.61 0.61-0.62-0.63-0.63 0.88-0.86 0.62 0.62 0.63-0.62-0.63-0.63 0.87-0.87 1.42 1.43c0.22 0.22 0.19 0.54-0.01 0.74l-3.06 3.06c-0.2 0.2-0.56 0.22-0.76 0.02l-1.41-1.41" stroke="#000" stroke-width=".50012" fill="none"/><path id="path1829" fill-rule="evenodd" fill="#ffe805" d="m199.65 239.34l2.55 2.37-2.92 2.92-2.38-2.54 2.75-2.75"/><path id="path1831" d="m199.65 239.34l2.55 2.37-2.92 2.92-2.38-2.54 2.75-2.75" stroke="#000" stroke-width=".50131" fill="none"/><path id="path1833" fill-rule="evenodd" fill="#ffe805" d="m208.22 248.98c-3.81-4-1.96-7.7-1.95-7.73 0-0.04 3.98-2 7.86 1.9l-5.91 5.83"/><path id="path1835" fill-rule="evenodd" fill="#ffe805" d="m201.06 246.6l4 4.97 2.94-2.93c-3.69-3.74-1.52-7.14-1.44-7.19 0.06-0.07 3.64-2 7.21 1.42l2.93-2.93-5.05-3.99-10.59 10.65"/><path id="path1837" d="m201.06 246.6l4 4.97 2.94-2.93c-3.69-3.74-1.52-7.14-1.44-7.19 0.06-0.07 3.64-2 7.21 1.42l2.93-2.93-5.05-3.99-10.59 10.65z" stroke="#000" stroke-width=".49931" fill="none"/><path id="path1839" fill-rule="evenodd" fill="#ffe805" d="m204.89 251.78l11.98-11.98c0.25-0.25 0.71-0.21 1.01 0.09 0.31 0.31 0.35 0.76 0.1 1.02l-11.98 11.98c-0.26 0.25-0.71 0.21-1.02-0.1-0.3-0.3-0.35-0.75-0.09-1.01"/><path id="path1841" d="m204.89 251.78l11.98-11.98c0.25-0.25 0.71-0.21 1.01 0.09 0.31 0.31 0.35 0.76 0.1 1.02l-11.99 11.98c-0.25 0.25-0.7 0.21-1.01-0.1-0.3-0.3-0.35-0.76-0.09-1.01z" stroke="#000" stroke-width=".49941" fill="none"/><path id="path1843" fill-rule="evenodd" fill="#ffe805" d="m209.22 247.4c-2.33-2.36-1.4-4.6-1.39-4.61 0 0 2.34-0.97 4.67 1.34l-3.28 3.27"/><path id="path1845" d="m209.22 247.4c-2.33-2.35-1.4-4.6-1.39-4.61 0 0 2.34-0.97 4.67 1.34l-3.28 3.27" stroke="#000" stroke-width=".49705" fill="none"/><path id="path1847" fill-rule="evenodd" fill="#ffe805" d="m198.77 245.16l11.49-11.49c0.24-0.24 0.66-0.21 0.94 0.06 0.27 0.27 0.3 0.7 0.06 0.94l-11.49 11.49c-0.24 0.24-0.67 0.21-0.94-0.06s-0.3-0.7-0.06-0.94"/><path id="path1849" d="m198.77 245.16l11.49-11.49c0.24-0.24 0.66-0.21 0.94 0.06 0.27 0.27 0.3 0.7 0.05 0.94l-11.48 11.49c-0.24 0.24-0.67 0.21-0.94-0.06s-0.3-0.7-0.06-0.94z" stroke="#000" stroke-width=".49901" fill="none"/><path id="path1851" fill-rule="evenodd" fill="#ffe805" d="m200.01 245.92l10.99-10.99c0.23-0.23 0.65-0.2 0.92 0.07 0.27 0.28 0.31 0.69 0.08 0.92l-10.99 10.99c-0.23 0.23-0.65 0.2-0.92-0.08-0.27-0.27-0.31-0.68-0.08-0.92"/><path id="path1853" d="m200.01 245.92l10.99-10.99c0.23-0.23 0.64-0.2 0.92 0.07 0.27 0.28 0.31 0.69 0.08 0.92l-10.99 10.99c-0.23 0.23-0.65 0.2-0.92-0.08-0.28-0.27-0.31-0.68-0.08-0.91z" stroke="#000" stroke-width=".49901" fill="none"/><path id="path1855" fill-rule="evenodd" d="m201.07 236.45c-0.47-0.43 0.17-1.07 0.61-0.61l1.09 1.08-0.62 0.61-1.08-1.08"/><path id="path1857" fill-rule="evenodd" d="m206.39 234.27c-0.43-0.43 0.16-1.03 0.59-0.59l0.84 0.84-0.59 0.59-0.84-0.84"/><path id="path1859" fill-rule="evenodd" d="m198.88 241.8c-0.43-0.43 0.15-1.03 0.58-0.59l0.84 0.84-0.58 0.59-0.84-0.84"/></g></g><g id="layer4"><path id="path5924" d="m248.36 206.96c-80.24-42.45-160.48 51.38-240.72 8.93 0.0002-55.62 0.0002-111.64 0.0002-167.26 80.342 41.533 161.7-50.661 240.72-8.515v166.84z" fill="url(#linearGradient5056)"/></g></g></svg>
