<?xml version="1.0" encoding="UTF-8" standalone="no"?>
<!-- Created with Inkscape (http://www.inkscape.org/) -->
<svg
   xmlns:a="http://ns.adobe.com/AdobeSVGViewerExtensions/3.0/"
   xmlns:dc="http://purl.org/dc/elements/1.1/"
   xmlns:cc="http://web.resource.org/cc/"
   xmlns:rdf="http://www.w3.org/1999/02/22-rdf-syntax-ns#"
   xmlns:svg="http://www.w3.org/2000/svg"
   xmlns="http://www.w3.org/2000/svg"
   xmlns:xlink="http://www.w3.org/1999/xlink"
   xmlns:sodipodi="http://sodipodi.sourceforge.net/DTD/sodipodi-0.dtd"
   xmlns:inkscape="http://www.inkscape.org/namespaces/inkscape"
   version="1.0"
   width="48pt"
   height="48pt"
   viewBox="0 0 256 256"
   id="svg2"
   xml:space="preserve"
   sodipodi:version="0.32"
   inkscape:version="0.45.1"
   sodipodi:docname="Nuvola_Slovenian_flag.svg"
   sodipodi:docbase="F:\Bubini dokumenti\ustavni-zakoni za provedbu\Slovenija"
   inkscape:output_extension="org.inkscape.output.svg.inkscape"><metadata
   id="metadata45"><rdf:RDF><cc:Work
       rdf:about=""><dc:format>image/svg+xml</dc:format><dc:type
         rdf:resource="http://purl.org/dc/dcmitype/StillImage" /></cc:Work></rdf:RDF></metadata><sodipodi:namedview
   inkscape:window-height="774"
   inkscape:window-width="1272"
   inkscape:pageshadow="2"
   inkscape:pageopacity="0.0"
   guidetolerance="10.0"
   gridtolerance="10.0"
   objecttolerance="10.0"
   borderopacity="1.0"
   bordercolor="#666666"
   pagecolor="#ffffff"
   id="base"
   inkscape:zoom="9.8069007"
   inkscape:cx="55.258152"
   inkscape:cy="34.279858"
   inkscape:window-x="0"
   inkscape:window-y="0"
   inkscape:current-layer="g9853" /><defs
   id="defs271"><linearGradient
     x1="87.396973"
     y1="141.97266"
     x2="240.94727"
     y2="141.97266"
     id="XMLID_22_"
     gradientUnits="userSpaceOnUse"
     gradientTransform="matrix(1.567692,0,0,1.567692,-129.3706,-94.56783)">
								<stop
   style="stop-color:#ffffff;stop-opacity:0.66666675"
   offset="0"
   id="stop139" />
								
								<stop
   style="stop-color:#d7d7d7;stop-opacity:0.21875"
   offset="0.24074516"
   id="stop143" />
								<stop
   style="stop-color:#4d4d4d;stop-opacity:0"
   offset="0.4585622"
   id="stop145" /><stop
   style="stop-color:#ffffff;stop-opacity:0.51041669"
   offset="0.71891773"
   id="stop3696" /><stop
   style="stop-color:#f2f2f2;stop-opacity:0.40000001"
   offset="0.87351298"
   id="stop2807" /><stop
   style="stop-color:#ffffff;stop-opacity:0.62352943"
   offset="1"
   id="stop3694" />
								
								
								<a:midPointStop
   style="stop-color:#E9E9EF"
   offset="0" />
								<a:midPointStop
   style="stop-color:#E9E9EF"
   offset="0.5" />
								<a:midPointStop
   style="stop-color:#B1B1C5"
   offset="0.157303" />
								<a:midPointStop
   style="stop-color:#B1B1C5"
   offset="0.5" />
								<a:midPointStop
   style="stop-color:#CECEDB"
   offset="0.314607" />
								<a:midPointStop
   style="stop-color:#CECEDB"
   offset="0.5" />
								<a:midPointStop
   style="stop-color:#FFFFFF"
   offset="0.65" />
								<a:midPointStop
   style="stop-color:#FFFFFF"
   offset="0.5" />
								<a:midPointStop
   style="stop-color:#CECEDB"
   offset="0.837079" />
								<a:midPointStop
   style="stop-color:#CECEDB"
   offset="0.5" />
								<a:midPointStop
   style="stop-color:#FFFF66"
   offset="1" />
							</linearGradient><linearGradient
     gradientTransform="matrix(1.567692,0,0,1.567692,-69.82581,15.22741)"
     gradientUnits="userSpaceOnUse"
     id="XMLID_17_"
     y2="112.30453"
     x2="126.18921"
     y1="39.617504"
     x1="126.18921">
								<stop
   id="stop18"
   offset="0"
   style="stop-color:#c200be;stop-opacity:1;" />
								<stop
   id="stop20"
   offset="0.19460699"
   style="stop-color:#c200be;stop-opacity:1;" />
								<stop
   id="stop22"
   offset="0.31460699"
   style="stop-color:#1000ae;stop-opacity:1;" />
								<stop
   id="stop24"
   offset="0.72999996"
   style="stop-color:#1000ae;stop-opacity:1;" />
								<stop
   id="stop26"
   offset="0.85707897"
   style="stop-color:#00dab6;stop-opacity:1;" />
								<stop
   id="stop28"
   offset="1"
   style="stop-color:#00dab6;stop-opacity:1;" />
								<a:midPointStop
   offset="0"
   style="stop-color:#CF0000" />
								<a:midPointStop
   offset="0.5"
   style="stop-color:#CF0000" />
								<a:midPointStop
   offset="0.157303"
   style="stop-color:#7C0000" />
								<a:midPointStop
   offset="0.5"
   style="stop-color:#7C0000" />
								<a:midPointStop
   offset="0.314607"
   style="stop-color:#CF0000" />
								<a:midPointStop
   offset="0.5"
   style="stop-color:#CF0000" />
								<a:midPointStop
   offset="0.65"
   style="stop-color:#B80000" />
								<a:midPointStop
   offset="0.5"
   style="stop-color:#B80000" />
								<a:midPointStop
   offset="0.837079"
   style="stop-color:#CF0000" />
								<a:midPointStop
   offset="0.5"
   style="stop-color:#CF0000" />
								<a:midPointStop
   offset="1"
   style="stop-color:#FF0000" />
							</linearGradient><linearGradient
     inkscape:collect="always"
     xlink:href="#XMLID_17_"
     id="linearGradient7085"
     x1="133.17909"
     y1="151.1393"
     x2="132.62358"
     y2="123.21392"
     gradientUnits="userSpaceOnUse" /><linearGradient
     gradientTransform="matrix(1.567692,0,0,1.567692,-69.82581,15.22741)"
     x1="126.18921"
     y1="38.575397"
     x2="126.18921"
     y2="108.1361"
     id="linearGradient8687"
     gradientUnits="userSpaceOnUse">
								<stop
   style="stop-color:white;stop-opacity:1;"
   offset="0"
   id="stop8689" />
								<stop
   style="stop-color:white;stop-opacity:1;"
   offset="0.15730301"
   id="stop8691" />
								<stop
   style="stop-color:#0066e6;stop-opacity:1;"
   offset="0.31460699"
   id="stop8693" />
								<stop
   style="stop-color:#0066e6;stop-opacity:1;"
   offset="0.64999998"
   id="stop8695" />
								<stop
   style="stop-color:red;stop-opacity:1;"
   offset="0.83707899"
   id="stop8697" />
								<stop
   style="stop-color:red;stop-opacity:1;"
   offset="1"
   id="stop8699" />
								<a:midPointStop
   style="stop-color:#CF0000"
   offset="0" />
								<a:midPointStop
   style="stop-color:#CF0000"
   offset="0.5" />
								<a:midPointStop
   style="stop-color:#7C0000"
   offset="0.157303" />
								<a:midPointStop
   style="stop-color:#7C0000"
   offset="0.5" />
								<a:midPointStop
   style="stop-color:#CF0000"
   offset="0.314607" />
								<a:midPointStop
   style="stop-color:#CF0000"
   offset="0.5" />
								<a:midPointStop
   style="stop-color:#B80000"
   offset="0.65" />
								<a:midPointStop
   style="stop-color:#B80000"
   offset="0.5" />
								<a:midPointStop
   style="stop-color:#CF0000"
   offset="0.837079" />
								<a:midPointStop
   style="stop-color:#CF0000"
   offset="0.5" />
								<a:midPointStop
   style="stop-color:#FF0000"
   offset="1" />
							</linearGradient><linearGradient
     inkscape:collect="always"
     xlink:href="#linearGradient8687"
     id="linearGradient9871"
     gradientUnits="userSpaceOnUse"
     gradientTransform="matrix(1.567692,0,0,1.567692,-377.86556,23.024397)"
     x1="126.18921"
     y1="39.617504"
     x2="126.18921"
     y2="112.30453" /><linearGradient
     inkscape:collect="always"
     xlink:href="#XMLID_22_"
     id="linearGradient9873"
     gradientUnits="userSpaceOnUse"
     gradientTransform="matrix(1.567692,0,0,1.567692,-437.40971,-86.772386)"
     x1="87.396973"
     y1="141.97266"
     x2="269.33331"
     y2="141.97276" /></defs>
	
		
	



<g
   id="g9853"
   transform="translate(308.03975,-7.7969875)"><polyline
     transform="translate(-308.03975,7.7969875)"
     id="_x3C_Slice_x3E_"
     points="0,256 0,0 256,0 256,256 "
     style="fill:none" /><path
     id="path8726"
     style="fill:#4d4d4d"
     d="M -59.6792,40.26901 C -140.76746,-2.6327805 -221.85648,93.646319 -302.94473,47.802046 C -305.75862,46.21445 -308.03973,47.00978 -308.03973,49.826726 C -308.03973,107.14011 -308.03973,164.45425 -308.03973,221.76763 C -308.03973,224.57845 -305.75862,228.34612 -302.94473,229.93218 C -221.00833,276.25718 -139.07116,177.46809 -57.13476,223.79232 C -54.32088,225.37914 -52.03976,224.58458 -52.03976,221.76763 C -52.03976,164.45425 -52.03976,107.14011 -52.03976,49.826726 C -52.03976,47.015903 -54.32088,43.249003 -57.13476,41.661408 C -57.9829,41.182221 -58.83105,40.718343 -59.6792,40.26901 z " /><path
     id="path8728"
     style="fill:url(#linearGradient9871);fill-opacity:1"
     d="M -59.6792,45.364008 C -59.6792,47.217987 -74.57074,35.158701 -96.98842,34.30979 C -119.40459,31.958252 -149.34383,40.815559 -179.44076,49.736398 C -209.53769,58.635807 -239.78925,67.627072 -262.82927,65.296201 C -285.86929,64.443463 -301.69701,52.269354 -302.94473,52.897044 C -302.94473,57.773117 -302.94473,219.96035 -302.94473,224.83795 C -301.71002,224.03573 -286.0377,236.31931 -263.14694,237.23329 C -240.25696,239.63228 -210.14777,230.66398 -180.03937,221.72554 C -149.93018,212.79628 -119.82101,203.8693 -96.93178,206.28821 C -74.04103,207.22056 -58.36871,219.49877 -57.13476,218.69732 C -57.13476,213.81971 -57.13476,51.63248 -57.13476,46.756407 C -58.40851,46.033799 -59.6792,45.364008 -59.6792,45.364008 z " /><path
     id="path8730"
     style="fill:#ed1c24;fill-opacity:1"
     d="M -59.6792,214.75741 C -139.91931,172.30496 -220.15789,266.13301 -300.39723,223.68438 C -300.39723,168.06883 -300.39723,112.45327 -300.39723,56.838472 C -220.15789,99.287868 -139.91777,5.4590514 -59.6792,47.911508 C -59.6792,103.52707 -59.6792,159.14263 -59.6792,214.75741 z " /><path
     sodipodi:nodetypes="ccccc"
     id="path8732"
     style="fill:#ffffff;fill-opacity:1"
     d="M -300.39877,115.12939 C -220.15943,155.83163 -139.9193,65.864674 -59.68073,106.56985 C -59.68073,92.922429 -59.68073,61.210285 -59.68073,47.562136 C -136.87635,4.8273006 -220.15943,97.229841 -300.39877,56.52761 C -300.39877,70.175026 -300.39877,101.48124 -300.39877,115.12939 z " /><path
     sodipodi:nodetypes="ccccc"
     id="path8736"
     style="fill:#005da4;fill-opacity:1"
     d="M -300.39877,115.04817 C -300.39877,128.94946 -300.39877,158.68212 -300.39877,172.58341 C -220.15943,214.03761 -139.9193,122.40764 -59.68073,163.86557 C -59.68073,149.96429 -59.68073,120.43459 -59.68073,106.53328 C -139.92084,65.075351 -219.02308,155.79904 -300.39877,115.04817 z " /><g
     transform="matrix(0.549078,-9.169414e-2,0,0.549078,-216.03553,68.059288)"
     id="g10248"><path
       id="path13"
       style="fill:#ed1c24;fill-opacity:1"
       d="M -66.437756,55.670342 C -67.329756,56.063675 -68.215089,56.472009 -69.093756,56.895008 L -66.325756,100.69434 C -65.571756,112.635 -60.493757,123.93534 -51.983758,132.445 C -46.164425,138.264 -39.040426,142.479 -31.29876,144.803 L -31.298093,144.803 C -23.556427,142.47867 -16.432095,138.264 -10.613095,132.445 C -2.1034294,123.93534 2.9749035,112.635 3.7285701,100.69434 L 6.4969031,56.895008 C 5.6179032,56.472009 4.7332366,56.063675 3.84057,55.670342 L 3.8412367,55.670675 L 1.0079037,100.507 C 0.29890373,111.79267 -4.4990958,122.47367 -12.541428,130.516 C -17.841428,135.81667 -24.288094,139.70733 -31.29776,141.94767 L -31.29876,141.94767 C -38.308759,139.70733 -44.754758,135.81667 -50.054758,130.516 C -58.097424,122.47367 -62.895423,111.79267 -63.60409,100.507 L -66.437756,55.670342 L -66.43709,55.670342" /><path
       id="path10260"
       style="fill:#005da4;fill-opacity:1"
       d="M 3.8412367,55.670675 C -7.1264289,50.835009 -19.080094,48.267676 -31.298426,48.267676 C -43.517092,48.267676 -55.470757,50.835009 -66.438423,55.670675 L -63.604423,100.507 C -62.895757,111.79267 -58.097757,122.47367 -50.055091,130.516 C -44.754758,135.81667 -38.308759,139.70733 -31.299093,141.94767 L -31.298093,141.94767 C -24.288427,139.70733 -17.841761,135.81667 -12.542428,130.516 C -4.4994291,122.47367 0.29857039,111.79267 1.0069037,100.507" /><polyline
       transform="matrix(0.333333,0,0,0.333333,-69.09376,48.26768)"
       points="119.764,62.917 124.434,56.539 116.574,57.394 113.386,50.161 110.197,57.394 102.338,56.539    107.008,62.917 102.338,69.295 110.197,68.44 113.386,75.673 116.574,68.44 124.434,69.295  "
       id="polyline17"
       style="fill:#ffdd00;fill-opacity:1" /><polyline
       transform="matrix(0.333333,0,0,0.333333,-69.09376,48.26768)"
       points="90,23.232 94.669,16.854 86.811,17.709 83.622,10.476 80.433,17.709 72.575,16.854 77.244,23.232    72.575,29.61 80.433,28.755 83.622,35.988 86.811,28.755 94.669,29.61  "
       id="polyline19"
       style="fill:#ffdd00;fill-opacity:1" /><polyline
       transform="matrix(0.333333,0,0,0.333333,-69.09376,48.26768)"
       points="149.527,23.232 154.195,16.854 146.338,17.709 143.148,10.476 139.959,17.709 132.102,16.854    136.771,23.232 132.102,29.61 139.959,28.755 143.148,35.988 146.338,28.755 154.195,29.61  "
       id="polyline21"
       style="fill:#ffdd00;fill-opacity:1" /><path
       id="path23"
       style="fill:#ffffff"
       d="M -2.9517626,107.03567 L -17.125428,88.137672 L -22.794761,95.697005 L -31.29876,78.689006 L -39.802759,95.697005 L -45.472092,88.137672 L -59.645424,107.03567 C -59.645424,109.54167 -58.649757,111.94467 -56.877757,113.71667 C -55.105757,115.488 -52.702758,116.48434 -50.196425,116.48434 C -48.523091,116.48434 -46.895425,116.04034 -45.471425,115.218 C -45.462092,115.212 -45.482758,115.22467 -45.473758,115.21934 C -44.764092,114.80934 -43.998425,114.49 -43.193425,114.27467 C -40.772759,113.62634 -38.193759,113.96534 -36.023426,115.218 C -34.574426,116.05467 -32.94276,116.48434 -31.298093,116.48434 C -31.291093,116.48434 -31.30676,116.48434 -31.29976,116.48434 C -29.65476,116.48434 -28.023427,116.05467 -26.574094,115.218 C -24.404094,113.96534 -21.824761,113.62567 -19.404094,114.27467 C -18.599428,114.49 -17.833761,114.80934 -17.124095,115.21934 C -17.114428,115.22467 -17.135095,115.21234 -17.126095,115.218 C -15.701761,116.04034 -14.074762,116.48434 -12.401428,116.48434 C -9.8947619,116.48434 -7.4917622,115.48834 -5.7197623,113.71667 C -3.9477625,111.94467 -2.9520959,109.54167 -2.9520959,107.03567" /><path
       id="path25"
       style="fill:#ffffff"
       d="M -56.287757,117.296 C -55.637424,118.58834 -54.922424,119.84934 -54.145424,121.074 C -54.145424,121.074 -54.145757,121.07467 -54.145424,121.07534 C -52.150758,121.99267 -49.889091,122.19067 -47.750758,121.61767 C -46.945425,121.40234 -46.180092,121.08267 -45.470425,120.673 C -45.461092,120.66767 -45.481758,120.67967 -45.472425,120.67434 C -44.048425,119.85134 -42.420759,119.408 -40.747426,119.408 C -40.744092,119.408 -40.751759,119.408 -40.748426,119.408 C -39.103759,119.40734 -37.472092,119.837 -36.023093,120.67434 C -33.85276,121.927 -31.27376,122.266 -28.85276,121.61767 C -28.048093,121.40234 -27.282427,121.08267 -26.57276,120.673 C -26.563094,120.66767 -26.58376,120.67967 -26.57476,120.67434 C -25.151094,119.85134 -23.523427,119.408 -21.849427,119.408 C -21.846094,119.408 -21.854094,119.408 -21.850761,119.408 C -20.206094,119.40734 -18.574094,119.837 -17.125428,120.67434 C -14.954761,121.927 -12.376095,122.266 -9.9554286,121.61767 C -9.435762,121.479 -8.9334287,121.296 -8.4514287,121.07467 L -8.4514287,121.07467 C -7.6740955,119.84934 -6.9590955,118.58834 -6.3087623,117.29667 C -6.3087623,117.296 -6.3087623,117.29667 -6.3087623,117.29667 C -6.7807622,117.47634 -7.2384289,117.69367 -7.6770955,117.947 C -7.6860955,117.95234 -7.6654288,117.94034 -7.6744288,117.94567 C -8.3840954,118.35534 -9.149762,118.67434 -9.9550952,118.89034 C -12.375762,119.53867 -14.954428,119.19967 -17.125095,117.94634 C -18.573761,117.10967 -20.205761,116.68067 -21.850427,116.68067 C -21.853761,116.68067 -21.845761,116.68067 -21.849094,116.68067 C -23.522761,116.68067 -25.150427,117.12467 -26.574427,117.947 C -26.583427,117.95234 -26.56276,117.94034 -26.572427,117.94567 C -27.282094,118.35567 -28.04776,118.675 -28.852427,118.89034 C -31.273426,119.53934 -33.852426,119.20034 -36.022759,117.947 C -37.471759,117.11034 -39.103426,116.68067 -40.748092,116.68067 C -40.751759,116.68067 -40.743759,116.68067 -40.747092,116.68067 C -42.420425,116.68067 -44.048092,117.12467 -45.472092,117.94767 C -45.481425,117.953 -45.460758,117.941 -45.470092,117.94634 C -46.179758,118.356 -46.945092,118.675 -47.750425,118.891 C -50.171091,119.53934 -52.750091,119.20034 -54.920424,117.947 C -55.360757,117.693 -55.818091,117.47634 -56.287424,117.298 C -56.287757,117.298 -56.287424,117.29734 -56.287424,117.298" /><path
       id="path27"
       style="fill:#ffffff"
       d="M -10.899095,124.54734 C -12.000095,125.958 -13.192095,127.30833 -14.471428,128.587 C -19.251428,133.367 -25.02076,136.92933 -31.29876,139.07533 L -31.299093,139.07533 C -37.577092,136.92933 -43.346759,133.36767 -48.126758,128.587 C -49.405758,127.30833 -50.597758,125.958 -51.698758,124.54734 C -51.698758,124.54734 -51.699091,124.54734 -51.698758,124.54734 C -50.395758,124.757 -49.050425,124.69334 -47.751091,124.34567 C -46.945758,124.12967 -46.180425,123.81067 -45.470758,123.401 C -45.461425,123.39567 -45.482092,123.40767 -45.472758,123.40234 C -44.048759,122.57934 -42.421092,122.136 -40.747759,122.136 C -40.744426,122.136 -40.752092,122.136 -40.748759,122.136 C -39.104092,122.13534 -37.472426,122.565 -36.023426,123.40167 C -33.853093,124.655 -31.274093,124.994 -28.853427,124.34567 C -28.048093,124.12967 -27.282427,123.81067 -26.57276,123.401 C -26.56376,123.39567 -26.584427,123.40767 -26.57476,123.40234 C -25.151094,122.57934 -23.523427,122.136 -21.850094,122.136 C -21.846761,122.136 -21.854094,122.136 -21.850761,122.136 C -20.206094,122.13534 -18.574761,122.565 -17.125428,123.40167 C -15.235428,124.49334 -13.034428,124.89134 -10.898762,124.547 C -10.898095,124.547 -10.898762,124.547 -10.899428,124.54767" /></g><path
     id="path8750"
     style="fill:url(#linearGradient9873)"
     d="M -59.678566,214.75724 C -139.91869,172.30555 -220.1588,266.13436 -300.39815,223.68267 C -300.39815,168.06789 -300.39815,112.45233 -300.39815,56.83678 C -220.1588,99.287702 -139.91869,5.4596538 -59.678566,47.912111 C -59.678566,103.5269 -59.678566,159.14246 -59.678566,214.75724 z " /></g></svg>