<?xml version="1.0" encoding="UTF-8" standalone="no"?>
<!-- Created with Inkscape (http://www.inkscape.org/) -->

<svg
   xmlns:a="http://ns.adobe.com/AdobeSVGViewerExtensions/3.0/"
   xmlns:dc="http://purl.org/dc/elements/1.1/"
   xmlns:cc="http://creativecommons.org/ns#"
   xmlns:rdf="http://www.w3.org/1999/02/22-rdf-syntax-ns#"
   xmlns:svg="http://www.w3.org/2000/svg"
   xmlns="http://www.w3.org/2000/svg"
   xmlns:xlink="http://www.w3.org/1999/xlink"
   xmlns:sodipodi="http://sodipodi.sourceforge.net/DTD/sodipodi-0.dtd"
   xmlns:inkscape="http://www.inkscape.org/namespaces/inkscape"
   version="1.0"
   width="48pt"
   height="48pt"
   viewBox="0 0 256 256"
   id="svg2"
   xml:space="preserve"
   sodipodi:version="0.32"
   inkscape:version="0.48.2 r9819"
   sodipodi:docname="AL1.svg"><metadata
   id="metadata4709"><rdf:RDF><cc:Work
       rdf:about=""><dc:format>image/svg+xml</dc:format><dc:type
         rdf:resource="http://purl.org/dc/dcmitype/StillImage" /><cc:license
         rdf:resource="http://creativecommons.org/licenses/LGPL/2.1/" /><dc:title></dc:title><dc:date>8.2.2007</dc:date><dc:description /><dc:contributor><cc:Agent><dc:title>Based on:
http://commons.wikimedia.org/wiki/Image:Nuvola_Spain_flag.svg</dc:title></cc:Agent></dc:contributor><dc:creator><cc:Agent><dc:title>Sven Nobis (sven@crystalxp.de)</dc:title></cc:Agent></dc:creator></cc:Work><cc:License
       rdf:about="http://creativecommons.org/licenses/LGPL/2.1/"><cc:permits
         rdf:resource="http://web.resource.org/cc/Reproduction" /><cc:permits
         rdf:resource="http://web.resource.org/cc/Distribution" /><cc:requires
         rdf:resource="http://web.resource.org/cc/Notice" /><cc:permits
         rdf:resource="http://web.resource.org/cc/DerivativeWorks" /><cc:requires
         rdf:resource="http://web.resource.org/cc/ShareAlike" /><cc:requires
         rdf:resource="http://web.resource.org/cc/SourceCode" /></cc:License></rdf:RDF></metadata><sodipodi:namedview
   inkscape:window-height="705"
   inkscape:window-width="1366"
   inkscape:pageshadow="2"
   inkscape:pageopacity="0.0"
   borderopacity="1.0"
   bordercolor="#666666"
   pagecolor="#ffffff"
   id="base"
   inkscape:zoom="7.3868666"
   inkscape:cx="29.289811"
   inkscape:cy="26.442658"
   inkscape:window-x="-4"
   inkscape:window-y="-4"
   inkscape:current-layer="layer1"
   gridtolerance="2.7"
   showgrid="false"
   inkscape:window-maximized="1" /><defs
   id="defs271"><linearGradient
   gradientUnits="userSpaceOnUse"
   id="XMLID_22_"
   y2="141.97266"
   x2="240.94727"
   y1="141.97266"
   x1="87.396973"
   gradientTransform="matrix(1.567692,0,0,1.567692,-129.3706,-94.56783)">
								<stop
   id="stop139"
   offset="0"
   style="stop-color:white;stop-opacity:0.66666675;" />
								
								<stop
   id="stop143"
   offset="0.24074516"
   style="stop-color:#d7d7d7;stop-opacity:0.21875;" />
								<stop
   id="stop145"
   offset="0.4585622"
   style="stop-color:#4d4d4d;stop-opacity:0;" /><stop
   style="stop-color:white;stop-opacity:0.51041669;"
   offset="0.71891773"
   id="stop3696" /><stop
   style="stop-color:#f2f2f2;stop-opacity:0.40000001;"
   offset="0.87351298"
   id="stop2807" /><stop
   id="stop3694"
   offset="1"
   style="stop-color:white;stop-opacity:0.62352943;" />
								
								
								<a:midPointStop
   offset="0"
   style="stop-color:#E9E9EF" />
								<a:midPointStop
   offset="0.5"
   style="stop-color:#E9E9EF" />
								<a:midPointStop
   offset="0.157303"
   style="stop-color:#B1B1C5" />
								<a:midPointStop
   offset="0.5"
   style="stop-color:#B1B1C5" />
								<a:midPointStop
   offset="0.314607"
   style="stop-color:#CECEDB" />
								<a:midPointStop
   offset="0.5"
   style="stop-color:#CECEDB" />
								<a:midPointStop
   offset="0.65"
   style="stop-color:#FFFFFF" />
								<a:midPointStop
   offset="0.5"
   style="stop-color:#FFFFFF" />
								<a:midPointStop
   offset="0.837079"
   style="stop-color:#CECEDB" />
								<a:midPointStop
   offset="0.5"
   style="stop-color:#CECEDB" />
								<a:midPointStop
   offset="1"
   style="stop-color:#FFFF66" />
							</linearGradient><linearGradient
   inkscape:collect="always"
   xlink:href="#XMLID_22_"
   id="linearGradient1945"
   gradientUnits="userSpaceOnUse"
   gradientTransform="matrix(1.567692,0,0,1.567692,-129.3714,-94.56962)"
   x1="87.396973"
   y1="141.97266"
   x2="240.9473"
   y2="141.97276" /><linearGradient
   id="linearGradient17523"><stop
     style="stop-color:white;stop-opacity:0;"
     offset="0"
     id="stop17525" /><stop
     style="stop-color:white;stop-opacity:0.36078432;"
     offset="1"
     id="stop17527" /></linearGradient><linearGradient
   id="linearGradient6438"><stop
     style="stop-color:white;stop-opacity:0;"
     offset="0"
     id="stop6440" /><stop
     style="stop-color:white;stop-opacity:0.2;"
     offset="1"
     id="stop6442" /></linearGradient>
			
			
		
				
				
			
					
					
				<linearGradient
   inkscape:collect="always"
   xlink:href="#linearGradient17523"
   id="linearGradient18174"
   gradientUnits="userSpaceOnUse"
   x1="68.168605"
   y1="130.23505"
   x2="132.16861"
   y2="130.23505" /><linearGradient
   inkscape:collect="always"
   xlink:href="#linearGradient17523"
   id="linearGradient18176"
   gradientUnits="userSpaceOnUse"
   x1="68.168602"
   y1="130.23505"
   x2="132.16861"
   y2="130.23505" />
						
					
							
							
								<linearGradient
   gradientUnits="userSpaceOnUse"
   id="XMLID_17_"
   y2="102.14398"
   x2="126.18921"
   y1="47.69384"
   x1="126.18921"
   gradientTransform="matrix(1.567692,0,0,1.567692,-69.82581,15.22741)">
								<stop
   id="stop18"
   offset="0"
   style="stop-color:#a12830;stop-opacity:1;" />
								<stop
   id="stop20"
   offset="0.15730301"
   style="stop-color:#a12830;stop-opacity:1;" />
								<stop
   id="stop22"
   offset="0.31460699"
   style="stop-color:white;stop-opacity:1;" />
								<stop
   id="stop24"
   offset="0.64999998"
   style="stop-color:white;stop-opacity:1;" />
								<stop
   id="stop26"
   offset="0.83707899"
   style="stop-color:#a12830;stop-opacity:1;" />
								<stop
   id="stop28"
   offset="1"
   style="stop-color:#a12830;stop-opacity:1;" />
								<a:midPointStop
   offset="0"
   style="stop-color:#CF0000" />
								<a:midPointStop
   offset="0.5"
   style="stop-color:#CF0000" />
								<a:midPointStop
   offset="0.157303"
   style="stop-color:#7C0000" />
								<a:midPointStop
   offset="0.5"
   style="stop-color:#7C0000" />
								<a:midPointStop
   offset="0.314607"
   style="stop-color:#CF0000" />
								<a:midPointStop
   offset="0.5"
   style="stop-color:#CF0000" />
								<a:midPointStop
   offset="0.65"
   style="stop-color:#B80000" />
								<a:midPointStop
   offset="0.5"
   style="stop-color:#B80000" />
								<a:midPointStop
   offset="0.837079"
   style="stop-color:#CF0000" />
								<a:midPointStop
   offset="0.5"
   style="stop-color:#CF0000" />
								<a:midPointStop
   offset="1"
   style="stop-color:#FF0000" />
							</linearGradient>
							
							
								<linearGradient
   gradientUnits="userSpaceOnUse"
   id="XMLID_18_"
   y2="71.935547"
   x2="202.96484"
   y1="71.935547"
   x1="49.415527"
   gradientTransform="matrix(1.567692,0,0,1.567692,-69.82581,15.22741)">
								<stop
   id="stop33"
   offset="0"
   style="stop-color:#fde466;stop-opacity:1;" />
								<stop
   id="stop35"
   offset="0.15730301"
   style="stop-color:#ffbf50;stop-opacity:1;" />
								<stop
   id="stop37"
   offset="0.31460699"
   style="stop-color:#ffcf57;stop-opacity:1;" />
								<stop
   id="stop39"
   offset="0.64999998"
   style="stop-color:#ffffb9;stop-opacity:1;" />
								<stop
   id="stop41"
   offset="0.83707899"
   style="stop-color:#ffc93c;stop-opacity:1;" />
								<stop
   id="stop43"
   offset="1"
   style="stop-color:#ffff79;stop-opacity:1;" />
								<a:midPointStop
   offset="0"
   style="stop-color:#FFFF66" />
								<a:midPointStop
   offset="0.5"
   style="stop-color:#FFFF66" />
								<a:midPointStop
   offset="0.157303"
   style="stop-color:#FFBC50" />
								<a:midPointStop
   offset="0.5"
   style="stop-color:#FFBC50" />
								<a:midPointStop
   offset="0.314607"
   style="stop-color:#FFC957" />
								<a:midPointStop
   offset="0.5"
   style="stop-color:#FFC957" />
								<a:midPointStop
   offset="0.65"
   style="stop-color:#FFFFDE" />
								<a:midPointStop
   offset="0.5"
   style="stop-color:#FFFFDE" />
								<a:midPointStop
   offset="0.837079"
   style="stop-color:#FFC957" />
								<a:midPointStop
   offset="0.5"
   style="stop-color:#FFC957" />
								<a:midPointStop
   offset="1"
   style="stop-color:#FFFF66" />
							</linearGradient>
							
							
								<linearGradient
   gradientUnits="userSpaceOnUse"
   id="XMLID_19_"
   y2="32.34082"
   x2="202.96484"
   y1="32.34082"
   x1="49.415527"
   gradientTransform="matrix(1.567692,0,0,1.537663,-69.82581,15.48747)">
								<stop
   id="stop48"
   offset="0"
   style="stop-color:#666;stop-opacity:1;" />
								<stop
   id="stop50"
   offset="0.15730301"
   style="stop-color:black;stop-opacity:1;" />
								<stop
   id="stop52"
   offset="0.31460699"
   style="stop-color:black;stop-opacity:1;" />
								<stop
   id="stop54"
   offset="0.64999998"
   style="stop-color:#999;stop-opacity:1;" />
								<stop
   id="stop56"
   offset="0.83707899"
   style="stop-color:#666;stop-opacity:1;" />
								<stop
   id="stop58"
   offset="1"
   style="stop-color:#999;stop-opacity:1;" />
								<a:midPointStop
   offset="0"
   style="stop-color:#FF6666" />
								<a:midPointStop
   offset="0.5"
   style="stop-color:#FF6666" />
								<a:midPointStop
   offset="0.157303"
   style="stop-color:#CF0000" />
								<a:midPointStop
   offset="0.5"
   style="stop-color:#CF0000" />
								<a:midPointStop
   offset="0.314607"
   style="stop-color:#FF0000" />
								<a:midPointStop
   offset="0.5"
   style="stop-color:#FF0000" />
								<a:midPointStop
   offset="0.65"
   style="stop-color:#FF9999" />
								<a:midPointStop
   offset="0.5"
   style="stop-color:#FF9999" />
								<a:midPointStop
   offset="0.837079"
   style="stop-color:#FF6666" />
								<a:midPointStop
   offset="0.5"
   style="stop-color:#FF6666" />
								<a:midPointStop
   offset="1"
   style="stop-color:#FF9999" />
							</linearGradient>
							
							
								<linearGradient
   gradientUnits="userSpaceOnUse"
   id="XMLID_20_"
   y2="111.5293"
   x2="202.96484"
   y1="111.5293"
   x1="49.415527"
   gradientTransform="matrix(1.567692,0,0,1.582706,-69.82581,-52.93599)">
								<stop
   id="stop63"
   offset="0"
   style="stop-color:#ff6666;stop-opacity:1" />
								<stop
   id="stop65"
   offset="0.15730301"
   style="stop-color:#cf0000;stop-opacity:1" />
								<stop
   id="stop67"
   offset="0.31460699"
   style="stop-color:#ff0000;stop-opacity:1" />
								<stop
   id="stop69"
   offset="0.64999998"
   style="stop-color:#ff9999;stop-opacity:1" />
								<stop
   id="stop71"
   offset="0.83707899"
   style="stop-color:#ff6666;stop-opacity:1" />
								<stop
   id="stop73"
   offset="1"
   style="stop-color:#ff9999;stop-opacity:1" />
								<a:midPointStop
   offset="0"
   style="stop-color:#FF6666" />
								<a:midPointStop
   offset="0.5"
   style="stop-color:#FF6666" />
								<a:midPointStop
   offset="0.157303"
   style="stop-color:#CF0000" />
								<a:midPointStop
   offset="0.5"
   style="stop-color:#CF0000" />
								<a:midPointStop
   offset="0.314607"
   style="stop-color:#FF0000" />
								<a:midPointStop
   offset="0.5"
   style="stop-color:#FF0000" />
								<a:midPointStop
   offset="0.65"
   style="stop-color:#FF9999" />
								<a:midPointStop
   offset="0.5"
   style="stop-color:#FF9999" />
								<a:midPointStop
   offset="0.837079"
   style="stop-color:#FF6666" />
								<a:midPointStop
   offset="0.5"
   style="stop-color:#FF6666" />
								<a:midPointStop
   offset="1"
   style="stop-color:#FF9999" />
							</linearGradient>
							
						<linearGradient
   inkscape:collect="always"
   xlink:href="#XMLID_22_"
   id="linearGradient3820"
   gradientUnits="userSpaceOnUse"
   gradientTransform="matrix(1.567692,0,0,1.567692,-129.3714,-94.56962)"
   x1="87.396973"
   y1="141.97266"
   x2="240.9473"
   y2="141.97276" /><linearGradient
   inkscape:collect="always"
   xlink:href="#XMLID_22_"
   id="linearGradient3823"
   gradientUnits="userSpaceOnUse"
   gradientTransform="matrix(1.567692,0,0,1.567692,-129.3714,-94.56962)"
   x1="87.396973"
   y1="141.97266"
   x2="240.9473"
   y2="141.97276" /></defs>
	
		
	<g
   inkscape:groupmode="layer"
   id="layer1"
   inkscape:label="ombre"
   style="opacity:1;display:inline"><polyline
     style="fill:none"
     points="0,256 0,0 256,0 256,256 "
     id="_x3C_Slice_x3E_" /><path
     id="path15"
     style="fill:#4d4d4d;fill-opacity:1;display:inline"
     d="M 248.36055,32.472022 C 167.27229,-10.429768 86.183274,85.849332 5.0950169,40.005058 2.2811336,38.417463 1.7853684e-5,39.212792 1.7853684e-5,42.029738 c 0,57.313381 0,114.627522 0,171.940902 0,2.81082 2.281115746316,6.57849 5.094999046316,8.16455 81.9363991,46.325 163.8735731,-52.46409 245.8099731,-6.13986 2.81388,1.58682 5.095,0.79226 5.095,-2.02469 0,-57.31338 0,-114.627521 0,-171.940902 0,-2.810823 -2.28112,-6.577723 -5.095,-8.165317 -0.84814,-0.479187 -1.69629,-0.943066 -2.54444,-1.392399 z"
     inkscape:connector-curvature="0" /><path
     id="path30"
     style="fill:#e41e20;fill-opacity:1;display:inline"
     d="m 248.36055,37.567021 c 0,1.853979 -14.89154,-10.205307 -37.30922,-11.054219 -22.41617,-2.351538 -52.35541,6.505769 -82.45234,15.426609 C 98.502062,50.838819 68.2505,59.830085 45.210481,57.499214 22.170459,56.646475 6.3427413,44.472367 5.0950169,45.100057 c 0,4.876072 0,167.063303 0,171.940903 1.234711,-0.80222 16.9070381,11.48136 39.7977911,12.39534 22.889987,2.39899 52.99917,-6.56931 83.107572,-15.50775 30.10919,-8.92926 60.21836,-17.85624 83.10759,-15.43733 22.89075,0.93235 38.56307,13.21056 39.79702,12.40911 0,-4.87761 0,-167.064838 0,-171.94091 -1.27375,-0.722609 -2.54444,-1.392399 -2.54444,-1.392399 z"
     inkscape:connector-curvature="0" /><path
     style="fill:#000000;fill-rule:evenodd"
     d="m 110.96535,80.6853 c -1.6595,0.443511 -4.41372,1.783127 -4.352,3.039192 -4.6223,0.52111 -5.10361,2.567161 -4.832,4.188943 0.43979,-0.799203 0.97527,-1.317411 1.38667,-1.503332 0.61636,-0.277426 1.26136,-0.261588 1.92,-0.0442 0.65867,0.217436 1.3843,0.664129 1.70668,0.976415 -1.63139,0.853549 -2.89167,0.959847 -4.17067,1.099606 -0.63049,0.06885 -1.51281,-0.03515 -2.03733,-0.253134 -0.52451,-0.218055 -0.689656,-0.516615 -1.514676,-1.12697 -0.97269,-0.719649 -2.007921,-0.145059 -1.685331,1.310847 0.746011,1.22537 1.992221,1.512201 3.562667,1.323775 0.75572,-0.09062 1.88142,-0.141132 3.15734,-0.502427 1.27593,-0.361529 2.70855,-0.953898 3.488,-1.012341 -0.46826,0.427039 -0.99815,1.08445 -2.04801,1.584577 -1.06761,0.508551 -2.69073,0.129648 -3.67999,0.181582 0.12564,0.796671 1.17556,1.276474 3.24266,1.094686 3.39678,-0.225466 6.21936,-0.465326 8.08533,0.01741 1.86596,0.482737 3.04245,1.416593 3.88267,2.171521 1.67206,1.502317 1.76001,2.99529 1.86667,3.298988 0.344,3.061567 -0.75762,5.151728 -2.80532,6.279778 -1.02387,0.56402 -2.84258,0.56651 -3.50933,-0.0269 -0.66678,-0.5932 -1.31553,-1.75418 -1.13068,-3.913435 0.17971,-0.877528 1.12478,-3.298808 0.32001,-3.514953 -3.70742,-0.995744 -8.2095,-1.788872 -11.46671,-2.096616 -0.890236,-0.08411 -1.623626,1.334235 -1.909326,1.886505 -5.533392,0.898339 -10.522294,-1.428683 -12.768005,-4.777647 -1.52951,-2.280945 -4.050431,1.156843 -3.626661,3.60111 0.68413,2.668623 2.865501,4.118792 5.482662,4.842274 2.686131,0.715846 6.043622,1.217292 9.440003,0.176529 1.829781,-0.17374 1.811711,2.198663 -0.384,3.266463 -4.294291,1.24733 -7.720103,2.1136 -10.954664,-0.0875 -2.453421,-1.54304 -3.834621,1.51855 -3.125341,2.82933 1.20196,4.32056 7.852833,3.73638 14.581335,0.31573 2.605551,-1.17181 1.045351,2.06347 0.309321,2.30148 -2.811432,2.8146 -7.844753,6.21711 -12.277335,3.46704 -2.028351,-0.97684 -3.399731,0.71836 -2.645331,2.74631 1.966821,5.28736 9.490333,1.92186 14.656005,-2.42551 1.329591,-1.11897 2.536271,0.26257 0.917331,2.03272 -6.423943,6.3139 -9.635794,7.27752 -12.533325,6.37708 -3.627501,-0.39996 -3.946611,3.71427 -1.792001,4.42386 2.394781,0.78869 8.489004,-2.04434 12.960005,-6.12499 1.916721,-1.96962 2.003441,0.23394 0.789321,1.46108 -5.305752,6.0928 -7.397023,7.89452 -12.928005,8.71858 -2.742651,0.56546 -2.701451,3.93513 -0.543991,4.64528 2.945652,0.96955 8.698094,-3.66348 13.162675,-8.63594 1.879111,-1.53801 2.187721,0.021 1.258661,2.2344 -2.727971,4.21687 -5.288362,6.97353 -7.754663,8.61403 -2.466331,1.64053 -4.838572,2.16482 -6.517342,2.06497 -2.048071,-0.12173 -2.304891,2.07972 -1.173321,3.6934 0.68211,0.9727 3.508801,0.54361 6.560003,-1.40519 3.051201,-1.94866 6.326902,-5.41672 8.576003,-9.02875 1.956826,-2.26913 1.71347,0.10151 0.82133,1.97466 -4.503692,8.39945 -8.622773,12.21093 -14.048005,13.30351 -2.405561,0.275 -2.951891,2.30088 -1.418651,3.59244 2.692241,1.46777 6.058433,0.44133 9.002664,-2.60061 2.617411,-3.26726 7.624678,-10.12408 10.250678,-13.78193 1.85048,-2.00098 2.44162,-0.71463 1.89868,2.43656 -0.4938,1.85654 -1.72997,4.01528 -5.098676,6.29139 -2.301361,1.96735 -0.57311,3.28655 1.151996,2.83005 0.94938,-0.25125 2.87718,-1.9088 4.35201,-3.98855 1.94021,-2.73601 2.0556,-4.23555 3.12533,-7.93873 1.01066,-1.94414 2.81583,-1.68362 2.81601,0.0532 -0.86578,3.65089 -1.60966,4.47275 -3.36,6.36272 -1.67418,2.04752 1.16573,1.76446 2.12266,0.84756 2.76836,-2.65258 3.77901,-5.35348 4.704,-7.81126 0.66767,-1.77407 2.6045,-1.5563 1.70668,1.28578 -2.14564,6.79217 -5.67131,10.22832 -11.84,13.23082 -0.62518,0.28884 -1.00651,0.76611 -0.78932,1.42961 0.82794,0.62429 1.65738,1.16854 2.48534,1.78986 -3.81444,2.19442 -6.913386,3.69887 -10.730737,5.8971 -1.872841,-0.69573 -3.385812,-1.30756 -5.258662,-2.00456 -0.49385,-1.01419 -0.724131,-2.711 -3.488002,-0.68365 -1.87285,-0.33285 -2.736751,0.2298 -3.776001,1.39289 1.500301,-0.37038 2.153071,-0.15405 2.741331,0.36246 0.76803,1.80458 2.539101,1.49677 4.352002,0.40614 1.1794,0.65846 1.8075,1.2421 2.986661,1.90341 -2.201341,0.55017 -3.734952,0.94694 -5.930672,1.50384 -2.096021,-1.65504 -3.769002,-1.05641 -5.269332,1.13451 -1.143491,0.50062 -1.628221,0.66292 -2.410661,2.27428 1.23055,-0.85467 2.00473,-1.22603 2.538671,-0.82791 2.22846,0.65877 3.684271,-0.0432 4.789331,-1.36078 2.149971,-0.47939 4.087332,-0.91864 6.240003,-1.38897 -0.790731,0.8968 -1.875911,1.56167 -2.666681,2.46438 -3.229111,-0.006 -4.914462,1.71604 -5.482662,4.51248 -0.43276,1.18647 -0.635381,2.33897 -0.44799,3.42332 0.31254,-1.12933 0.81506,-2.16673 1.73866,-2.99002 2.878121,-0.0867 3.960352,-1.56915 4.117332,-3.3352 1.38735,-1.52617 3.479401,-2.37021 4.864002,-3.91004 1.61894,0.0583 2.40154,0.15697 4.032001,0.20907 0.57969,1.59686 1.891426,1.92165 4.021336,0.86278 2.53542,-0.64078 2.08783,0.5267 2.29334,1.30043 0.67381,-1.3865 0.65504,-2.54335 -0.90667,-3.15575 -0.5682,-1.38223 -1.82707,-1.7266 -3.47734,-0.36666 -1.553386,3.3e-4 -1.961776,-0.51751 -3.509327,-0.5176 3.914437,-2.35988 6.691157,-3.42957 10.602667,-5.78588 0.97911,0.64541 1.7551,1.08799 2.74133,1.63179 0.51978,0.16256 1.01735,0.0993 1.32268,-0.37581 2.45106,-4.24401 3.54574,-7.68154 5.824,-10.66818 0.87039,-1.21518 1.97004,-2.83351 3.18933,-3.4982 0.60964,-0.33235 1.35727,-0.44764 1.83466,-0.0626 0.47739,0.38504 0.85239,1.23813 0.69335,2.71503 -0.22825,2.11998 -0.72478,2.90993 -1.30133,4.30577 -0.57655,1.39589 -1.28115,2.35392 -2.00534,3.50314 -1.44842,2.2984 -3.35954,3.93966 -4.49066,4.99862 -2.26225,2.11796 -3.21903,1.74416 -4.97067,2.14831 -2.26397,0.89731 -2.86636,2.17111 -1.01333,3.16793 1.73224,0.40913 3.28927,0.078 4.55467,-0.51544 1.0865,-0.50962 2.35803,-2.27328 3.264,-3.28474 1.01978,-1.46787 2.71051,-0.55111 1.55732,1.14686 -2.09557,3.08538 -4.18948,5.32202 -6.77334,6.02053 -2.71518,1.13689 -2.20729,2.51817 -0.40532,2.74986 3.24307,0.417 6.17119,-2.92198 7.65867,-4.99209 1.14763,-1.58163 1.96276,-1.8622 1.76001,0.13994 -1.13932,3.84412 -2.69624,5.64639 -5.23734,6.54411 -2.06115,0.39425 -2.08343,1.99163 -0.576,2.63836 3.43393,1.40112 5.92075,-3.353 7.08267,-6.12975 0.82797,-2.44223 2.0979,-1.75352 2.22935,0.0279 0.0171,2.42523 -1.08091,4.72131 -4.02133,8.04396 2.24978,2.9453 4.87264,5.84605 7.12534,8.80224 2.25265,-4.23648 4.87551,-8.62768 7.12529,-12.85144 -2.94041,-1.65173 -4.03846,-3.32384 -4.02133,-5.75881 0.13149,-1.85614 1.40136,-3.26648 2.22932,-1.29475 1.16193,2.11649 3.64874,5.45744 7.08267,2.10498 1.50743,-1.50332 1.48515,-3.08808 -0.576,-2.31104 -2.5411,0.54627 -4.09802,-0.37129 -5.23733,-3.56797 -0.20276,-1.88693 0.61237,-2.06957 1.76001,-1.14008 1.48749,1.22483 4.4156,2.89988 7.65866,0.64 1.80198,-1.25568 2.30987,-2.92557 -0.40532,-2.51954 -2.58386,0.76975 -4.67776,-0.27696 -6.77333,-2.17152 -1.1532,-1.04266 0.53754,-2.9202 1.55732,-2.03182 0.90596,0.49664 2.17749,1.53774 3.264,1.42995 1.26541,-0.12577 2.82243,-0.67936 4.55466,-2.07278 1.85303,-2.04983 1.25065,-2.98131 -1.01333,-2.5921 -1.75165,0.59139 -2.70843,1.50872 -4.97066,0.67631 -1.13114,-0.41622 -3.04226,-0.97146 -4.49067,-2.44678 -0.72419,-0.73769 -1.42879,-1.29534 -2.00534,-2.36358 -0.57655,-1.06823 -1.07308,-1.57602 -1.30133,-3.56629 -0.15913,-1.3865 0.21596,-2.45272 0.69335,-3.10903 0.47739,-0.65639 1.22502,-0.96588 1.83466,-0.97997 1.21928,-0.0282 2.31893,0.96527 3.18933,1.68584 2.27826,1.69199 3.37294,4.50748 5.824,7.35865 0.30536,0.30163 0.8029,0.0821 1.32268,-0.37581 0.98624,-1.10423 1.76223,-1.98777 2.74133,-3.18957 3.91152,0.13356 6.68824,-0.37463 10.60268,-0.23917 -1.54755,0.87951 -1.95594,1.62941 -3.50933,2.5118 -1.65026,-0.42215 -2.90914,0.63763 -3.47735,2.34269 -1.56171,1.49988 -1.58048,2.66737 -0.90667,3.67097 0.20552,-0.89052 -0.24207,-1.80368 2.29334,-2.60363 2.12992,-0.15147 3.44166,-1.22179 4.02135,-3.14794 1.63046,-0.97862 2.41305,-1.522 4.032,-2.50028 1.38461,0.75301 3.47665,0.40823 4.864,1.14603 0.15698,1.67685 1.23921,2.54434 4.11732,0.9955 0.9236,0.29845 1.42612,1.0503 1.73867,2.00201 0.18739,-1.19084 -0.0153,-2.22818 -0.44799,-3.16874 -0.56823,-2.47354 -2.25359,-3.23821 -5.4827,-1.39691 -0.79077,-0.45335 -1.87592,-0.50157 -2.66669,-0.94901 2.15268,-0.75295 4.09003,-1.41462 6.24,-2.15697 1.10507,0.68959 2.56088,0.56432 4.78934,-1.36078 0.53394,-0.70147 1.30812,-0.77006 2.53866,-0.61471 -0.78241,-1.16673 -1.26713,-1.05357 -2.41063,-0.90439 -1.50033,-1.33836 -3.1733,-0.98627 -5.26933,1.85982 -2.19571,0.69086 -3.72933,1.16558 -5.93067,1.86632 1.17916,-1.3314 1.80726,-2.27196 2.98666,-3.60061 1.81292,0.0604 3.58397,-0.63819 4.352,-2.8792 0.58826,-0.8508 1.24103,-1.43805 2.74133,-1.92024 -1.03925,-0.57253 -1.90316,-0.64426 -3.776,0.75285 -2.76385,-0.45677 -2.99415,1.37092 -3.488,2.66573 -1.87284,1.76124 -3.38582,3.23285 -5.25866,4.99283 -3.81734,-0.029 -6.91629,0.22757 -10.73068,0.20087 0.82797,-1.09181 1.65741,-2.10741 2.48534,-3.20217 0.21719,-0.78691 -0.16404,-1.04753 -0.78935,-0.98107 -6.16868,0.50305 -9.69435,-0.92962 -11.83999,-6.50251 -0.89782,-2.33188 1.03898,-3.65025 1.70665,-2.2556 0.92498,1.93215 1.93564,4.05874 4.704,5.13819 0.95693,0.3731 3.79685,-0.95776 2.12266,-2.05378 -1.75033,-0.89533 -2.49422,-1.29447 -3.35999,-4.45338 1.6e-4,-1.73696 1.80535,-3.02329 2.81601,-1.65345 1.06973,3.09529 1.18511,4.52926 3.12533,6.16272 1.47484,1.24167 3.40263,1.80376 4.35201,1.51549 1.72511,-0.52395 3.45336,-2.8251 1.152,-3.48468 -3.3687,-0.36179 -4.60487,-1.81807 -5.09867,-3.39401 -0.54294,-2.84265 0.0482,-4.46494 1.89865,-3.51549 2.62599,2.16561 7.63328,6.17701 10.25068,7.95691 2.94424,1.36884 6.31043,0.48242 9.00267,-2.51522 1.53323,-2.16282 0.98688,-3.87826 -1.41868,-2.78627 -5.42523,1.99034 -9.54431,0.51955 -14.048,-5.32064 -0.89214,-1.36618 -1.1355,-3.59853 0.82133,-2.44138 2.2491,2.33398 5.5248,3.94057 8.576,4.15537 3.0512,0.21494 5.87789,-0.96226 6.56,-2.32257 1.13156,-2.2567 0.87472,-4.31221 -1.17336,-3.02665 -1.67875,1.05366 -4.051,1.87742 -6.51732,1.63856 -2.46627,-0.23918 -5.02666,-1.54088 -7.75463,-4.20756 -0.92906,-1.68542 -0.62045,-3.41982 1.25866,-2.94964 4.46458,2.43542 10.21702,3.79959 13.16267,1.15615 2.15746,-1.93612 2.19866,-5.32922 -0.54399,-4.33615 -5.53097,2.31897 -7.62225,1.70561 -12.928,-1.37215 -1.21412,-0.53721 -1.12737,-2.790057 0.78935,-1.90963 4.47099,1.53999 10.56522,0.90992 12.95999,-1.239614 2.15461,-1.933956 1.83552,-5.866864 -1.79198,-3.405538 -2.89755,2.546977 -6.10938,3.4085 -12.53334,0.74504 -1.61894,-0.850163 -0.41226,-2.917415 0.91733,-2.554 5.16568,1.411943 12.68918,0.502152 14.656,-5.902867 0.75439,-2.456641 -0.61698,-3.372527 -2.64533,-1.243082 -4.43257,5.268955 -9.46589,4.726655 -12.27733,3.50964 -0.73602,0.180224 -2.29623,-2.16843 0.30932,-2.477247 6.72851,-0.402868 13.37938,-3.598091 14.58133,-8.601679 0.70927,-1.713786 -0.67191,-3.990537 -3.12534,-1.053338 -3.23457,4.039189 -6.66037,5.119598 -10.95467,6.312561 -2.19571,0.17993 -2.21377,-2.182209 -0.384,-3.048252 3.39639,-0.889111 6.75388,-3.298611 9.44,-5.540877 2.61716,-2.210682 4.79853,-4.900449 5.48267,-7.957837 0.42375,-2.685481 -2.09716,-4.690342 -3.62667,-1.540261 -2.24572,4.625117 -7.2346,9.787112 -12.768,12.033154 -0.28569,-0.389922 -1.0191,-1.391519 -1.90934,-0.801513 -3.2572,2.158663 -7.75929,5.510153 -11.46667,8.612723 -0.80478,0.673464 0.14039,2.557663 0.32001,3.333105 0.18493,2.054194 -0.46388,3.58384 -1.13065,4.555945 -0.66677,0.972336 -2.48549,2.00335 -3.50936,2.021159 -2.04773,0.03557 -3.14933,-1.428596 -2.80533,-4.685643 0.1066,-0.364271 0.19446,-1.907217 1.86667,-4.359736 0.84023,-1.232373 2.01671,-2.834784 3.88267,-4.377865 1.86596,-1.543081 4.68855,-2.907184 8.08533,-4.611952 2.06712,-0.992872 3.11703,-2.069287 3.24267,-2.937353 -0.98928,0.510254 -2.6124,1.811477 -3.68,1.909601 -1.04986,0.09646 -1.57975,-0.259834 -2.04801,-0.420781 0.77946,-0.384588 2.21208,-0.605815 3.488,-0.969741 1.27592,-0.363525 2.40162,-0.95301 3.15734,-1.291753 1.57044,-0.703949 2.81665,-1.698978 3.56267,-3.348286 0.32259,-1.63922 -0.71265,-1.625521 -1.68533,-0.353147 -0.82502,1.079189 -0.99017,1.471596 -1.51468,1.987697 -0.52452,0.516045 -1.40684,1.12144 -2.03733,1.410862 -1.279,0.587041 -2.53929,1.196848 -4.17067,1.270406 0.32234,-0.495459 1.04801,-1.354509 1.70668,-1.946249 0.65864,-0.591722 1.30363,-0.974013 1.92,-1.04685 0.4114,-0.04779 0.94688,0.166057 1.38667,0.715346 0.27157,-1.776115 -0.20982,-3.548615 -4.832,-1.443125 0.0617,-1.291162 -2.69252,-1.065623 -4.352,-0.566138 -0.93982,0.28283 -2.86783,1.381748 -4.256,2.425251 -2.19568,1.289172 -4.37792,2.396002 -6.93333,3.303308 1.47572,0.820207 1.76563,0.808716 3.25333,1.443647 -2.2527,1.459433 -3.99749,3.653732 -4.77867,4.984457 1.96765,-0.464766 2.61738,-0.814972 3.28534,-0.720267 -2.74087,1.572606 -3.9816,2.390237 -5.42934,4.251973 0.51254,-0.05223 1.27448,-0.132014 1.59999,-0.102609 0.33654,0.03064 0.19723,0.243184 -0.0319,0.553058 -0.62831,0.571744 -3.03298,4.088033 -3.744,4.946479 -0.71102,-0.454403 -3.11567,-2.604218 -3.74401,-2.818921 -0.22917,-0.179719 -0.36854,-0.313112 -0.0319,-0.534932 0.3255,-0.214435 1.08745,-0.567637 1.59999,-0.806596 -1.44784,-1.038929 -2.68856,-1.151539 -5.42943,-1.166617 0.66794,-0.474252 1.31767,-0.493278 3.28533,-1.146658 -0.78118,-0.886933 -2.52596,-2.089726 -4.77866,-2.269076 1.48771,-1.48034 1.77761,-1.63359 3.25333,-3.292385 -2.55541,0.544824 -4.73765,0.678067 -6.93333,0.636616 -1.38818,-0.254674 -3.31619,-0.257966 -4.256,-0.0068 z m 0.24545,2.906285 c 1.35039,-0.383684 2.18668,-0.158404 2.18668,0.402701 0,0.570845 -0.83629,1.272303 -2.18668,1.655987 -1.34477,0.382088 -2.19734,0.118142 -2.19734,-0.453003 2.4e-4,-0.561172 0.85257,-1.223597 2.19734,-1.605685 z m 33.57867,-9.540658 c 1.34477,-0.382087 2.1971,-0.204005 2.19734,0.357031 0,0.571145 -0.85257,1.31957 -2.19734,1.701657 -1.35039,0.383685 -2.18665,0.157446 -2.18665,-0.413399 0,-0.561105 0.83626,-1.261604 2.18665,-1.645289 z"
     id="path9"
     inkscape:connector-curvature="0" /><path
     inkscape:connector-curvature="0"
     id="path5924"
     style="fill:url(#linearGradient3823)"
     d="m 248.35974,206.96001 c -80.24012,-42.45169 -160.480231,51.37712 -240.7195788,8.92543 0,-55.61478 0,-111.23035 0,-166.845894 C 87.879509,91.490468 168.11962,-2.3375794 248.35974,40.114878 c 0,55.614786 0,111.230352 0,166.845132 z" /></g></svg>